<?xml version="1.0" encoding="utf-8"?>
<!-- Generator: Adobe Illustrator 25.3.0, SVG Export Plug-In . SVG Version: 6.00 Build 0)  -->
<svg version="1.1" xmlns="http://www.w3.org/2000/svg" xmlns:xlink="http://www.w3.org/1999/xlink" x="0px" y="0px"
	 viewBox="0 0 1024 1360" style="enable-background:new 0 0 1024 1360;" xml:space="preserve">
<style type="text/css">
	.st0{fill:#FFFFFF;stroke:#000000;stroke-miterlimit:10;}
	.st1{fill:#191919;}
	.st2{fill:#F7931E;}
	.st3{fill:none;stroke:#F0802C;stroke-miterlimit:10;}
	.st4{fill:url(#SVGID_1_);}
	.st5{fill:url(#SVGID_2_);}
	.st6{display:none;}
	.st7{display:inline;fill:#191919;}
</style>
<g id="Calque_9">
	<ellipse class="st0" cx="512" cy="680" rx="348" ry="635"/>
	<g>
		
			<image style="overflow:visible;opacity:0.6;" width="561" height="658" xlink:href="254C5C9C.png"  transform="matrix(1 0 0 1 242 541)">
		</image>
		<g>
			<path class="st1" d="M744.6,740.2c-5.4-5.4,54.8-53.1,39.5-68.4c-36.8-36.8-147.3-185-115-116.8c16.1,33.9,40.3,75.1-48.5,328.7
				c-37.7,107.8-91,244.7-107.8,267.7c-0.2,0.3-0.4,1-0.6,2c-0.2-1-0.4-1.7-0.6-2C495,1128.5,441.7,991.5,404,883.8
				c-88.8-253.7-64.6-294.8-48.5-328.7c32.3-68.3-78.1,79.9-115,116.8c-15.3,15.3,44.9,63,39.5,68.4c-10.3,10.3-45.8-0.8-35.9,16
				c53.9,91.6,185.5,297.9,267.7,425.7c0.1,0.2,0.2,0.3,0.3,0.4c0,0,0.1,0.1,0.1,0.1c0,0,0.1,0,0.1,0c0,0,0.1,0,0.1,0
				c0,0,0.1,0,0.1-0.1c0.1-0.1,0.2-0.2,0.3-0.4c82.1-127.9,213.8-334.1,267.7-425.7C790.4,739.4,754.9,750.5,744.6,740.2z"/>
		</g>
	</g>
	<g>
		
			<image style="overflow:visible;opacity:0.6;" width="77" height="453" xlink:href="254C5C93.png"  transform="matrix(1 0 0 1 483 566)">
		</image>
		<g>
			<path class="st1" d="M525.2,610.3c-0.7-11.4,23.6-38.6,16.2-46.7c-3.6-3.9-10.5,2.2-29.8,1.4c-19.6,0.7-26.7-5.3-30.4-1.4
				c-7.5,8,17.3,35.2,16.6,46.7c-1.4,22.6-29.6,157.9-13.8,311.2c4.1,40.2,26.2,80.6,27.6,80.6c1.4,0,23-40.4,27.1-80.6
				C554.2,768.3,526.5,633,525.2,610.3z"/>
		</g>
	</g>
	<g>
		<path class="st1" d="M572.2,366.9c-13-4.5-18.5-25.4-34.3-25.4c-11.4,0-12,1.6-24.7,1.6c-12.8,0-13.3-1.6-24.7-1.6
			c-18.9,0-19,20.1-34.3,25.4c-30.6,10.6-79.9-48-79.9-34.9c0,25.3,0.7,64.2,47.6,101.1c12.1,9.6,49.2,33,91.3,33.2
			c42.1-0.1,79.2-23.6,91.3-33.2c46.8-36.9,47.6-75.8,47.6-101.1C652.1,319,602.8,377.6,572.2,366.9z M482.7,369.5
			c-10.1-8.7,14.3-2.4,30.1-2.4c16.2,0,20.4-2.8,29.6-4.3c8.8-1.4-9.2,8.4-29.6,10C503.7,373.6,488.2,374.3,482.7,369.5z"/>
	</g>
	<g>
		<line class="st2" x1="469.5" y1="181.3" x2="469.4" y2="181.3"/>
		<path class="st3" d="M495.6,210.7c0-10.9,8.4-16.7,18.7-16.7"/>
		<line class="st3" x1="468" y1="182.1" x2="513.3" y2="182.1"/>
		<linearGradient id="SVGID_1_" gradientUnits="userSpaceOnUse" x1="296.4471" y1="124.302" x2="477.094" y2="265.6145">
			<stop  offset="0" style="stop-color:#EBBD15"/>
			<stop  offset="0.1401" style="stop-color:#ECB419"/>
			<stop  offset="0.3723" style="stop-color:#EE9A22"/>
			<stop  offset="0.5674" style="stop-color:#F0802C"/>
			<stop  offset="0.8652" style="stop-color:#C90573"/>
			<stop  offset="0.9944" style="stop-color:#7F3B8E"/>
		</linearGradient>
		<path class="st4" d="M495.9,201.4c-0.5-2.1-1.9-7.2-6.3-11.4c-2.2-2.1-4.4-3.2-6.1-4.1c-3-1.6-5.7-2.4-7.7-2.8
			c-2.1-0.6-4.3-1.2-6.4-1.7c-48.1-9.3-88.3,3.7-97,24.3c-2.3,5.4-5.7,18.9-4.4,34.2c0.6,7.2,2.3,13.7,4.4,20.1
			c8.7,26.2,32.1,29.6,44.4,29.6c50,0,77.6-68.3,79-74c1.2-5.1,0.8-9.9,0.8-9.9C496.5,203.4,496.1,201.9,495.9,201.4z"/>
		<line class="st2" x1="557.3" y1="181.3" x2="557.4" y2="181.3"/>
		<path class="st3" d="M531.3,210.7c0-10.9-7.4-16.7-17.7-16.7"/>
		<line class="st3" x1="558.9" y1="182.1" x2="513.3" y2="182.1"/>
		
			<linearGradient id="SVGID_2_" gradientUnits="userSpaceOnUse" x1="218.8418" y1="124.302" x2="399.4886" y2="265.6145" gradientTransform="matrix(-1 0 0 1 949.1425 0)">
			<stop  offset="0" style="stop-color:#EBBD15"/>
			<stop  offset="0.1401" style="stop-color:#ECB419"/>
			<stop  offset="0.3723" style="stop-color:#EE9A22"/>
			<stop  offset="0.5674" style="stop-color:#F0802C"/>
			<stop  offset="0.8652" style="stop-color:#C90573"/>
			<stop  offset="0.9944" style="stop-color:#7F3B8E"/>
		</linearGradient>
		<path class="st5" d="M530.8,201.4c0.5-2.1,1.9-7.2,6.3-11.4c2.2-2.1,4.4-3.2,6.1-4.1c3-1.6,5.7-2.4,7.7-2.8
			c2.1-0.6,4.3-1.2,6.4-1.7c48.1-9.3,88.3,3.7,97,24.3c2.3,5.4,5.7,18.9,4.4,34.2c-0.6,7.2-2.3,13.7-4.4,20.1
			c-8.7,26.2-32.1,29.6-44.4,29.6c-50,0-77.6-68.3-79-74c-1.2-5.1-0.8-9.9-0.8-9.9C530.3,203.4,530.7,201.9,530.8,201.4z"/>
	</g>
</g>
<g id="Calque_10" class="st6">
	<path class="st7" d="M315.9,857.1c5.1-5.1,18.3-2,52.5-26.9c42.3-30.7,46.1-29.5,67.9-30.7c18.1-1.1,42.8,7,75.6,19.2
		c79.4,29.5,96.7,14.6,101.2,35.9c3.8,17.9-20.5,19.2-57.7,11.5c-17.6-3.6-26.4-9-44.8-6.4c-15.1,2.1-28.8,9.2-28.2,11.5
		c0.5,2.1,12.2-2.3,29.5-2.6c37.5-0.5,47.6,14.8,78.2,10.2c6.1-0.9,24-3.2,28.2-14.1c6.4-16.7-3.5-18.7,0-25.6
		c1.3-2.6,10.2-6.4,32-25.6c15.7-13.9,37.7-30.2,43.6-24.3c1.3,1.3,2.4,8.6,5.1,7.7c3.8-1.3,9-5.1,12.8-1.3
		c7.8,7.8,1.3,16.7-6.4,26.9c-16.9,22.6-15.1,31.6-35.9,47.4c-47,35.7-102.5,61.6-124.3,60.2c-61.5-3.8-74.3-26.9-110.2-25.6
		c-46.8,1.7-70.5,32-87.1,29.5C319.5,929.6,297.3,875.8,315.9,857.1z"/>
</g>
<g id="Calque_11" class="st6">
	<path class="st7" d="M807.4,667.9c-6.2-6.2-22.1-2.5-63.3-32.4c-51-37.1-55.6-35.5-81.8-37.1c-21.8-1.3-51.6,8.5-91.1,23.2
		c-95.7,35.5-116.5,17.6-122,43.2c-4.6,21.6,24.7,23.2,69.5,13.9c21.2-4.4,31.8-10.8,54-7.7c18.2,2.6,34.7,11.1,34,13.9
		c-0.6,2.5-14.7-2.8-35.5-3.1c-45.2-0.6-57.4,17.8-94.2,12.4c-7.4-1.1-28.9-3.8-34-17c-7.7-20.1,4.2-22.5,0-30.9
		c-1.5-3.1-12.4-7.7-38.6-30.9c-19-16.7-45.4-36.4-52.5-29.3c-1.5,1.5-2.9,10.4-6.2,9.3c-4.6-1.5-10.8-6.2-15.4-1.5
		c-9.4,9.4-1.5,20.1,7.7,32.4c20.4,27.2,18.1,38.1,43.2,57.1c56.6,43,123.5,74.2,149.8,72.6c74.1-4.6,89.6-32.4,132.8-30.9
		c56.4,2,84.9,38.6,105,35.5C803.1,755.3,829.9,690.4,807.4,667.9z"/>
</g>
</svg>
