<?xml version="1.0" encoding="utf-8"?>
<!-- Generator: Adobe Illustrator 25.3.0, SVG Export Plug-In . SVG Version: 6.00 Build 0)  -->
<svg version="1.1" id="Calque_1" xmlns="http://www.w3.org/2000/svg" xmlns:xlink="http://www.w3.org/1999/xlink" x="0px" y="0px"
	 viewBox="0 0 213.78 200" style="enable-background:new 0 0 213.78 200;" xml:space="preserve">
<style type="text/css">
	.st0{fill:#191919;stroke:#F50057;stroke-width:0.75;stroke-miterlimit:10;}
</style>
<g id="Calque_2_2_">
	<g>
		<path class="st0" d="M137.21,40c-2.5,1.5-15.8,31.4-22.2,42.6c-19.8,35-29.6,54.5-37.7,54.6c-10.1,0.2-11.2-17.2-30.8-43.7
			c-12.7-17.1-23.7-22.7-33.1-26.2c-0.1,0-0.2,0.1-0.1,0.2c11.4,11,22.4,15.2,33,44.5c13.5,37.4,15.1,66.2,24.6,67.1
			c5.7,0.5,12-5.5,32-46.7C120.71,95.2,140.81,37.8,137.21,40z M83.31,153.1c-7.2,11.8-9.3,13.4-11,13.1c-2.9-0.5-2.5-9.3-5.5-21.1
			c-2.4-9.3-5.7-10.8-8.8-14.6c2.8,1.4,6.7,3.7,9.4,9.1c4.5,9,5,14,8.1,14.2c2.5,0.2,6-5.4,13-15.3c2.2-3.2,7.9-11.1,8.6-11.5
			C98.21,126.4,89.81,142.4,83.31,153.1z"/>
	</g>
</g>
<path class="st0" d="M154.61,22.5c-7.8,12-29.1,48.3-19,89c10.8,43.6,51.8,69.1,53,68c1-0.9-22-18.5-35-49
	C137.11,91.6,145.11,51,154.61,22.5z"/>
</svg>
