<?xml version="1.0" encoding="utf-8"?>
<!-- Generator: Adobe Illustrator 25.3.0, SVG Export Plug-In . SVG Version: 6.00 Build 0)  -->
<svg version="1.1" id="Calque_1" xmlns="http://www.w3.org/2000/svg" xmlns:xlink="http://www.w3.org/1999/xlink" x="0px" y="0px"
	 viewBox="0 0 200 100" style="enable-background:new 0 0 200 100;" xml:space="preserve">
<style type="text/css">
	.st0{fill:#201B1C;}
	.st1{fill:#F6A70C;}
	.st2{fill:#010101;}
	.st3{fill:#F6A80C;}
	.st4{fill:#020202;}
	.st5{fill:#070707;}
	.st6{fill:#0D0D0D;}
	.st7{fill:#131313;}
	.st8{fill:#141414;}
</style>
<g>
	<path class="st0" d="M83.2,40.5c2-4.3,7.7-5.2,10.3,0c0.9-1.8,2.2-3.1,4.2-3.5c3.3-0.7,6.3,1.4,6.6,4.8c0.4,5.5,0.1,11,0.1,16.5
		c0,0.8-0.4,1.1-1.2,1.1c-1,0-1.9-0.1-2.9,0c-1.1,0.1-1.4-0.4-1.4-1.4c0-4.4,0-8.8,0-13.2c0-1.9-0.8-2.7-2.3-2.7
		c-1.3,0-2,0.7-2.4,1.9C94,44.7,94,45.5,94,46.3c0,3.8,0,7.7,0,11.5c0,1.2-0.4,1.7-1.6,1.6c-0.8-0.1-1.7-0.1-2.5,0
		c-1.1,0.1-1.4-0.4-1.4-1.4c0-3.9,0-7.8,0-11.6c0-0.8,0-1.7-0.2-2.5c-0.2-1-0.9-1.7-2-1.8c-1.2-0.1-2,0.4-2.5,1.6
		c-0.3,0.8-0.4,1.7-0.4,2.6c0,3.9,0,7.8,0,11.6c0,1.1-0.3,1.6-1.5,1.5c-0.8-0.1-1.6-0.1-2.4,0C78.3,59.5,78,59,78,57.8
		c0-5.7,0-11.5,0-17.2c0-0.7,0-1.3,0-2c-0.1-1,0.4-1.4,1.3-1.3c0.3,0,0.5,0,0.8,0C83.1,37.4,83.1,37.4,83.2,40.5z"/>
	<path class="st0" d="M172.5,40.7c1.8-3.2,3.7-4.2,6.5-3.6c2.6,0.6,4.1,2.4,4.3,5.5c0.3,4.1,0.1,8.3,0.1,12.4c0,1.1,0,2.2,0,3.3
		c0,0.8-0.3,1.2-1.2,1.2c-1,0-1.9-0.1-2.9,0c-1.1,0.1-1.4-0.4-1.3-1.4c0-3.9,0-7.8,0-11.8c0-0.8,0-1.7-0.3-2.5
		c-0.3-0.9-0.8-1.6-1.8-1.7c-1-0.2-1.8,0.3-2.4,1.1c-0.7,1.1-0.9,2.3-0.9,3.5c0,3.7,0,7.4,0,11.1c0,1.2-0.3,1.6-1.6,1.6
		c-3.8,0-3.8,0-3.8-3.8c0-5.5,0-11,0-16.5c0-1.7,0-1.7,1.7-1.7C172.1,37.4,172.1,37.4,172.5,40.7z"/>
	<path class="st0" d="M137.3,41.7c-2.2,0-4.2,0-6.2,0c-0.9,0-1.4-0.3-1.3-1.3c0.1-3.6-0.4-3.2,3.1-3.2c3.3,0,6.5,0,9.8,0
		c1.1,0,1.5,0.3,1.5,1.4c0.1,1.6-0.4,3-1.3,4.3c-2.1,2.9-4.1,6-6.3,9.1c1.2,0.1,2.3,0.2,3.4,0.4c0.5,0.1,1,0.2,1.4,0.3
		c3.1,0.9,3.8,2.1,3.2,5.2c-0.2,0.7-0.5,0.9-1.2,0.6c-4.4-2.1-8.7-2.1-13.1,0c-0.9,0.4-1.2,0-1.2-0.8c-0.1-2.2-0.1-4.3,1.4-6.2
		C132.8,48.5,134.9,45.2,137.3,41.7z"/>
	<path class="st1" d="M27.8,75.6c-3.7-1.6-7.1-3.1-10.6-4.6c-0.5-0.2-0.6-0.6-0.5-1.1c0.1-4.3,0.2-8.6,0.2-12.9
		c0-0.9,0.3-0.8,0.9-0.5c3.1,1.2,6.1,2.5,9.2,3.6c0.5,0.2,0.8,0.4,0.8,1C27.8,65.9,27.8,70.6,27.8,75.6z"/>
	<path class="st1" d="M64.1,14.5c3.8,1.5,7.2,2.9,10.6,4.2c0.5,0.2,0.6,0.6,0.6,1c0,4.5,0,9,0,13.5c0,0.8-0.3,0.8-0.9,0.6
		c-3.2-1.4-6.4-2.8-9.5-4.2c-0.4-0.2-0.7-0.3-0.7-0.8C64.1,24.1,64.1,19.4,64.1,14.5z"/>
	<path class="st1" d="M39.8,54.2c-3.7-1.6-7.1-3.1-10.5-4.6c-0.5-0.2-0.6-0.5-0.6-1c0-4.6,0-9.1,0-14c1.6,0.6,2.9,1.1,4.1,1.6
		c2,0.8,4.1,1.6,6.1,2.4c0.5,0.2,0.9,0.4,0.9,1.1C39.8,44.5,39.8,49.2,39.8,54.2z"/>
	<path class="st1" d="M15.3,47.1c0,2.2,0,4.3,0,6.5c0,0.8-0.1,1.2-1,0.7c-3.1-1.4-6.2-2.8-9.3-4.1c-0.7-0.3-0.9-0.7-0.9-1.4
		c0.1-4.2,0.2-8.4,0.2-12.5c0-0.9,0.2-1,1-0.7c2.9,1.2,5.9,2.4,8.8,3.5c0.8,0.3,1.1,0.7,1.1,1.5C15.2,42.8,15.3,45,15.3,47.1z"/>
	<path class="st1" d="M41.7,45.6c0-2.1,0-4.1,0-6.2c0-0.7,0.2-1,0.9-1.3c2.8-1,5.6-2.1,8.4-3.2c0.8-0.3,0.9,0,0.9,0.6
		c0,4.1,0,8.1,0,12.2c0,0.7-0.3,1.1-0.9,1.4c-2.7,1-5.4,2.1-8.1,3.3c-1,0.4-1.1,0.1-1.1-0.8C41.8,49.6,41.7,47.6,41.7,45.6z"/>
	<path class="st1" d="M77.2,25.5c0-2,0-4,0-6.1c0-0.7,0.2-1.1,0.9-1.4c2.8-1,5.5-2,8.3-3.1c0.8-0.3,0.9-0.1,0.9,0.7
		c0,4,0,8.1,0,12.1c0,0.7-0.2,1-0.8,1.3c-2.7,1.1-5.5,2.2-8.2,3.3c-1,0.4-1.1,0.1-1.1-0.8C77.2,29.6,77.2,27.5,77.2,25.5z"/>
	<path class="st1" d="M39.8,56.1c0,4.6,0,9.1,0,13.5c0,0.4-0.2,0.6-0.6,0.8c-3.1,1.2-6.2,2.5-9.4,3.8c0-0.6-0.1-1-0.1-1.5
		c0-3.9,0-7.8,0-11.7c0-0.6,0-1.1,0.7-1.3C33.5,58.5,36.5,57.3,39.8,56.1z"/>
	<path class="st1" d="M17.2,53.4c0-4.7,0-9.1,0-13.6c0-0.5,0.1-0.8,0.6-1c2.9-1.1,5.8-2.2,8.6-3.3c0.7-0.3,0.8,0,0.8,0.6
		c0,4.1,0,8.3,0,12.4c0,0.5-0.1,0.8-0.6,1C23.6,50.8,20.5,52,17.2,53.4z"/>
	<path class="st1" d="M41.2,22.2c0-2.1,0-4.2,0-6.3c0-0.8,0.2-1,1-0.6c2.7,1.1,5.3,2.3,8,3.3c0.6,0.2,0.8,0.5,0.8,1.2
		c-0.1,3.8-0.2,7.6-0.3,11.5c0,0.9-0.3,1-1.1,0.7c-2.5-0.8-5-1.5-7.5-2.1c-0.8-0.2-1-0.6-1-1.4C41.2,26.3,41.2,24.3,41.2,22.2z"/>
	<path class="st1" d="M62.5,15.7c0,3.7-0.2,7.2,0.1,10.7c0.2,2.6-0.5,4.1-3.1,4.9c-2,0.6-3.8,1.7-5.9,2.6c0-3.5,0-6.9,0-10.2
		c0-1.4-0.6-3.1,0.2-4.1c0.7-0.9,2.4-1.2,3.6-1.7C59,17.1,60.7,16.4,62.5,15.7z"/>
	<path class="st2" d="M61.7,77.9c0.7-3.5,1.5-7,2.2-10.5c0.1-0.7,0.3-1.2,1.2-1.2c0.9,0,1.2,0.4,1.3,1.2c0.6,3.4,1.3,6.8,2.1,10.6
		c0.9-3.9,1.7-7.4,2.5-10.9c0.1-0.4,0.1-0.8,0.7-0.9c0.9,0,1.4,0,1.1,1.2c-1.1,4.3-2.1,8.7-3.1,13.1c-0.2,0.8-0.5,1-1.3,1
		c-0.9,0.1-1.1-0.4-1.2-1.1c-0.7-3.4-1.4-6.7-2.1-10.4c-0.7,3.6-1.4,6.9-2,10.2c-0.2,0.9-0.4,1.4-1.5,1.3c-0.7-0.1-1-0.2-1.1-0.9
		c-1-4.4-2.1-8.7-3.1-13.1c-0.1-0.3-0.8-1.1,0.3-1.2c0.7-0.1,1.5-0.3,1.7,0.8c0.7,3.6,1.5,7.1,2.2,10.7
		C61.6,77.9,61.6,77.9,61.7,77.9z"/>
	<path class="st2" d="M178.2,81.4c-2.6,0-4.4-1.6-4.8-4.2c-0.1-0.7,0.2-0.9,0.7-0.9c0.4,0,1-0.6,1.3,0.4c0.5,2,1.9,2.8,3.7,2.4
		c1.1-0.3,1.8-1,1.9-2.1c0.1-1.1-0.5-1.7-1.5-2.1c-1.2-0.4-2.4-0.8-3.6-1.4c-1.9-0.8-2.5-2.3-2.3-4.6c0.2-1.8,1.4-3,3.2-3.4
		c2.8-0.6,5.2,0.8,5.6,3.3c0.1,0.5,0.1,0.9-0.6,0.9c-0.5,0-1,0.5-1.4-0.4c-0.6-1.8-2.1-2.4-3.8-1.6c-0.8,0.3-1.2,0.9-1.2,1.7
		c0,0.8,0.4,1.3,1.1,1.6c1.1,0.4,2.2,0.8,3.3,1.2c2.6,1,3.5,2.6,3,5.3C182.5,80,180.7,81.4,178.2,81.4z"/>
	<path class="st2" d="M106.3,81.4c-2.5,0-4.2-1.3-4.8-3.9c-0.1-0.5-0.3-1.1,0.6-1.1c0.6,0,1.2-0.5,1.4,0.6c0.4,1.9,2,2.7,3.8,2.2
		c1-0.3,1.6-1,1.7-2.1c0.1-1-0.5-1.6-1.4-2c-1.2-0.5-2.4-0.9-3.6-1.4c-1.9-0.8-2.7-2.5-2.4-4.7c0.3-1.8,1.6-3.1,3.5-3.4
		c2.7-0.4,4.8,0.9,5.3,3.4c0.1,0.4,0.2,1-0.4,0.9c-0.5,0-1.1,0.6-1.5-0.4c-0.6-1.7-1.9-2.2-3.6-1.7c-0.8,0.3-1.3,0.8-1.4,1.7
		c-0.1,0.9,0.4,1.4,1.2,1.7c1.1,0.4,2.1,0.8,3.2,1.2c2.6,1,3.5,2.6,3,5.4C110.5,80,108.8,81.4,106.3,81.4z"/>
	<path class="st2" d="M151.5,73.4c0,1.2,0.1,2.4,0.5,3.5c0.5,1.5,1.6,2.3,2.9,2.3c1.3,0,2.2-1,2.7-2.5c0.1-0.5-0.1-1.3,1-1.1
		c0.9,0.1,1.3,0.3,1,1.4c-0.5,1.6-1.1,3.1-2.7,3.9c-2.1,1.2-4.8,0.5-6-1.8c-2-3.7-1.9-7.5,0-11.1c0.9-1.8,3-2.7,4.9-2.3
		c1.9,0.3,3.2,1.7,3.7,3.9c0.1,0.5,0.1,1-0.6,1c-0.5,0-1.2,0.5-1.4-0.5c-0.3-1.3-1-2.3-2.5-2.3c-1.3,0-2.4,0.9-2.9,2.4
		C151.6,71.1,151.5,72.3,151.5,73.4z"/>
	<path class="st2" d="M132.5,66.3c0.3-1,1.1-0.4,1.7-0.5c0.6-0.1,0.6,0.4,0.7,0.8c1,3.6,2,7.3,3.1,11.1c1-3.5,1.9-6.9,2.9-10.2
		c0.5-1.8,0.5-1.8,2.5-1.6c-1.4,4.9-2.8,9.7-4.2,14.5c-0.2,0.7-0.8,0.5-1.3,0.6c-0.7,0.1-0.9-0.2-1.1-0.8c-1.2-4.3-2.5-8.5-3.7-12.8
		C132.8,67,132.9,66.5,132.5,66.3L132.5,66.3z"/>
	<path class="st3" d="M32.8,33.9c2.6-1.1,4.8-2.1,7.1-3c0.3-0.2,0.7-0.1,1,0c2.3,1,4.5,1.9,7.1,3c-2.8,1-5.4,2-8,2.9
		c-0.2,0.1-0.4,0-0.6-0.1C37.2,35.8,35.1,34.9,32.8,33.9z"/>
	<path class="st3" d="M44.2,13.8c2.5-1.1,4.8-2,7-3c0.4-0.2,0.8-0.2,1.3,0c2.2,1,4.4,1.9,6.9,3c-2.8,1-5.3,2-7.9,2.9
		c-0.3,0.1-0.5,0-0.8-0.1C48.7,15.7,46.6,14.8,44.2,13.8z"/>
	<path class="st3" d="M36,55.3c-2.7,1-5.2,1.9-7.7,2.8c-0.3,0.1-0.6,0.1-0.9,0c-2.1-0.9-4.3-1.8-6.6-2.8c2.6-1.1,4.9-2.1,7.2-3.1
		c0.3-0.1,0.5-0.1,0.8,0C31.1,53.2,33.4,54.2,36,55.3z"/>
	<path class="st3" d="M8.2,34.4c2.5-1.1,4.8-2.1,7.1-3c0.3-0.1,0.7-0.2,1,0c2.3,1,4.6,2,7.2,3.1c-2.8,1-5.3,1.9-7.8,2.8
		c-0.3,0.1-0.6,0.1-0.9-0.1C12.7,36.3,10.6,35.4,8.2,34.4z"/>
	<path class="st3" d="M68.2,13.8c2.5-1.1,4.8-2,7-3c0.4-0.2,0.8-0.2,1.1,0c2.3,1,4.5,1.9,7,3c-2.8,1-5.3,2-7.9,2.9
		c-0.3,0.1-0.5,0-0.8-0.1C72.7,15.7,70.6,14.8,68.2,13.8z"/>
	<path class="st4" d="M132.4,66.3c-0.2,0.8-0.4,1.5-0.6,2.3c-2.2-0.8-3.3-0.2-3.6,2.3c-0.3,2.6-0.1,5.2-0.2,7.8c0,0.5-0.1,1,0,1.5
		c0.1,0.9-0.4,1-1.1,1c-0.8,0-1-0.2-0.9-1c0-4.4,0-8.7,0-13.1c0-0.6-0.2-1.3,0.9-1.3c1.1,0,0.9,0.7,0.9,1.3c0,0.2,0,0.3,0.1,0.8
		c0.6-1,0.9-2,1.9-2.2C130.9,65.3,131.7,65.8,132.4,66.3C132.5,66.3,132.4,66.3,132.4,66.3z"/>
	<path class="st5" d="M147,73.4c0,2.2,0,4.5,0,6.7c0,0.8-0.3,0.9-1,0.9c-0.7,0-1-0.1-1-0.9c0-4.5,0-9,0-13.5c0-0.8,0.3-0.9,1-0.9
		c0.7,0,1,0.1,1,0.9C147,68.9,147,71.2,147,73.4z"/>
	<path class="st6" d="M192.5,71.4c0.5-1.4,0.9-2.6,1.3-3.8c0.2-0.5,0.1-1.3,1-1.1c0.9,0.2,0.4,0.9,0.4,1.4c0.1,1,0.1,2,0,3
		c0,0.5,0.3,1.3-0.3,1.3c-0.8,0-0.4-0.8-0.4-1.3c-0.1-0.9,0-1.8-0.2-2.7c-0.4,1.1-0.8,2.1-1.2,3.2c-0.1,0.3-0.1,0.8-0.7,0.8
		c-0.5,0-0.5-0.5-0.6-0.8c-0.4-1.1-0.8-2.3-1.4-3.4c0,1.2,0,2.4,0,3.6c0,0.3,0,0.6-0.4,0.6c-0.4,0-0.4-0.3-0.4-0.6c0-1.5,0-3,0-4.5
		c0-0.3-0.1-0.7,0.4-0.8c0.4,0,0.7,0,0.9,0.5C191.4,68.4,191.9,69.8,192.5,71.4z"/>
	<path class="st7" d="M186.2,69.7c0-0.4,0-0.8,0-1.2c0.1-0.9-0.1-1.4-1.2-1.3c-0.3,0-0.7,0.1-0.7-0.3c0-0.6,0.5-0.4,0.8-0.4
		c1.1,0,2.1,0,3.2,0c0.3,0,0.7-0.1,0.6,0.4c0,0.4-0.3,0.4-0.6,0.3c-1.4-0.3-1.3,0.6-1.3,1.5c0,1,0,2,0,3c0,0.3,0,0.5-0.4,0.5
		c-0.4,0-0.4-0.3-0.4-0.5C186.2,71.1,186.2,70.4,186.2,69.7z"/>
	<path class="st8" d="M147,61.5c0,0.8,0.3,1.6-1.1,1.6c-1.4,0-0.9-1-1-1.6c-0.1-0.7-0.3-1.4,1-1.5C147.4,60,146.9,60.9,147,61.5z"/>
	<path class="st0" d="M126.3,55.3c-1-1.2-1.3-2.6-1.3-4.2c0.1-1.1,0-2.3,0-3.4c0,0,0,0,0,0c0-1.6,0.1-3.2,0-4.8
		c-0.1-2.9-1.5-4.8-4.2-5.6c-2.7-0.9-5.5-0.7-8.1,0.4c-2.1,0.9-3.3,2.5-3.9,4.7c-0.2,0.9,0,1.3,1,1.4c0.9,0.1,1.8,0.2,2.6,0.3
		c0.8,0.1,1.2-0.1,1.5-0.9c0.5-1.7,2-2.4,3.8-2.1c1.4,0.3,1.9,1.2,2,3.1c0,1-0.2,1.4-1.3,1.4c-0.9,0-1.8,0.2-2.8,0.3
		c-2.5,0.4-4.9,1.1-6.4,3.5c-2.3,3.5-1.1,8.5,2.4,9.8c2.4,0.9,4.7,0.6,6.8-0.7c0.7-0.4,1.3-1.4,2-1.4c0.6,0,1.1,1.1,1.6,1.7
		c0.7,0.8,1.3,0.9,2.1,0.1c0.6-0.7,1.3-1.3,2.1-1.8C126.8,56.5,126.8,55.9,126.3,55.3z M119.5,50.6c0,1.5-0.2,2.9-1.3,4
		c-0.8,0.8-1.7,1.3-2.8,0.9c-1.2-0.4-1.6-1.3-1.7-2.4c-0.2-2.4,1.2-3.9,3.8-4.3C119.5,48.5,119.5,48.5,119.5,50.6z"/>
	<path class="st0" d="M74.8,55.3c-1.1-1.3-1.3-2.7-1.3-4.3c0-2.8,0-5.6,0-8.5c0-1.7-0.7-3.2-2.1-4.2c-3.2-2.4-9.6-2-12.4,0.9
		c-0.7,0.7-1.3,1.6-1.5,2.6c-0.2,0.6-0.8,1.5,0.3,1.9c1.7,0.7,4.1,0.5,4.5-0.4c0.8-1.9,2.1-2.7,3.9-2.2c1.4,0.3,2,1.4,2,3.4
		c0,0.9-0.4,1-1.1,1.1c-1.8,0.1-3.6,0.3-5.3,0.9c-2.7,0.8-4.5,2.6-5.1,5.4c-1,4.7,1.7,7.9,6.5,7.8c2.3-0.1,4.1-1.2,5.7-2.9
		c0.6,0.9,1.1,1.6,1.8,2.2c0.6,0.6,1.2,0.6,1.8,0c0.7-0.7,1.5-1.4,2.3-2C75.3,56.4,75.3,55.9,74.8,55.3z M68,50.3
		c-0.1,1-0.1,2-0.5,2.9c-0.6,1.3-1.4,2.4-3,2.4c-1,0-1.7-0.5-2.1-1.5c-0.6-1.3-0.2-3.2,0.7-4.2c1.2-1.1,2.8-1.4,4.3-1.3
		C68.5,48.8,67.7,49.8,68,50.3z"/>
	<path class="st0" d="M162.5,41.1c-1.7-2.8-4.2-4.2-7.5-4.1c-3.2,0.1-5.6,1.6-7,4.4c-2.2,4.6-2.3,9.3,0,13.9
		c3,5.9,10.7,6.2,14.3,0.6c1.4-2.2,1.9-4.7,1.9-7.3C164.3,45.9,163.9,43.4,162.5,41.1z M158.1,52.8c-0.2,0.6-0.4,1.3-0.8,1.8
		c-1.1,1.4-3,1.4-4-0.1c-0.4-0.6-0.6-1.3-0.7-2c-0.5-2.7-0.5-5.5-0.1-8.3c0.1-0.5,0.3-1,0.5-1.5c0.5-1.1,1.3-1.6,2.5-1.6
		c1.2,0.1,1.9,0.7,2.3,1.8c0.6,1.7,0.6,3.5,0.6,5.5C158.4,49.8,158.5,51.3,158.1,52.8z"/>
	<path class="st2" d="M96.4,69.1c-1.4-3.4-4.4-4-7.2-1.3c0-2.2,0-4.2,0-6.3c0-0.9-0.4-0.9-1.1-0.9c-0.7,0-1,0.1-1,0.9
		c0,6.4,0,12.8,0,19.2c0,0.8,0.3,0.9,1,1c1.3,0.1,0.8-0.8,0.9-1.5c2.3,2.4,4.5,2.4,6.3,0.2c0.4-0.5,0.8-1,1-1.6
		C97.6,75.5,97.7,72.3,96.4,69.1z M94.4,78.2c-0.6,0.9-1.2,1.6-2.4,1.5C90.8,79.7,90,79,89.7,78c-1-2.7-1.1-5.4,0.1-8.1
		c0.5-1,1.2-1.9,2.5-1.8c1.2,0.1,1.9,0.9,2.4,2c0.5,1.2,0.5,2.5,0.6,3.7C95.2,75.4,95.2,76.9,94.4,78.2z"/>
	<path class="st2" d="M163.5,74.1c1.2,0,2.4,0,3.6,0c1.2,0,2.5,0,3.7,0c0.6,0,0.8-0.2,0.8-0.7c0-1.6-0.2-3.2-0.9-4.6
		c-0.9-1.9-2.3-3.3-4.6-3.2c-2.3,0-3.8,1.3-4.6,3.4c-1.2,3-1.2,6.1,0,9.2c0.9,2.2,2.6,3.4,4.9,3.3c2.2,0,3.8-1.2,4.7-3.5
		c0.5-1.4,0.4-1.6-1-1.7c-0.8-0.1-0.7,0.5-0.9,0.9c-0.6,1.2-1.4,2.2-2.9,2.1c-1.5-0.1-2.4-1-2.9-2.3c-0.3-0.7-0.4-1.3-0.5-2
		C162.8,74.3,163,74.1,163.5,74.1z M163.2,70.2c0.6-1.8,2.1-2.9,3.5-2.6c1.4,0.3,2.8,2.1,2.8,3.8c0,0.5-0.3,0.5-0.7,0.5
		c-0.9,0-1.8,0-2.6,0c-0.6,0-1.1,0-1.7,0C162.7,72,162.6,71.9,163.2,70.2z"/>
	<path class="st2" d="M115.7,74.1c1.2,0,2.4,0,3.6,0c1.2,0,2.4,0,3.6,0c0.6,0,0.9-0.2,0.8-0.8c-0.1-1.6-0.2-3.2-0.9-4.6
		c-0.9-1.9-2.3-3.2-4.5-3.2c-2.2,0-3.8,1.2-4.6,3.2c-1.3,3.1-1.3,6.3-0.1,9.4c0.9,2.2,2.6,3.3,4.9,3.3c2.2,0,3.8-1.3,4.6-3.5
		c0.5-1.3,0.1-1.8-1.3-1.6c-0.7,0.1-0.6,0.7-0.8,1.1c-0.6,1.1-1.4,1.9-2.7,2c-1.4,0-2.2-0.8-2.8-1.9c-0.4-0.7-0.6-1.6-0.7-2.4
		C114.8,74.3,115,74.1,115.7,74.1z M118.2,67.6c1.7,0,3.6,2.2,3.3,4c-0.1,0.4-0.3,0.4-0.5,0.4c-1.8,0-3.7,0-5.5,0
		c-0.3,0-0.4-0.2-0.5-0.5C114.8,69.8,116.6,67.6,118.2,67.6z"/>
	<path class="st2" d="M76.8,74.7c1.2,0,2.4,0,3.6,0c1.2,0,2.4,0,3.6,0c0.6,0,0.9-0.1,0.9-0.8c0-1.5-0.2-2.9-0.7-4.3
		c-0.8-2-2.1-3.5-4.4-3.6c-2.1-0.1-3.9,1.1-4.8,3.3c-1.2,3-1.2,6.1-0.1,9.2c0.9,2.3,2.7,3.4,5,3.4c2.1,0,3.7-1.3,4.5-3.6
		c0.5-1.3,0.3-1.4-1-1.5c-0.9-0.1-0.8,0.7-1,1.1c-0.6,1.1-1.3,1.9-2.6,1.9c-1.4,0-2.2-0.7-2.8-1.8c-0.4-0.8-0.6-1.7-0.7-2.5
		C76,74.8,76.2,74.6,76.8,74.7z M76.4,71c0.5-1.9,1.9-3.1,3.4-2.8c1.5,0.2,2.7,1.9,2.8,3.7c0,0.6-0.2,0.7-0.7,0.7
		c-0.9,0-1.8,0-2.6,0c-0.6,0-1.1,0-1.7,0C76.1,72.5,76,72.4,76.4,71z"/>
</g>
</svg>
