<?xml version="1.0" encoding="utf-8"?>
<!-- Generator: Adobe Illustrator 25.3.0, SVG Export Plug-In . SVG Version: 6.00 Build 0)  -->
<svg version="1.1" id="Calque_2" xmlns="http://www.w3.org/2000/svg" xmlns:xlink="http://www.w3.org/1999/xlink" x="0px" y="0px"
	 viewBox="0 0 100 100" style="enable-background:new 0 0 100 100;" xml:space="preserve">
<style type="text/css">
	.st0{fill:#563D7C;}
	.st1{fill:#FEFEFE;}
	.st2{fill:#563D7B;}
</style>
<g>
	<path class="st0" d="M93.7,18.7c0,20.9,0,41.8,0,62.7c-0.2,4.5-2.5,7.8-6.1,10.4c-2.3,1.6-5,1.8-7.6,1.8c-19.9,0.1-39.7,0-59.6,0.1
		c-4.6,0-8.2-1.5-11.2-5c-2.2-2.6-2.8-5.6-2.8-8.8c0-20,0-40,0-59.9c0-4.7,1.8-8.3,5.4-11.2c2-1.7,4.5-1.8,6.8-2.3
		c21,0,42.1,0,63.1,0c4.6,0.2,7.9,2.6,10.4,6.3C93.4,14.5,93.3,16.6,93.7,18.7z"/>
	<path class="st1" d="M30.3,25.2c8.8,0,17.5,0,26.3,0c2.2,0,4.2,0.5,6.2,1.3c4.5,1.8,6.9,5.2,7.3,10c0.3,5-1.5,8.9-5.9,11.5
		c-0.2,0.1-0.4,0.2-0.5,0.3c-0.2,0.1-0.3,0.2-0.5,0.3c0,0.1,0.1,0.2,0.1,0.3c5.8,1.4,8.9,5.9,9.1,12.3c0.3,6.3-2.8,10.9-8.6,13.2
		c-2.5,1-5.1,1.6-7.7,1.6c-8.6,0-17.1,0-25.7,0c-0.4-0.5-0.2-1-0.2-1.5c0-15.9,0-31.8,0-47.7C30.1,26.2,29.9,25.7,30.3,25.2z"/>
	<path class="st2" d="M48.5,68.7c-2.6,0-5.2,0-7.7,0c-1.1,0-1.6-0.1-1.6-1.4c0.1-4.3,0-8.6,0-13c0-0.9,0-1.5,1.2-1.5
		c5.5,0.1,11-0.3,16.4,0.2c4.4,0.4,6.9,3.4,6.7,7.9c-0.2,4.5-2.9,7.5-7.3,7.7C53.6,68.7,51,68.6,48.5,68.7
		C48.5,68.6,48.5,68.7,48.5,68.7z"/>
	<path class="st2" d="M47.9,32.5c2.3,0,4.6-0.1,7,0c4,0.2,5.9,2,6.3,5.9c0.4,3.9-1.6,6.9-5.2,7.7c-2.2,0.5-4.5,0.3-6.7,0.3
		c-2.9,0-5.8,0-8.7,0c-1.1,0-1.4-0.3-1.4-1.4c0.1-3.7,0.1-7.5,0-11.2c0-1.1,0.3-1.4,1.4-1.4C43,32.5,45.5,32.5,47.9,32.5
		C47.9,32.5,47.9,32.5,47.9,32.5z"/>
</g>
</svg>
