<?xml version="1.0" encoding="utf-8"?>
<!-- Generator: Adobe Illustrator 25.3.0, SVG Export Plug-In . SVG Version: 6.00 Build 0)  -->
<svg version="1.1" id="Calque_2" xmlns="http://www.w3.org/2000/svg" xmlns:xlink="http://www.w3.org/1999/xlink" x="0px" y="0px"
	 viewBox="0 0 100 100" style="enable-background:new 0 0 100 100;" xml:space="preserve">
<style type="text/css">
	.st0{fill:#016EB6;}
	.st1{fill:#B5D5EA;}
	.st2{fill:#B3D4E9;}
	.st3{fill:#FEFEFE;}
	.st4{fill:#1680BC;}
	.st5{fill:#1B83BD;}
</style>
<g>
	<path class="st0" d="M49.6,91.1c-0.3-0.1-0.5-0.1-0.8-0.2c-1.3-0.5-2.6-0.8-3.9-1.1c-1.8-0.5-3.6-1-5.4-1.5c-2.7-0.7-5.3-1.5-8-2.2
		c-2.5-0.7-5.1-1.4-7.6-2.1c-1.2-0.4-2.5-0.7-3.7-1c-0.5-0.1-0.6-0.4-0.6-0.8c-0.2-2.3-0.4-4.6-0.6-6.9c-0.2-2.6-0.4-5.1-0.6-7.7
		c-0.1-1.8-0.3-3.6-0.4-5.4c-0.2-2.3-0.4-4.6-0.6-6.9c-0.2-2.6-0.4-5.2-0.7-7.8c-0.1-1.4-0.2-2.8-0.3-4.2c-0.3-2.6-0.4-5.2-0.7-7.8
		c-0.2-1.4-0.2-2.9-0.3-4.4c-0.2-1.7-0.3-3.5-0.4-5.3c-0.2-2.2-0.4-4.5-0.6-6.7c-0.2-2.6-0.3-5.2-0.7-7.8c-0.1-0.5,0.1-1-0.2-1.5
		c0-1.2,0-1.2,1.3-1.2c23.5,0,46.9,0,70.4,0c1.2,0,1.3,0.1,1,1.3c-0.3,1-0.3,1.9-0.3,2.9c-0.1,1.3-0.2,2.6-0.3,3.9
		c-0.1,1.4-0.3,2.7-0.4,4.1c-0.2,2-0.4,4-0.5,6c-0.2,2-0.3,3.9-0.5,5.9c-0.2,2.4-0.4,4.8-0.6,7.2c-0.2,2.5-0.4,4.9-0.6,7.4
		c-0.2,1.9-0.4,3.8-0.5,5.7c-0.2,1.9-0.3,3.8-0.5,5.7c-0.2,1.9-0.3,3.8-0.5,5.7c-0.2,1.8-0.3,3.7-0.5,5.5c-0.2,2.1-0.4,4.1-0.6,6.2
		c-0.1,1.7-0.4,3.4-0.4,5.1c0,0.5-0.2,1-0.2,1.5c0,0.3-0.3,0.4-0.6,0.5c-1.9,0.5-3.7,1.1-5.6,1.6c-2.6,0.8-5.1,1.5-7.7,2.2
		c-2.8,0.8-5.5,1.6-8.3,2.4c-2.4,0.7-4.8,1.3-7.2,2.1C50.1,91.3,49.9,91.2,49.6,91.1z"/>
	<path class="st1" d="M13.5,9.6c0.3,0.1,0.4,0.4,0.4,0.7c0.3,3.6,0.5,7.3,0.8,10.9c0.4,4.9,0.8,9.7,1.2,14.6c0.3,3,0.5,6.1,0.7,9.1
		c0.4,5,0.8,10,1.3,15.1c0.3,3.3,0.5,6.5,0.8,9.8c0.3,3.6,0.6,7.3,0.9,10.9c0,0.2,0,0.5,0.1,0.7c0.1,1.7-0.1,1.3,1.4,1.7
		c3.1,0.9,6.2,1.8,9.3,2.6c3.3,0.9,6.6,1.8,9.9,2.8c2.8,0.8,5.6,1.6,8.3,2.3c0.1,0,0.2,0.1,0.2,0.2c-1.6-0.3-3.1-0.8-4.7-1.2
		c-2.3-0.6-4.6-1.3-6.9-1.9c-2.2-0.6-4.3-1.3-6.5-1.9c-2.2-0.6-4.3-1.2-6.5-1.8c-1.5-0.4-2.9-0.9-4.4-1.3c-0.3-0.1-0.4-0.2-0.4-0.5
		c-0.1-1.7-0.3-3.3-0.4-5c-0.2-1.9-0.2-3.8-0.5-5.7c-0.2-1.4-0.2-2.9-0.3-4.4c-0.2-2.6-0.4-5.2-0.6-7.9c-0.2-2-0.3-4-0.5-6
		c-0.2-2-0.3-4.1-0.5-6.1c-0.2-1.4-0.2-2.8-0.3-4.1c-0.3-3.2-0.6-6.5-0.8-9.7c-0.1-1.5-0.2-3.1-0.4-4.6c-0.2-1.9-0.2-3.7-0.5-5.6
		c-0.2-1.4-0.3-2.8-0.3-4.2c-0.1-2.1-0.3-4.2-0.5-6.3c-0.1-0.8-0.5-1.6-0.4-2.4C13.5,10,13.5,9.8,13.5,9.6z"/>
	<path class="st2" d="M49.6,91.1c1.7-0.2,3.2-0.8,4.8-1.3c3.4-0.9,6.7-1.9,10-2.9c3.2-0.9,6.3-1.8,9.5-2.7c1.7-0.5,3.4-1,5.1-1.5
		c0.4-0.1,0.5-0.3,0.6-0.7c0.3-3.8,0.6-7.6,1-11.5c0.5-5.5,1-11.1,1.5-16.6c0.3-3.1,0.5-6.3,0.8-9.4c0.3-3.3,0.6-6.7,0.9-10
		c0.3-3,0.5-6.1,0.8-9.1c0.4-4.2,0.7-8.3,1.1-12.4c0-0.2,0-0.3,0.1-0.5c0.3,0.6,0,1.2,0,1.9c-0.1,1.8-0.3,3.6-0.5,5.5
		c-0.2,2.1-0.4,4.1-0.5,6.2c-0.1,1.8-0.3,3.6-0.5,5.3c-0.2,2-0.4,4.1-0.5,6.1c-0.1,1.7-0.3,3.4-0.4,5.1c-0.2,2.1-0.4,4.2-0.5,6.3
		c-0.1,1.8-0.4,3.6-0.5,5.5c-0.1,2.2-0.3,4.4-0.6,6.6c-0.2,1.2-0.2,2.4-0.3,3.6c-0.1,1.5-0.3,3-0.4,4.5c-0.2,2.2-0.4,4.4-0.6,6.7
		c-0.1,1.5-0.3,2.9-0.4,4.4c-0.1,0.7-0.1,1.4-0.1,2.1c-0.1,0.8-0.7,0.8-1.2,0.9c-2.3,0.6-4.5,1.3-6.7,1.9c-2.1,0.6-4.3,1.2-6.4,1.8
		c-2.1,0.6-4.2,1.3-6.3,1.9c-1.7,0.5-3.4,0.9-5.1,1.4c-1.1,0.3-2.3,0.6-3.4,1C50.4,91.3,50,91.9,49.6,91.1z"/>
	<path class="st3" d="M49.1,75.2c-2.8-0.8-5.6-1.6-8.4-2.3c-3.1-0.9-6.2-1.7-9.2-2.6c-0.5-0.1-0.6-0.4-0.7-0.8
		c-0.3-4.3-0.7-8.5-1.1-12.7c-0.1-0.7,0.1-0.8,0.8-0.8c2.4,0,4.9,0,7.3,0c0.7,0,0.8,0.2,0.9,0.8c0.2,1.9,0.5,3.8,0.6,5.7
		c0,0.3,0.2,0.4,0.5,0.5c1.9,0.5,3.9,1,5.8,1.4c0.5,0.1,1.1,0.2,1.6,0.4l0,0c0.5,0,1,0.3,1.6,0.3c0.9,0.1,1.8-0.2,2.7-0.5
		c0.9-0.3,1.8-0.4,2.8-0.6c1.4-0.3,2.9-0.6,4.3-0.8c0.9-0.2,1.1-0.3,1.2-1.3c0.2-2.7,0.6-5.4,0.8-8.2c0-0.5,0.2-1,0.2-1.5
		c0.1-0.9,0-1-0.9-1c-2.9,0-5.9,0.1-8.8,0c-7-0.3-14,0-21-0.1c-0.6,0-0.8-0.2-0.9-0.8c-0.3-2.3-0.6-4.6-1-6.9
		c-0.2-0.9-0.1-0.9,0.8-1.3c0.2-0.1,0.4-0.2,0.6-0.2c3.6-1.6,7.3-3.1,10.9-4.7c2.5-1.1,5-2.2,7.6-3.3c0.1,0,0.2-0.1,0.3-0.2
		c0,0,0.1-0.1,0.1-0.1c0.2,0,0.4,0,0.4-0.3c0-0.2-0.3-0.2-0.4-0.1c-0.4,0.1-0.9,0.1-1.3,0.1c-6.1,0-12.1,0-18.2,0
		c-1.2,0-1.3-0.1-1.4-1.3c-0.1-1.5-0.4-3.1-0.6-4.6c-0.1-0.9-0.1-1.7-0.4-2.6c-0.1-0.4,0.1-0.6,0.5-0.6c0.2,0,0.4,0,0.6,0
		c7.2,0,14.5,0.1,21.7,0c7.2-0.2,14.4,0,21.5-0.1c0.3,0,0.6,0,0.8,0c0.8,0,1,0.2,1,1c0,2.4,0,4.9,0,7.3c0,0.8-0.5,1.1-1.1,1.4
		c-3.7,1.5-7.4,3-11,4.5c-2.6,1.1-5.3,2.1-8,3.3c0.3,0.1,0.5,0.1,0.7,0.1c5.3,0,10.6,0,15.9,0c0.3,0,0.6,0,0.8,0
		c0.7,0.1,1,0.3,0.9,1c-0.3,3.5-0.6,7-0.9,10.5c-0.2,3.1-0.6,6.2-0.8,9.4c-0.1,2.1-0.4,4.3-0.6,6.4c-0.1,0.8-0.4,1.2-1.2,1.5
		c-5.6,1.7-11.1,3.5-16.7,5.2C50.2,75.6,49.6,75.4,49.1,75.2z"/>
	<path class="st4" d="M49.1,75.2c1.5,0.5,2.8-0.4,4.2-0.8c2.7-0.8,5.4-1.7,8.1-2.5c2.2-0.7,4.3-1.4,6.5-2c0.4-0.1,0.5-0.4,0.5-0.7
		c0.2-2.1,0.4-4.3,0.6-6.4c0.3-3.8,0.6-7.5,1-11.3c0.3-3.1,0.5-6.1,0.8-9.2c0-0.5-0.1-0.7-0.6-0.7c-5.9,0-11.7,0-17.6,0
		c-0.1,0-0.1,0-0.2,0c-0.2,0-0.4,0.1-0.4-0.1c0-0.2,0.2-0.2,0.3-0.3c1.4-0.5,2.7-1.1,4.1-1.6c4.2-1.7,8.5-3.5,12.7-5.2
		c1-0.4,1.9-0.8,2.9-1.2c0.5-0.2,0.7-0.4,0.7-0.9c0-2.5,0-5,0-7.5c0-0.5-0.2-0.7-0.7-0.7c-14.9,0-29.7,0-44.6,0
		c-0.5,0-0.7,0.1-0.6,0.7c0.4,2.4,0.7,4.8,1,7.3c0.1,0.8,0.3,1,1.1,1c6.1,0,12.3,0,18.4,0c0.7,0,1.4,0,2.1,0
		c-0.2,0.4-0.5,0.5-0.9,0.6c0.1-0.1,0.2-0.2,0.4-0.4c-0.5,0-0.9,0.1-1.3,0.1c-6.2,0-12.5,0-18.7,0c-1,0-1.2-0.1-1.3-1.1
		c-0.2-2.4-0.6-4.8-1-7.2c-0.1-0.8,0-1,0.8-1c7.3,0,14.7,0,22,0c0.9,0,0.9,0,0.9-0.9c0-2.3,0-4.5,0-6.8c0-0.6,0.2-0.8,0.8-0.8
		c9.4,0,18.8,0,28.2,0c0.7,0,0.9,0.2,0.8,0.9c-0.3,1.8-0.3,3.7-0.5,5.5c-0.2,1.3-0.2,2.6-0.3,3.9c-0.2,2-0.4,4-0.5,5.9
		c-0.1,1.4-0.2,2.8-0.3,4.1c-0.2,1.7-0.4,3.4-0.5,5.2c-0.1,1.3-0.2,2.6-0.3,3.9c-0.3,2.3-0.4,4.6-0.6,6.9c-0.3,2.4-0.3,4.7-0.6,7.1
		c-0.4,3.2-0.5,6.5-0.9,9.7c-0.2,1.3-0.4,2.6-0.3,3.9c0.1,1.3-0.3,2.6-0.3,3.9c0,0.9-0.8,0.9-1.4,1.1c-2.9,0.8-5.7,1.6-8.6,2.5
		c-3.5,1-7,2.1-10.5,3c-1.2,0.3-2.4,0.7-3.6,1c-0.4,0.1-0.6,0-0.6-0.4c0-2.5,0-5,0.1-7.5c0-0.2,0-0.3-0.2-0.4
		C49.6,75.5,49.3,75.5,49.1,75.2z"/>
	<path class="st5" d="M29.4,41.9c0,0-0.1,0.1-0.1,0.1c-1.3,0.6-1.2,0.6-1,2c0.3,2,0.6,4.1,0.9,6.1c0.1,1,0.1,1,1.1,1c10,0,20,0,30,0
		c0.6,0,0.7,0.2,0.6,0.7c-0.2,1.5-0.3,2.9-0.5,4.4c-0.2,2.2-0.5,4.3-0.6,6.5c0,0.5-0.3,0.8-0.7,0.8c-2.8,0.5-5.6,1-8.3,1.6
		c-1.2,0.3-2.4,0.3-3.6-0.2c0.4,0,0.7,0,1.1,0.1c0.5,0.2,1.1,0.2,1.6,0c0.4-0.2,0.8,0,1.1-0.2c0-0.1-0.1-0.1-0.1-0.1
		c-1-0.1-1-0.1-1-1.2c0-3.7,0-7.5,0-11.2c0-0.9,0-0.9-0.9-0.9c-6.4,0-12.7,0-19.1,0c-0.9,0-1-0.1-1.1-1.1c-0.2-1.5-0.4-3-0.6-4.4
		c-0.1-0.7-0.3-1.4-0.3-2.1C27.9,42.4,28.1,42.1,29.4,41.9z"/>
	<path class="st5" d="M47.2,64.8c-0.5-0.1-1.1-0.2-1.6-0.4C46.2,64.4,46.8,64.4,47.2,64.8z"/>
</g>
</svg>
