<?xml version="1.0" encoding="utf-8"?>
<!-- Generator: Adobe Illustrator 25.3.0, SVG Export Plug-In . SVG Version: 6.00 Build 0)  -->
<svg version="1.1" id="Calque_3" xmlns="http://www.w3.org/2000/svg" xmlns:xlink="http://www.w3.org/1999/xlink" x="0px" y="0px"
	 viewBox="0 0 200 100" style="enable-background:new 0 0 200 100;" xml:space="preserve">
<style type="text/css">
	.st0{fill:#FFFFFF;}
</style>
<g>
	<path class="st0" d="M150.6,44.5c-1.2-0.6-0.9-1.4-1.1-2.1c-0.5-2.5-2-4.1-4.5-4.9c-2.7-0.8-5.5-0.8-8.1,0.2
		c-2.2,0.8-3.6,2.9-3.5,5c0.1,2.5,1.2,3.9,3.8,4.7c2.8,0.9,5.7,1.5,8.5,2.4c4.3,1.4,6,3.5,5.7,6.8c-0.3,3.3-2.9,5.9-6.9,6.4
		c-2.4,0.3-4.8,0.3-7.2-0.3c-3.8-1.1-6-4-5.9-7.8c0-0.4-0.3-0.9,0.3-1c0.7-0.1,0.5,0.5,0.5,0.9c0.4,3.2,1.7,5.8,5.1,6.8
		c3.9,1.2,7.8,1.2,11.1-1.4c3.1-2.5,2.4-7.2-1.4-8.8c-1.9-0.8-4.1-1.2-6.1-1.8c-1.6-0.5-3.3-0.9-4.9-1.4c-2.2-0.8-3.5-2.3-3.8-4.6
		c-0.2-2.4,0.5-4.4,2.6-5.8c3.3-2.2,9.2-2.3,12.5-0.1C149.9,39.2,150.9,41.4,150.6,44.5z"/>
	<path class="st0" d="M174.9,44.7c-0.3-0.6-0.4-0.9-0.5-1.1c-1.4-6-8.9-8.8-14-5.2c-1.7,1.2-2.5,2.9-2.2,5.1
		c0.3,2.1,1.6,3.3,3.4,3.8c2.2,0.7,4.5,1.2,6.7,1.9c0.7,0.2,1.5,0.4,2.2,0.7c4.2,1.5,5.8,3.4,5.6,6.7c-0.3,3.3-2.8,5.9-6.8,6.5
		c-2.4,0.4-4.9,0.4-7.4-0.3c-3.7-1.1-6-4.1-5.8-7.8c0-0.4-0.2-0.9,0.4-0.9c0.5,0,0.4,0.5,0.4,0.8c1.4,6.9,9.5,10.1,15.4,6.1
		c1.9-1.3,2.8-3.1,2.5-5.4c-0.3-2.2-1.6-3.5-3.5-4.1c-3.3-1.1-6.6-1.9-9.9-2.9c-3.2-1-4.4-2.5-4.5-5.3c-0.1-2.7,1.2-4.9,4.1-6.1
		c3.6-1.4,7.2-1.4,10.7,0.4C174.5,38.7,175.8,41.6,174.9,44.7z"/>
	<path class="st0" d="M40.5,36.4c2,1.5,3.2,3.8,4.8,5.8c1.6,2,3.1,4,4.6,6.1c3.1-4,6.2-7.9,9.2-11.7c0.1-0.1,0.4,0,1-0.1
		c-1.7,2.2-3.2,4.2-4.7,6.2c-1.4,1.8-2.7,3.6-4.1,5.4c-0.6,0.8-0.7,1.2,0,2.1c3.2,4,6.3,8.1,9.5,12.2c-1.2,0.7-1.5-0.3-1.9-0.8
		c-3-3.8-6-7.7-9-11.6c-3.6,4.2-6.6,8.9-10.3,13c-0.2-0.2-0.4-0.3-0.6-0.5c2.7-3.4,5.3-6.9,8-10.3c2.3-2.9,2.4-2.9,0.1-5.9
		c-2.4-3.1-4.8-6.3-7.1-9.4C40.1,36.7,40.3,36.6,40.5,36.4z"/>
	<path class="st0" d="M92.8,36c0.7,2.5,0.2,4.4,0.5,6.4c2.6-4.9,6.6-7.2,10.2-6c0,0.6-0.5,0.6-0.9,0.6c-6,0.2-9.2,4.7-9.4,10.5
		c-0.1,4.7,0,9.5,0,14.2c0,0.4,0.2,1-0.5,1c-0.6,0-0.5-0.6-0.5-0.9c0-8.1,0-16.2,0-24.3C92.2,37.1,92.4,36.8,92.8,36z"/>
	<path class="st0" d="M17.1,49.9c5.3,0.1,10.6,0,16,0c4.9,0,4.9,0,3.9-4.8c-1-4.7-4.6-8.2-9-8.9c-4.7-0.7-9.1,1.3-11.5,5.5
		c-2,3.6-2.5,7.4-1.7,11.4c1.4,7.5,5.2,10.5,12.8,10c5.1-0.3,9.6-4.8,9.2-9.5c-0.3,0.1-0.5,0.1-0.6,0.2c-0.2,0.5-0.3,0.9-0.5,1.4
		c-0.8,2.9-2.5,5-5.3,6.1c-7.5,3.2-14.3-1.4-14.8-9.9C15.4,50.1,15.8,49.8,17.1,49.9z M15.6,47.2C16.1,41.5,20.6,37,25.9,37
		c5.7,0,9.9,4.2,10.3,10.3c0.1,1.2-0.1,1.6-1.4,1.6c-3.1-0.1-6.1,0-9.2,0c-2.8,0-5.7-0.1-8.5,0C15.8,48.9,15.5,48.5,15.6,47.2z"/>
	<path class="st0" d="M108.3,49.9c5,0,10.1,0,15.1,0c4.9,0,4.9,0,3.9-4.8c-1-4.9-4.8-8.5-9.5-9c-5.1-0.6-9.5,2-11.6,6.7
		c-1.5,3.4-1.8,7-1.1,10.7c1.5,8.5,7.7,11,15,9.1c4.2-1.1,7.3-5.2,6.9-9c-1,0.3-0.9,1.1-1,1.6c-0.8,2.9-2.5,5-5.3,6.1
		c-7.1,3-13.9-1.1-14.7-8.9C105.7,49.3,105.5,49.9,108.3,49.9z M105.9,47.5c0.3-5.7,5.1-10.6,10.5-10.5c5.8,0.1,10,4.6,10.2,10.6
		c0,1.2-0.4,1.2-1.3,1.2c-3,0-6,0-8.9,0c-3.1,0-6.1,0-9.2,0C106.1,48.8,105.8,48.6,105.9,47.5z"/>
	<path class="st0" d="M84.9,41.5c-2.8-5.4-9.6-7.2-14.8-4.1c-2.3,1.4-3.8,3.5-4.9,6.1c-0.4-2.5,0.2-4.8-0.4-7.1
		c-0.9,0.6-0.7,1.2-0.7,1.8c0,10.6,0,21.3,0,31.9c0,0.5-0.3,1.4,0.5,1.4c1,0,0.5-1,0.5-1.5c0-4.6,0-9.2,0-13.7c0.1,0,0.2,0,0.3-0.1
		c0.1,0.2,0.2,0.5,0.3,0.7c1.6,3.6,4.3,5.9,8.4,6.3c4.5,0.5,8.3-0.9,10.6-5C87.7,52.7,87.8,47,84.9,41.5z M83.6,57.9
		c-2.1,3.6-5.6,4.9-9.7,4.2c-4.4-0.7-7.5-3.8-8.3-8.2c-0.3-1.4-0.6-2.8-0.5-4c0-6.1,2.7-10.7,7.3-12.4c4.5-1.6,9.1-0.2,11.4,3.9
		C86.8,46.9,86.8,52.6,83.6,57.9z"/>
</g>
</svg>
