<?xml version="1.0" encoding="utf-8"?>
<!-- Generator: Adobe Illustrator 25.3.0, SVG Export Plug-In . SVG Version: 6.00 Build 0)  -->
<svg version="1.1" id="Calque_2" xmlns="http://www.w3.org/2000/svg" xmlns:xlink="http://www.w3.org/1999/xlink" x="0px" y="0px"
	 viewBox="0 0 200 100" style="enable-background:new 0 0 200 100;" xml:space="preserve">
<style type="text/css">
	.st0{fill:#FEFEFE;}
	.st1{fill:#F7AA00;}
	.st2{fill:#B9B9B9;}
	.st3{fill:#E27300;}
	.st4{fill:#747474;}
</style>
<g>
	<path class="st0" d="M85.9,19.5c0,0.1,0,0.1,0,0.2c-0.7,0.3-1.4,0.3-2.1,0.5c-5,1.3-8.7,6.1-8.8,11.3c-0.2,6.6,5.7,12.6,13,12.1
		c4.2-0.3,7.4-2.2,9.2-6c0.9-1.9,1.1-4,1-6.1c0-0.5-0.3-0.7-0.7-0.7c-3.2,0-6.4,0-9.6,0c-0.5,0-0.7,0.2-0.7,0.7c0,0.5,0,1,0,1.5
		c0,0.6,0.2,0.7,0.8,0.7c1.9,0,3.8,0,5.7,0c0.2,0,0.4,0,0.7,0c0.7,0,0.9,0.2,0.7,0.9c-0.3,1.9-1.3,3.5-2.9,4.5
		C87,42.6,79.5,40,78.3,33.3c-0.9-5,2.3-9.7,7.4-10.5c2.5-0.4,4.8,0.1,6.8,1.7c0.5,0.4,0.8,0.4,1.2-0.1c0.3-0.3,0.6-0.6,0.9-0.9
		c0.5-0.5,0.4-0.6-0.1-1.1c-1.5-1.1-3-2-4.9-2.3c-0.4-0.1-0.8-0.1-1.2-0.3c-0.1-0.1-0.1-0.1,0-0.2"/>
	<path class="st0" d="M55,19.5c0,0.4-0.4,0.3-0.6,0.4c-3.5,1-5.4,3.5-5.4,7.1c0,14.8,0,29.5,0,44.3c0,2.5,0.8,4.7,2.9,6.2
		c2.2,1.6,4.5,1.7,6.9,0.6c2.4-1.1,3.6-3.1,3.9-5.6c0.2-1.3,0.2-2.5,0.2-3.8c0-13.5,0-27.1,0-40.6c0-1.2,0-2.4-0.4-3.6
		c-0.7-2.4-2.3-3.9-4.7-4.6c-0.3-0.1-0.7,0-0.8-0.5"/>
	<path class="st1" d="M56.9,19.5c0.4,0.1,0.8,0.2,1.3,0.4c3.2,1.1,4.9,3.7,4.9,7.6c0,11.6,0,23.3,0,34.9c0,3.4,0.1,6.8-0.1,10.2
		c-0.3,3.7-3.1,6.5-6.7,6.6c-3.8,0.1-6.8-2.4-7.4-6.2c-0.1-0.7-0.1-1.3-0.1-2c0-14.6,0-29.2,0-43.8c0-3.9,2.2-6.6,6-7.5
		c0.1,0,0.1-0.1,0.2-0.1C55.6,19.5,56.3,19.5,56.9,19.5z"/>
	<path class="st2" d="M88.4,19.5c0,0,0,0.1,0,0.1c-0.8,0.4-1.7,0.4-2.5,0c0,0,0-0.1,0-0.1C86.7,19.5,87.6,19.5,88.4,19.5z"/>
	<path class="st3" d="M30.1,60.5c0-3.9-0.1-7.8,0-11.7c0.1-3.5,3.2-6.5,6.6-6.6c3.8-0.2,6.9,2.3,7.5,6c0.1,0.5,0.1,1,0.1,1.5
		c0,7.3,0,14.6,0,21.9c0,1.2-0.2,2.3-0.7,3.4c-1.2,2.9-4.1,4.5-7.3,4.1c-2.9-0.3-5.4-2.6-6.1-5.6c-0.2-0.9-0.2-1.8-0.2-2.7
		C30.1,67.3,30.1,63.9,30.1,60.5C30.1,60.5,30.1,60.5,30.1,60.5z"/>
	<path class="st4" d="M85.9,19.6c0.8,0,1.7,0,2.5,0c2.5,0.2,4.7,1.2,6.6,2.9c0.4,0.3,0.4,0.5,0,0.9c-0.6,0.5-1.1,1-1.6,1.6
		c-0.2,0.3-0.4,0.3-0.7,0C88,20.8,80.1,23,78.6,29.7c-1.3,5.5,2.9,10.7,8.5,10.7c1.5,0,3-0.3,4.3-1c2-1.1,3.2-2.7,3.5-5
		c0.1-0.5-0.1-0.5-0.5-0.5c-2.2,0-4.5,0-6.7,0c-0.5,0-0.7-0.1-0.7-0.7c0-0.7,0-1.4,0-2.1c0-0.4,0.1-0.5,0.5-0.5c3.4,0,6.9,0,10.3,0
		c0.4,0,0.5,0.3,0.5,0.6c0.6,6.1-2.5,10.8-8,12.2c-6.9,1.8-13.8-2.3-15.4-9.2c-1.5-6.2,2.5-12.6,9-14.3
		C84.6,19.8,85.2,19.6,85.9,19.6z"/>
	<path class="st3" d="M18.5,79.1c-3.9,0-7.1-3.2-7.1-7.1c0-3.9,3.2-7.1,7.1-7.1c4,0,7.2,3.2,7.2,7.1C25.7,75.9,22.5,79.1,18.5,79.1z
		"/>
	<path class="st4" d="M97.5,61.5c1.5-1.9,3.3-2.7,5.5-2.4c2.9,0.3,4.6,2.3,4.7,5.4c0.1,3,0,6,0,9c0,0.4-0.2,0.6-0.6,0.5
		c-0.7-0.1-1.6,0.3-2.1-0.1c-0.4-0.4-0.1-1.3-0.1-2c0-2.1,0-4.3,0-6.4c0-0.5,0-0.9-0.1-1.4c-0.5-2.5-3.7-3.4-5.7-1.7
		c-0.9,0.8-1.4,1.8-1.5,3c-0.2,2.6-0.1,5.2-0.1,7.8c0,0.6-0.1,0.9-0.8,0.8c-0.6-0.1-1.5,0.3-1.8-0.1c-0.4-0.4-0.1-1.2-0.1-1.8
		c0-3.9,0-7.9,0-11.8c0-0.5,0.1-0.8,0.7-0.7c0.4,0,0.8,0.1,1.2,0c0.7-0.1,0.9,0.2,0.8,0.8C97.5,60.6,97.5,60.9,97.5,61.5z"/>
	<path class="st4" d="M182,74.4c-1.9,0-3.9-1.2-5.2-3.5c-0.2-0.4-0.2-0.7,0.3-0.9c0.6-0.2,1.1-0.6,1.6-0.6c0.6,0,0.6,0.8,1,1.2
		c1.3,1.4,3.3,1.9,5,1c0.6-0.3,1.1-0.7,1.1-1.5c0-0.8-0.4-1.2-1-1.6c-1-0.5-2-0.7-3.1-0.9c-1.1-0.3-2.1-0.6-3-1.2
		c-2.2-1.5-2.3-4.4-0.2-6.1c2.8-2.2,7.6-1.6,9.5,1.2c0.6,0.8,0.6,0.8-0.4,1.2c-0.1,0-0.2,0.1-0.3,0.1c-0.7,0.4-1.3,0.5-1.9-0.3
		c-1-1.2-3-1.4-4.4-0.7c-0.6,0.3-1.1,0.7-1.1,1.4c0,0.7,0.5,1.1,1.1,1.3c1,0.5,2.1,0.6,3.2,0.9c1,0.3,2,0.6,2.9,1.2
		c2,1.4,2.2,4.2,0.5,5.9C186.2,73.9,184.6,74.4,182,74.4z"/>
	<path class="st4" d="M137.3,69.9c1.4-3.4,2.7-6.6,4-9.8c0.2-0.5,0.4-0.7,1-0.7c0.5,0,1.1,0,1.6,0c0.7-0.1,0.5,0.3,0.4,0.7
		c-1.6,3.8-3.3,7.5-4.9,11.3c-1.2,2.8-2.4,5.5-3.6,8.3c-0.2,0.4-0.4,0.6-0.9,0.6c-0.7,0-1.4,0-2,0c-0.1-0.3,0.1-0.5,0.2-0.7
		c0.9-2,1.8-4,2.8-5.9c0.2-0.4,0.2-0.7,0-1.2c-1.8-4-3.6-8.1-5.4-12.1c-0.1-0.2-0.2-0.5-0.3-0.8c0.9,0,1.8,0,2.6,0
		c0.4,0,0.4,0.3,0.5,0.6c1.2,2.9,2.4,5.8,3.6,8.8C137,69.1,137.1,69.4,137.3,69.9z"/>
	<path class="st4" d="M168.7,74.4c-4.6,0.1-8-3.8-7.4-8.7c0.4-3.3,2.2-5.5,5.4-6.5c3.3-0.9,6.4,0.4,8,3.3c0.3,0.5,0.2,0.8-0.4,0.9
		c0,0-0.1,0-0.1,0.1c-0.5,0.2-1,0.6-1.5,0.6c-0.6,0-0.6-0.8-0.9-1.2c-1.5-1.8-4.3-1.9-6.1-0.4c-2.4,2.1-2.4,6.1-0.1,8.2
		c2,1.9,5.4,1.4,6.7-1c0.3-0.5,0.5-0.6,0.9-0.3c0.4,0.2,0.8,0.4,1.2,0.5c0.5,0.2,0.6,0.4,0.3,0.8C173.7,73,171.5,74.4,168.7,74.4z"
		/>
	<path class="st4" d="M154.2,31.9c0,3.5,0,7.1,0,10.6c0,0.7-0.2,0.9-0.9,0.9c-0.6-0.1-1.1-0.1-1.7,0c-0.7,0.1-0.8-0.2-0.8-0.8
		c0-3,0-5.9,0-8.9c0-4.2,0-8.3,0-12.5c0-0.6,0.1-0.8,0.7-0.8c0.7,0.1,1.3,0,2,0c0.5,0,0.7,0.1,0.7,0.7
		C154.2,24.6,154.2,28.3,154.2,31.9z"/>
	<path class="st4" d="M147.9,66.5c0-1.5,0-2.8,0-4c0-0.4-0.1-0.6-0.5-0.5c0,0-0.1,0-0.1,0c-2.1,0-2.1,0-1.9-2.1
		c0-0.3,0.1-0.4,0.4-0.4c0.5,0,1.1,0,1.6,0c0.4,0,0.5-0.1,0.5-0.5c0-1.1,0-2.1,0-3.2c0-0.6,0.1-0.8,0.7-0.8c0.6,0.1,1.5-0.3,1.9,0.2
		c0.4,0.4,0.1,1.2,0.1,1.9c0,0.6,0,1.3,0,1.9c0,0.4,0.1,0.5,0.5,0.5c0.8,0,1.7,0,2.5,0c0.4,0,0.5,0.1,0.6,0.5c0.1,2,0.1,2-1.9,2
		c-1.7,0-1.7,0-1.7,1.6c0,1.9,0,3.9,0,5.8c0,1.8,0.9,2.5,2.6,2.1c0.4-0.1,0.5,0,0.6,0.3c0.2,0.5,0.3,1,0.5,1.5
		c0.2,0.4,0.1,0.6-0.3,0.7c-1,0.2-1.9,0.3-2.9,0.1c-1.7-0.2-3-1.6-3.2-3.2C147.8,69.3,147.9,67.8,147.9,66.5z"/>
	<path class="st4" d="M128.5,63.3c0,3.3,0,6.6,0,9.9c0,0.6-0.1,0.8-0.7,0.7c-0.7-0.1-1.5,0.3-1.9-0.2c-0.4-0.4-0.1-1.2-0.1-1.9
		c0-6.1,0-12.2,0-18.4c0-0.6,0.2-0.8,0.8-0.8c0.6,0.1,1.5-0.3,1.8,0.2c0.3,0.4,0.1,1.2,0.1,1.8C128.5,57.6,128.5,60.5,128.5,63.3z"
		/>
	<path class="st4" d="M159.5,66.7c0,2.2,0,4.3,0,6.5c0,0.5-0.1,0.7-0.6,0.7c-0.7-0.1-1.5,0.2-1.9-0.1c-0.4-0.3-0.1-1.2-0.1-1.9
		c0-3.9,0-7.8,0-11.7c0-0.7,0.2-0.9,0.8-0.8c0.4,0,0.9,0,1.3,0c0.5,0,0.6,0.2,0.6,0.6C159.5,62.3,159.5,64.5,159.5,66.7z"/>
	<path class="st4" d="M158.2,56.4c-1.1,0-1.9-0.8-1.9-1.9c0-1,0.8-1.9,1.9-1.9c1.1,0,1.9,0.8,1.9,1.9
		C160.1,55.5,159.2,56.4,158.2,56.4z"/>
	<path class="st4" d="M148.7,28.7c-0.4-0.4-1.2-0.1-1.9-0.1c-1.2,0-1.2,0-1.3,1.1c0,0-0.1,0.1-0.1,0.1c-1.1-1.1-2.4-1.7-3.9-1.7
		c-5.5-0.1-9.3,6-7,11.1c1.5,3.2,4.9,5.1,8.1,4.4c1.1-0.2,2-0.8,2.9-1.7c0,0.8,0,1.4-0.1,2c-0.2,1.6-0.9,2.9-2.5,3.5
		c-1.7,0.6-3.3,0.3-4.6-1c-0.4-0.4-0.5-1.3-1.2-1.3c-0.6,0-1.2,0.4-1.8,0.7c-0.1,0.1-0.3,0.1-0.4,0.2c-0.6,0.1-0.5,0.4-0.3,0.9
		c1.7,3.2,5.4,4.7,9,3.6c2.3-0.7,3.8-2.1,4.6-4.4c0.4-1.2,0.5-2.5,0.5-3.8c0-3.9,0-7.8,0-11.7C148.8,30,149.1,29.2,148.7,28.7z
		 M145.7,36c0,1.4-0.4,2.7-1.5,3.6c-1.8,1.7-4.6,1.3-6.1-0.7c-1.5-2-1.2-5.1,0.8-6.7c1.2-1,2.7-1.3,4.2-0.7c1.7,0.7,2.4,2.1,2.6,3.9
		C145.8,35.6,145.7,35.8,145.7,36z"/>
	<path class="st4" d="M93.3,73.4C91,67.2,88.7,61.1,86.4,55c-0.3-0.7-0.4-1.6-0.9-2.1c-0.6-0.4-1.5-0.1-2.3-0.2
		c-0.6-0.1-0.8,0.2-1,0.7c-1.9,5.1-3.9,10.3-5.8,15.4c-0.6,1.6-1.2,3.2-1.9,4.9c0.9,0,1.7,0,2.4,0c0.5,0,0.6-0.2,0.8-0.6
		c0.5-1.5,1.1-3,1.6-4.6c0.2-0.5,0.4-0.6,0.9-0.6c2.5,0,5.1,0,7.6,0c0.5,0,0.7,0.1,0.8,0.6c0.5,1.6,1.1,3.1,1.6,4.6
		c0.1,0.3,0.2,0.5,0.6,0.5c0.8,0,1.7,0,2.6,0C93.4,73.6,93.4,73.5,93.3,73.4z M82.3,65.6c-0.6,0-1.4,0.3-1.7-0.1
		c-0.2-0.3,0.3-1,0.5-1.5c0.8-2.4,1.7-4.7,2.6-7.1c0.1-0.2,0.1-0.5,0.4-0.7c1.1,3.1,2.3,6.2,3.5,9.5C85.7,65.6,84,65.7,82.3,65.6z"
		/>
	<path class="st4" d="M107.7,28.2c-4.4,0-7.9,3.4-7.9,7.8c0,4.4,3.5,7.8,7.9,7.8c4.4,0,7.9-3.5,7.9-7.9
		C115.5,31.6,112.1,28.2,107.7,28.2z M109.7,40.2c-1.5,0.8-3,0.7-4.4-0.3c-2-1.3-2.6-4.4-1.3-6.6c1.2-2,3.7-2.7,5.7-1.7
		c1.7,0.9,2.4,2.4,2.4,4.2C112.1,37.8,111.3,39.3,109.7,40.2z"/>
	<path class="st4" d="M124.7,28.2c-4.4,0-7.9,3.4-7.9,7.8c0,4.4,3.5,7.8,7.9,7.8c4.4,0,7.9-3.4,7.9-7.8
		C132.5,31.6,129.1,28.2,124.7,28.2z M126.7,40.2c-1.5,0.8-3,0.7-4.5-0.3c-1.8-1.2-2.5-3.9-1.5-6.1c0.9-2,3-3,5.1-2.5
		c2,0.5,3.3,2.4,3.3,5.3C129,37.9,128.3,39.3,126.7,40.2z"/>
	<path class="st4" d="M169.6,40.1c-0.5-0.3-1.1-0.7-1.6-1.1c-0.5-0.4-0.7-0.4-1.2,0.1c-1.9,2.2-5.3,2.1-6.9-0.2
		c-0.3-0.4-0.3-0.6,0.2-0.8c2.8-1.1,5.5-2.3,8.3-3.4c1.7-0.7,1.7-0.7,0.9-2.4c-1.3-2.4-3.2-4-6-4.1c-4.4-0.2-7.7,3.2-7.7,7.8
		c0,0.4,0.1,0.9,0.1,1.4c0.5,3,2.7,5.4,5.8,6.2c3,0.7,6.4-0.5,8.1-2.8C169.9,40.4,169.9,40.3,169.6,40.1z M159.1,35.6
		c-0.2-2.9,2.7-5.2,5.3-4.2c0.2,0.1,0.3,0.1,0.5,0.2c0.5,0.3,1.1,0.6,1,1.1c0,0.4-0.7,0.4-1.1,0.6c-1.9,0.8-3.7,1.5-5.6,2.3
		C159.3,35.7,159.2,35.6,159.1,35.6z"/>
	<path class="st4" d="M122.8,65c0-1.6-0.4-3-1.5-4.2c-2.3-2.4-7.3-2.5-9.8-0.2c-1.2,1.1-1.2,1.1,0.2,1.9c0.1,0,0.1,0.1,0.2,0.1
		c0.6,0.6,1.2,0.7,1.7-0.2c0.1-0.2,0.3-0.3,0.4-0.4c1.4-0.9,2.9-1.1,4.3-0.3c1.3,0.7,2,1.8,1.8,3.5c-0.3-0.1-0.4-0.2-0.6-0.3
		c-2.4-0.8-4.9-0.9-7.2,0.3c-2.8,1.5-3.2,5.1-1,7.3c1.9,1.9,6,2.5,8.3-0.2c0.1-0.2,0.2-0.4,0.5-0.5c0.2,0.6-0.3,1.5,0.2,1.8
		c0.5,0.3,1.2,0,1.9,0.1c0.5,0,0.6-0.2,0.6-0.6C122.8,70.6,122.8,67.8,122.8,65z M120.2,68.3c-0.4,2.4-3.1,4.2-5.4,3.5
		c-1-0.3-1.8-0.9-1.9-2c-0.2-1,0.3-1.9,1.3-2.5c0.8-0.5,1.6-0.6,2.6-0.6c1,0.1,2,0.2,3,0.7C120.1,67.6,120.2,67.9,120.2,68.3z"/>
</g>
</svg>
