<?xml version="1.0" encoding="utf-8"?>
<!-- Generator: Adobe Illustrator 25.3.0, SVG Export Plug-In . SVG Version: 6.00 Build 0)  -->
<svg version="1.1" id="Calque_3" xmlns="http://www.w3.org/2000/svg" xmlns:xlink="http://www.w3.org/1999/xlink" x="0px" y="0px"
	 viewBox="0 0 100 100" style="enable-background:new 0 0 100 100;" xml:space="preserve">
<style type="text/css">
	.st0{fill:#212121;}
</style>
<g>
	<path class="st0" d="M58.1,70.6c2.3-0.4,4.4-0.7,6.5-1.4c7.5-2.3,11.5-7.4,12.7-15c0.5-3,0.6-6.1,0.1-9.2c-0.5-2.8-1.7-5.3-3.4-7.5
		c-0.4-0.6-0.6-1-0.4-1.7c1-3.4,0.7-6.7-0.4-10c-0.3-0.8-0.7-1-1.5-1c-2.3,0.2-4.5,1-6.5,2.1c-1.4,0.8-2.7,2.1-4.3,2.4
		c-1.5,0.3-3.2-0.6-4.8-0.8c-5.3-0.7-10.5-0.6-15.7,0.7c-0.9,0.2-1.5,0.1-2.3-0.4c-2.6-1.8-5.4-3.3-8.6-3.9
		c-2.1-0.4-2.3-0.3-2.9,1.7c-0.8,3.1-1,6.1-0.1,9.2c0.2,0.5,0.2,0.9-0.2,1.4c-3.9,4.6-4.4,10.1-3.7,15.8c0.2,1.7,0.5,3.3,1.1,4.9
		c2.3,6.9,7.5,10.4,14.4,11.9c1.2,0.3,2.5,0.4,3.9,0.7c-1.4,1.6-2.2,3.4-2.5,5.4c-0.1,0.5-0.4,0.6-0.8,0.8c-4.7,2-9,0.6-11.6-3.7
		c-1.4-2.3-3.1-4.1-5.8-4.7c-1-0.2-2.4-0.6-2.9,0.5c-0.4,1,0.8,1.6,1.6,2.1c2.2,1.5,3.6,3.5,4.5,5.9c1.8,5.2,6.7,7.5,12,6.9
		c0.9-0.1,1.8-0.3,2.8-0.4c0,2.6,0.1,5.2,0,7.7c-0.1,1.7-1.5,2.4-3.4,1.8c-2.7-0.9-5.3-2.1-7.7-3.6C13.3,79.6,6.2,65.8,7,47.9
		C7.9,29.4,21,13.1,38.9,8.1c19.1-5.3,39.2,3.4,49,21.2c12.6,22.7,2.9,51.9-20.7,62.4c-1,0.4-1.9,0.8-2.9,1.2
		c-2.2,0.8-3.5-0.2-3.5-2.5c0-3.6,0-7.1,0-10.7C61,76.4,60.5,73.2,58.1,70.6z"/>
</g>
</svg>
