<?xml version="1.0" encoding="utf-8"?>
<!-- Generator: Adobe Illustrator 25.3.0, SVG Export Plug-In . SVG Version: 6.00 Build 0)  -->
<svg version="1.1" id="Calque_3" xmlns="http://www.w3.org/2000/svg" xmlns:xlink="http://www.w3.org/1999/xlink" x="0px" y="0px"
	 viewBox="0 0 100 100" style="enable-background:new 0 0 100 100;" xml:space="preserve">
<style type="text/css">
	.st0{fill:#FEFEFE;}
	.st1{fill:#E34D26;}
	.st2{fill:#F06529;}
	.st3{fill:#EAEAEA;}
</style>
<g>
	<path class="st0" d="M12,7c0.3,0.3,0.3,0.7,0.3,1.1c0.3,3.3,0.6,6.6,0.9,9.8c0.2,2.2,0.3,4.5,0.6,6.7c0.3,3.3,0.6,6.6,0.9,9.9
		c0.3,3.3,0.6,6.7,0.9,10c0.3,3,0.5,6,0.8,9c0.3,2.3,0.4,4.6,0.6,6.9c0.3,2.7,0.5,5.4,0.7,8.1c0.3,2.8,0.5,5.7,0.7,8.5
		c0.2,2.2,0.4,4.4,0.6,6.7c0,0.5,0.3,0.7,0.7,0.8c4.1,1.1,8.2,2.3,12.2,3.4c4,1.1,8.1,2.2,12.1,3.4c1.7,0.5,3.5,0.9,5.2,1.5
		c0.4,0.1,0.8,0.1,1.2,0c4.6-1.3,9.2-2.5,13.8-3.8c4.8-1.4,9.7-2.7,14.5-4c0.5-0.1,0.9-0.2,1.4-0.4c0.4-0.1,0.6-0.3,0.6-0.7
		c0.2-1.7,0.3-3.5,0.5-5.2c0.2-1.7,0.2-3.3,0.4-5c0.3-2.4,0.4-4.8,0.6-7.1c0.3-2.8,0.5-5.6,0.8-8.5c0.3-3.3,0.6-6.6,0.9-10
		c0.1-2.1,0.4-4.2,0.6-6.3c0.2-2.3,0.5-4.6,0.6-6.9c0.1-1.6,0.3-3.2,0.4-4.8c0.2-2.3,0.4-4.5,0.6-6.8c0.3-2.8,0.5-5.5,0.7-8.3
		c0.2-2.3,0.4-4.6,0.6-6.9c0-0.4,0-0.8,0.3-1.1"/>
	<path class="st1" d="M88,7c-0.6,6.4-1.1,12.8-1.7,19.2c-0.6,7.2-1.3,14.4-1.9,21.5c-0.5,5.9-1,11.8-1.6,17.8
		c-0.5,6.2-1.1,12.3-1.7,18.5c0,0.5-0.3,0.5-0.6,0.6c-3.7,1-7.3,2-11,3c-6.4,1.8-12.7,3.5-19.1,5.3c-0.3,0.1-0.6,0.1-0.9,0
		c-8.9-2.5-17.7-4.9-26.6-7.4c-1.2-0.3-2.3-0.6-3.5-0.9c-0.4-0.1-0.6-0.3-0.6-0.8c-0.5-6-1.1-12.1-1.6-18.1c-0.4-4.7-0.8-9.3-1.2-14
		c-0.5-5.4-1-10.8-1.5-16.2c-0.4-4.1-0.7-8.2-1.1-12.4c-0.4-4.7-0.8-9.4-1.3-14.1C12.1,8.4,12,7.7,12,7C37.3,7,62.7,7,88,7z"/>
	<path class="st2" d="M26.2,22.8c0.2-0.2,0.5-0.1,0.8-0.1c7.4,0,14.8,0,22.3,0c0.6,0,0.8-0.1,0.8-0.8c0-2.5,0-5.1,0-7.6c0-1,0-1,1-1
		c8.6,0,17.3,0,25.9,0c1.1,0,2.2,0,3.3,0c0.6,0,0.8,0.2,0.8,0.8c-0.1,1.3-0.2,2.6-0.4,3.9c-0.1,0.7-0.1,1.4-0.2,2
		c-0.1,1.8-0.3,3.6-0.5,5.4c-0.2,1.3-0.2,2.6-0.3,3.9c-0.2,1.7-0.4,3.5-0.5,5.2c-0.1,1.2-0.1,2.5-0.3,3.7c-0.3,2.7-0.4,5.4-0.8,8.1
		c-0.2,1.3-0.2,2.5-0.3,3.8c-0.2,1.8-0.3,3.6-0.5,5.4c-0.1,1.2-0.2,2.4-0.3,3.6c-0.2,1.8-0.4,3.7-0.5,5.5c-0.1,1.7-0.4,3.4-0.5,5.1
		c-0.1,1.7-0.2,3.3-0.5,5c-0.2,1.4-0.3,2.8-0.3,4.1c0,0.6-0.3,0.9-0.8,1c-3.6,1-7.1,2-10.7,2.9c-2.7,0.7-5.3,1.4-8,2.2
		c-1.7,0.5-3.4,0.9-5.1,1.4c-0.6,0.2-0.7,0-0.7-0.5c0-2.8,0-5.6,0-8.4c0-0.4,0-0.7-0.4-0.8c0.5-0.3,1.2-0.2,1.8-0.5
		c5.7-1.6,11.4-3.2,17.1-4.7c0.6-0.2,0.8-0.5,0.9-1.1c0.2-2.6,0.5-5.3,0.7-7.9c0.2-2.9,0.5-5.7,0.7-8.6c0.1-2.1,0.4-4.2,0.6-6.3
		c0.1-0.9,0.1-1.9,0.3-2.8c0.1-0.5,0.1-1,0.2-1.5c0.1-0.6-0.1-0.8-0.7-0.9c-0.2,0-0.4,0-0.5,0c-6.6,0-13.3,0-19.9,0
		c-4,0-8.1,0-12.1,0c-0.4,0-0.8,0.2-1-0.3c0.3-0.3,0.7-0.2,1.1-0.2c3.4,0,6.8,0,10.1,0c1.1,0,1.1,0,1.1-1.1c0-2.3,0-4.7,0-7
		c0-0.8-0.1-0.9-0.9-0.9c-3.7,0-7.4,0-11.1,0c-0.5,0-0.8,0.1-1.1,0.5c-0.3-0.1-0.3-0.3-0.3-0.6c0-0.3,0.2-0.4,0.5-0.4
		c0.4-0.1,0.7,0,1.1,0c11.2,0,22.4,0,33.7,0c0.3,0,0.7,0.1,1-0.1c0.2-0.2,0.2-0.4,0.2-0.7c0.3-2.5,0.4-5,0.7-7.4
		c0.1-0.8,0-0.9-0.8-0.9c-7.7,0-15.5,0-23.2,0c-7.5,0-14.9,0-22.4,0C26.8,23,26.5,23,26.2,22.8z"/>
	<path class="st3" d="M26.2,22.8c15.5,0,31,0,46.5,0c1.2,0,1.2,0,1,1.2c-0.2-0.9-0.9-0.9-1.6-0.9c-6.9,0-13.7,0-20.6,0
		c-0.2,0-0.4,0-0.6,0c-0.4,0-0.6,0.2-0.6,0.6c0,2.5,0,5,0,7.6c0,0.5,0.2,0.7,0.7,0.7c0.2,0,0.5,0,0.7,0c6.7,0,13.4,0,20.1,0
		c0.4,0,0.8-0.1,1.2,0.2c-0.2,0.2-0.5,0.1-0.8,0.1c-11.6,0-23.2,0-34.8,0c-0.8,0-0.8,0-0.6,0.8c0.4,0.6,0.3,1.3,0.3,1.9
		c0.1,1.8,0.4,3.6,0.5,5.4c0.1,0.4,0.1,0.9,0,1.3c0,0,0,0.1,0,0.1c0.2,0.2,0.5,0.1,0.8,0.1c11,0,21.9,0,32.9,0c0.9,0,0.9,0,0.8,0.9
		c-0.1,0.6-0.1,1.2-0.2,1.8c-0.4-0.4-0.2-0.9-0.2-1.3c0.1-0.8,0.3-1-1-1c-4.6,0-9.2,0-13.7,0c-1.9,0-3.9,0-5.8,0
		c-0.8,0-0.8,0.1-0.8,0.8c0,2.4,0,4.8,0,7.2c0,0.8,0.1,0.9,0.9,0.9c3.1,0,6.1,0,9.2,0c0.3,0,0.5,0,0.8,0c0.3,0,0.7,0.1,0.8,0.5
		c0.2,0.5,0,1.2-0.3,1.5c-0.2-0.3-0.2-0.6-0.2-0.9c0-0.3-0.2-0.5-0.5-0.5c-0.1,0-0.3,0-0.4,0c-6.6,0.1-13.2-0.2-19.8-0.2
		c-3.8,0-7.5,0-11.3,0c-0.5,0-0.8-0.1-0.8-0.6c-0.2-2.3-0.4-4.5-0.6-6.8c-0.2-2.7-0.5-5.4-0.7-8c-0.4-4.2-0.7-8.5-1.1-12.7
		C26.2,23.3,26.1,23,26.2,22.8z"/>
	<path class="st3" d="M51.4,76.2c-0.6,0.3-1.1,0.4-1.8,0.4c-2.3-0.7-4.7-1.3-7-2c-3.9-1.1-7.8-2.2-11.6-3.2
		c-0.4-0.1-0.5-0.3-0.5-0.6c-0.4-4.3-0.8-8.5-1.1-12.8c0-0.1,0-0.2,0-0.3c-0.1-1.4-0.1-1.4,1.3-1.4c2.5,0,5,0,7.6,0
		c0.4,0,0.6,0.1,0.6,0.6c0.2,2.2,0.4,4.4,0.6,6.5c0,0.3,0.1,0.5,0.5,0.6c3.3,0.9,6.5,1.8,9.8,2.6c0.1,0,0.3,0,0.4,0
		c0.2-0.1,0.4-0.2,0.6,0c-0.4,0.5-0.4,1-0.4,1.6c0,2.3,0,4.6,0,6.9c0,0.9,0,0.9,0.9,0.9C51.2,76.1,51.3,76.1,51.4,76.2z"/>
	<path class="st2" d="M50.5,66.6c-0.2,0-0.3,0-0.5,0c0-4.7,0-9.4,0-14.1c0-0.6-0.1-0.8-0.8-0.8c-6.6,0-13.2,0-19.8,0
		c-0.5,0-0.9,0-0.8-0.7c0,0.5,0.3,0.5,0.7,0.5c2.9,0,5.9,0,8.8,0c7.5,0,15,0,22.5,0c0.9,0,0.9,0,0.9,1c0,0.2,0,0.4,0,0.7
		c0.2,1,0,2.1-0.1,3.1c-0.2,2.3-0.4,4.5-0.6,6.8c-0.1,0.7-0.2,0.9-0.9,1.1c-2.8,0.8-5.7,1.5-8.6,2.3C51.1,66.6,50.8,66.7,50.5,66.6z
		"/>
	<path class="st0" d="M50.5,66.6c3.1-0.9,6.3-1.7,9.4-2.6c0.5-0.1,0.6-0.3,0.7-0.8c0.3-3.3,0.6-6.5,0.8-9.8c0-0.1,0-0.1,0.1-0.2
		c0.3-0.5,0.2-1,0.1-1.5c0-0.3-0.4-0.2-0.6-0.2c-3.4,0-6.8,0-10.2,0c-0.9,0-0.9,0-0.9-0.9c0-2.6,0-5.2,0-7.8c0-0.5,0.1-0.7,0.7-0.7
		c6.9,0,13.7,0,20.6,0c0.7,0,0.8,0.1,0.6,0.8c-0.1,0.6-0.1,1.2-0.1,1.8c-0.2,2.8-0.5,5.5-0.7,8.3c-0.3,3.4-0.6,6.8-0.9,10.2
		c-0.2,2.5-0.5,5.1-0.7,7.6c0,0.5-0.3,0.5-0.7,0.6c-3.4,0.9-6.8,1.9-10.2,2.8c-2.3,0.6-4.6,1.3-7,1.9c-0.1,0-0.3,0-0.4,0.1
		c-0.1,0-0.1,0-0.2,0c-1.2,0.2-1.2,0.2-1.2-1c0-2.5,0-5.1,0-7.6C50,67.1,50,66.7,50.5,66.6z"/>
	<path class="st0" d="M72.9,32.2c-7.3,0-14.7,0-22,0c-0.9,0-0.9,0-0.9-0.9c0-2.6,0-5.1,0-7.7c0-0.6,0.2-0.7,0.7-0.7
		c7.3,0,14.5,0,21.8,0c1.1,0,1.1,0,1.2,1.1c-0.2,2.7-0.5,5.3-0.7,8C73,32.1,72.9,32.1,72.9,32.2z"/>
	<path class="st1" d="M37.4,40.6c-0.2-1.6-0.3-3.2-0.5-4.8c-0.1-0.9-0.1-1.8-0.2-2.6c-0.1-0.5,0.2-0.7,0.7-0.7c4,0,7.9,0,11.9,0
		c0.5,0,0.7,0.1,0.7,0.7c0,2.7,0,5.4,0,8c0,0.6-0.2,0.7-0.8,0.7c-3.9,0-7.8,0-11.8,0c0,0,0,0,0,0C37.3,41.5,37.6,41,37.4,40.6z"/>
	<path class="st2" d="M37.4,40.6c0.3,0.4,0.1,0.9,0.1,1.3C37.3,41.5,37.4,41,37.4,40.6z"/>
</g>
</svg>
