<?xml version="1.0" encoding="utf-8"?>
<!-- Generator: Adobe Illustrator 25.3.0, SVG Export Plug-In . SVG Version: 6.00 Build 0)  -->
<svg version="1.1" xmlns="http://www.w3.org/2000/svg" xmlns:xlink="http://www.w3.org/1999/xlink" x="0px" y="0px"
	 viewBox="0 0 100 100" style="enable-background:new 0 0 100 100;" xml:space="preserve">
<style type="text/css">
	.st0{fill:#0785F2;}
</style>
<g id="Calque_1">
	<path class="st0" d="M50,7.2C26.2,7.3,7.3,26.6,7.2,49.9c0,23.4,18.9,42.9,42.8,42.9c23.9,0,42.8-19.4,42.8-42.7
		C92.8,26.6,73.9,7.3,50,7.2z M35.8,73.2c0,0.2,0,0.4,0,0.6c0,0.3-0.2,0.5-0.5,0.5c-0.1,0-0.2,0-0.4,0c-3.1,0-6.1,0-9.2,0
		c-0.8,0-0.9-0.1-0.9-0.9c0-8.1,0-16.2,0-24.2c0-2.3,0-4.6,0-6.9c0-0.7,0.1-0.8,0.8-0.8c3,0,6.1,0,9.1,0c0.2,0,0.4,0,0.5,0
		c0.3,0,0.4,0.2,0.5,0.5c0,0.2,0,0.4,0,0.6c0,5.1,0,10.3,0,15.4c0,0,0,0,0,0C35.8,63,35.8,68.1,35.8,73.2z M36.5,32.1
		c-0.4,3-2.6,4.5-5,4.9c-1.5,0.2-3,0.1-4.3-0.6c-3.8-2-3.7-6.8-1.3-9c0.9-0.8,2-1.3,3.2-1.5c0.4-0.1,0.9-0.1,1.3-0.1
		c1.5,0,2.8,0.4,4,1.3C36.1,28.2,36.7,30,36.5,32.1z M75.2,73.8c0,0.3-0.2,0.5-0.5,0.5c-0.1,0-0.2,0-0.4,0c-3,0-6.1,0-9.1,0
		c-0.8,0-0.9-0.1-0.9-1c0-5.5,0-11.1,0-16.6c0-1.1-0.1-2.3-0.4-3.4c-0.6-2-1.8-3.4-3.9-3.9c-1.7-0.4-3.3,0-4.7,1
		c-1.5,1.1-2.2,2.6-2.5,4.4c-0.1,0.5-0.1,0.9-0.1,1.4c0,5.5,0,11,0,16.5c0,0.4,0,0.7,0,1.1c0,0.4-0.1,0.5-0.5,0.6
		c-0.1,0-0.2,0-0.4,0c-3,0-6.1,0-9.1,0c-0.9,0-1-0.1-0.9-0.9c0.1-7.4,0.1-14.8,0.1-22.2c0-2.9,0-5.9-0.1-8.8c0-0.8,0.1-0.9,0.9-0.9
		c3.1,0,6.1,0,9.2,0c0.1,0,0.1,0,0.2,0c0.5,0,0.6,0.2,0.7,0.7c0,1.1,0,2.2,0,3.3c0,0.1,0,0.3,0,0.5c0.3-0.2,0.4-0.4,0.5-0.6
		c0.9-1.2,1.9-2.3,3.2-3.1c1.3-0.8,2.7-1.3,4.3-1.5c2.2-0.2,4.4,0,6.5,0.7c3.1,1.1,5.2,3.2,6.5,6.2c0.6,1.4,1,2.9,1.2,4.4
		c0.2,1.5,0.2,3,0.2,4.4c0,5.6,0,11.2,0,16.8C75.2,73.5,75.2,73.7,75.2,73.8z"/>
</g>
<g id="Calque_2">
</g>
</svg>
