<?xml version="1.0" encoding="utf-8"?>
<!-- Generator: Adobe Illustrator 25.3.0, SVG Export Plug-In . SVG Version: 6.00 Build 0)  -->
<svg version="1.1" id="Calque_2" xmlns="http://www.w3.org/2000/svg" xmlns:xlink="http://www.w3.org/1999/xlink" x="0px" y="0px"
	 viewBox="0 0 100 100" style="enable-background:new 0 0 100 100;" xml:space="preserve">
<style type="text/css">
	.st0{fill:#E8C932;}
	.st1{fill:#FEDD25;}
	.st2{fill:#FEFEFE;}
	.st3{fill:#E3C00C;}
	.st4{fill:#E4C00E;}
</style>
<g>
	<path class="st0" d="M50,6.6c12.2,0,24.4,0,36.6,0c1,0,1.2,0.3,1.1,1.2c-0.7,7-1.2,14-1.8,21c-0.7,8.5-1.5,17.1-2.2,25.6
		C83.1,60.6,82.5,66.8,82,73c-0.3,3.2-0.6,6.5-0.8,9.7c0,0.6-0.3,0.8-0.8,0.9c-7.9,2.2-15.8,4.4-23.6,6.6c-1.6,0.4-3.2,0.8-4.7,1.3
		c-1.4,0.5-2.8,0.4-4.2,0c-9.2-2.6-18.5-5.2-27.7-7.7c-1.1-0.3-1.4-0.8-1.5-1.9c-0.6-7.1-1.2-14.1-1.8-21.2
		c-0.5-6.2-1-12.4-1.6-18.5c-0.6-7-1.2-14-1.8-21c-0.4-4.6-0.7-9.2-1.2-13.8c-0.1-0.9,0.2-1,1-1C25.4,6.6,37.7,6.6,50,6.6z"/>
	<path class="st1" d="M49.9,49.2c0-11.6,0-23.2,0-34.8c0-1,0.2-1.3,1.2-1.3c9.4,0,18.7,0,28.1,0c0.7,0,1.1,0,1,1
		c-0.4,3.9-0.7,7.9-1.1,11.8c-0.3,2.8-0.4,5.6-0.7,8.4c-0.2,2.8-0.6,5.5-0.8,8.3c-0.2,2-0.3,4-0.5,6c-0.3,2.8-0.6,5.6-0.8,8.4
		C76.1,59,76,61,75.9,62.9c-0.3,2.9-0.5,5.7-0.8,8.6c-0.2,1.9-0.4,3.7-0.4,5.6c-0.1,1.7,0,1.7-1.7,2.2c-7.3,2-14.6,3.9-21.9,5.9
		c-1,0.3-1.2,0-1.2-0.9C49.9,72.5,49.9,60.9,49.9,49.2z"/>
	<path class="st2" d="M38.7,22.3c2.4,0,4.8,0,7.2,0c0.8,0,1.1,0.2,1.1,1.1c0,8.3,0,16.7,0,25c0,8.5,0,16.9,0,25.4
		c0,0.4-0.1,0.8,0.1,1.2c0.2,0.1,0.2,0.2,0,0.3c-0.3,0.3-0.5,0.1-0.8,0c-7-1.9-14.1-3.8-21.1-5.7c-0.9-0.2-1.1-0.6-1.1-1.5
		c0.1-2.2,0-4.4,0-6.6c0-0.8,0.1-1,0.9-0.7c4.1,1.2,8.2,2.2,12.3,3.4c0.1,0,0.3,0,0.4,0.1c0.5,0,0.8-0.2,0.7-0.8c0-0.2,0-0.5,0-0.7
		c0-13.1,0-26.1,0-39.2C38.5,23.1,38.3,22.7,38.7,22.3z"/>
	<path class="st3" d="M47.1,75.3c0-0.1,0-0.2,0-0.3c0-0.5,0.1-0.9,0.1-1.4c0-16.6,0-33.2,0-49.9c0-0.4,0-0.8,0-1.3
		c0.3,0.5,0.2,0.8,0.2,1.2c0,16.9,0,33.9,0,50.8c0,0.3,0,0.6-0.1,0.9C47.3,75.3,47.2,75.3,47.1,75.3C47.1,75.3,47.1,75.3,47.1,75.3z
		"/>
	<path class="st4" d="M38.7,22.3c0,1.8,0,3.5,0,5.3c0,11.9,0,23.9,0,35.8c0,0.7,0.1,1.3-0.9,0.8c0.8-0.2,0.6-0.8,0.6-1.4
		c0-13.1,0-26.2,0-39.3C38.4,23.2,38.2,22.6,38.7,22.3z"/>
	<path class="st2" d="M52.9,38.5c0-5.1,0-10.1,0-15.2c0-0.7,0.2-1,0.9-1c7.3,0,14.5,0,21.8,0c0.7,0,1,0.2,0.9,0.9
		c-0.2,2.3-0.5,4.5-0.6,6.8c-0.1,0.8-0.5,0.6-1,0.6c-4.1,0-8.3,0-12.4,0c-1.1,0-1.3,0.3-1.3,1.3c0.1,4.1,0.1,8.2,0,12.2
		c0,0.8,0.2,1,1,0.9c3.9-0.6,7.8-1.2,11.8-1.8c0.7-0.1,1,0,0.9,0.8c-0.5,4.8-0.9,9.7-1.4,14.5c-0.3,3.5-0.7,7-1,10.6
		c-0.1,0.8-0.3,1.1-1,1.3c-5.9,1.6-11.7,3.2-17.6,4.9c-0.7,0.2-1.1,0.2-1-0.7c0.1-2.3,0.1-4.5,0-6.8c0-0.8,0.3-1,1-1.2
		c3.5-0.9,7-1.9,10.4-2.9c0.6-0.2,1-0.4,1.1-1.1c0.3-3,0.6-6,1-9c0.1-0.7-0.1-0.9-0.8-0.8c-3.8,0.6-7.6,1.2-11.4,1.8
		c-1.1,0.2-1.2-0.1-1.2-1.1C52.9,48.5,52.9,43.5,52.9,38.5z"/>
</g>
</svg>
