<?xml version="1.0" encoding="utf-8"?>
<!-- Generator: Adobe Illustrator 25.3.0, SVG Export Plug-In . SVG Version: 6.00 Build 0)  -->
<svg version="1.1" id="Calque_3" xmlns="http://www.w3.org/2000/svg" xmlns:xlink="http://www.w3.org/1999/xlink" x="0px" y="0px"
	 viewBox="0 0 100 100" style="enable-background:new 0 0 100 100;" xml:space="preserve">
<style type="text/css">
	.st0{fill:#231F20;}
	.st1{fill:#F6C056;}
	.st2{fill:#38312B;}
	.st3{fill:#39322B;}
	.st4{fill:#3A332E;}
	.st5{fill:#4F4843;}
	.st6{fill:#FEFEFE;}
	.st7{fill:#FEFDFD;}
	.st8{fill:#242021;}
	.st9{fill:#FDFDFD;}
	.st10{fill:#C6C7C9;}
	.st11{fill:#F2BD55;}
	.st12{fill:#E6E6E6;}
	.st13{fill:#574E44;}
	.st14{fill:#C5C3C3;}
	.st15{fill:#5D503E;}
	.st16{fill:#362F2B;}
	.st17{fill:#58482E;}
	.st18{fill:#5C5143;}
	.st19{fill:#D8D7D7;}
	.st20{fill:#9B999A;}
	.st21{fill:#8D8B8B;}
	.st22{fill:#3D352D;}
	.st23{fill:#2A2422;}
</style>
<g>
	<path class="st0" d="M28.6,67.8c-0.1-2.9-0.1-5.7,0.3-8.5c0.6-4.5,2.2-8.6,4.3-12.5c2.9-5.3,5.7-10.7,8.8-16
		c0.4-0.7,0.3-1.6,0.4-2.4c0-3.1,0-6.3-0.1-9.4c-0.1-1.6-0.2-3.2-0.1-4.8c0.1-2.7,1.5-4.8,3.7-6.4c2.4-1.9,5.1-3.3,8.2-3.2
		c4.3,0.2,7.6,2.3,9.8,6c0.8,1.4,0.8,3.1,0.8,4.7c-0.1,4.7-0.2,9.4,0.3,14.1c0.3,2.8,1.5,5.4,3.2,7.6c4.2,5.6,7.2,11.7,8.1,18.7
		c0.3,2,0.8,4.1,0.8,6.1c0.1,3,0.4,6.1-0.8,9.1c-0.3,0.7-0.4,1.5,0,2.2c0.1,0.3,0.1,0.7,0.2,1.1c0.1,0.2,0.1,0.4-0.1,0.5
		c-0.5-0.2-0.4-0.8-0.5-1.2c-0.1-0.3-0.1-0.7-0.4-0.8c-0.4-0.1-0.4,0.4-0.6,0.6c-0.5,0.7-0.8,1.6-1.3,2.3c-0.9,1.4-2.2,1.9-3.9,1.5
		c-1.3-0.3-2.5-0.9-3.5-1.8c-0.7-0.6-1.1-1.5-1.1-2.4c0-0.6,0-1.3-0.2-1.9c0-0.2,0.1-0.3,0.1-0.4c0.2-0.3,0.2-0.6,0.2-1
		c0.1-0.8,0.4-1.5,1-2.1c0.6-0.5,0.9-1.2,1.1-1.9c0.3-1.2,0.6-2.4,1-3.5c0.9-2.4,0.2-4.7-0.4-7c-1.1-3.7-2.8-7.2-4.4-10.7
		c-1.2-2.7-2.6-5.4-3.8-8.1c-0.3-0.8-0.6-1.7-0.8-2.5c-0.3-1.1-0.5-2.2-0.9-3.3c-0.1-0.2-0.1-0.4-0.1-0.5c0.2-0.3,0.6-0.5,0.8-0.7
		c0.6-0.5,1.1-1,1.2-1.8c0.1-1-0.3-1.7-1.2-2.1c-0.4-0.2-0.8-0.2-1.1-0.5c-0.1-0.1-0.1-0.3,0-0.4c1.4-1.5,1.9-3.2,1.5-5.2
		c-0.2-1.1-0.6-2.2-1.6-2.8c-1.3-0.8-3-0.4-3.9,1c-0.2,0.3-0.4,0.7-0.5,1.1c-0.4,1-0.3,2-0.4,3c-0.1,0.8-0.8,0.5-1.3,0.6
		c-0.9,0-1.7,0.1-2.4,0.7c-0.2,0.2-0.6,0.4-0.9,0.2c0.1-1.4,0.3-2.7-0.3-4.1c-0.2-0.8-0.7-1.3-1.3-1.8c-0.9-0.7-1.8-0.6-2.4,0.4
		c-0.4,0.6-0.6,1.2-0.5,1.9c-0.2,1.5-0.2,3,0.5,4.5c0.2,0.3,0.4,0.7,0.7,0.9c0,0.1,0.1,0.2,0.1,0.3c0,0.2-0.2,0.3-0.3,0.4
		c-2,1.1-1.9,3.3-0.3,4.7c0.3,0.2,0.7,0.4,0.5,0.9c-0.2,0.2-0.5,0.5-0.6,0.8c-1.2,3.3-3,6.3-4.6,9.4c-0.7,1.4-1.2,2.8-1.5,4.3
		c-0.2,0.9-0.6,1.7-1,2.5c-1.8,3.3-3.6,6.7-4.6,10.4c-0.2,0.8-0.2,1.5,0.1,2.2c2.3,5.4,3.9,11,6.5,16.3c0.5,1.1,0.9,2.2,0.8,3.4
		c-0.1,0.6,0.3,0.8,0.8,1c1.9,0.8,3.8,1.3,5.8,1.5c3.6,0.4,7.1,0.2,10.6-0.9c0.2-0.1,0.5-0.2,0.7-0.3c1.2-0.4,1.8-1.1,1.6-2.4
		c-0.1-0.6,0-1.3,0-1.9c0-0.3-0.1-0.7,0.4-0.8c0.5,0.5,0.2,1.1,0.3,1.7c0,0.1,0,0.2,0,0.3c-0.3,3.8,0.3,7.5,1.2,11.1
		c0.1,0.4,0.2,0.8,0.1,1.2c-0.1,0.2-0.1,0.3-0.3,0.3c-0.1-0.1-0.1-0.3-0.2-0.4c-0.5-1.5-0.5-1.5-2.1-1.4c-5.3,0.4-10.6,0-15.7-1.5
		c-1.2-0.4-2.4-0.8-3.5-1.4c-0.4-0.3-0.7-0.2-1,0.2c-1,1.2-1.5,2.7-2.5,3.9c-0.1,0.1-0.3,0.3-0.4,0.4c-0.3-0.4-0.1-0.7,0.1-1
		c0.7-1.3,1.1-2.7,0.9-4.2c0-0.2,0.1-0.5,0.3-0.6c0.5,0.2,0.3,0.6,0.3,1c0,0.4,0,0.8,0,1.3c0.3-0.6,0.7-1,1.1-1.4
		c0.5-0.5,0.6-1,0.1-1.5c-0.4-0.5-0.8-1.2-1.7-1c-0.1,0.1-0.2,0.1-0.3,0c-0.3-0.6-0.4-1.3-0.4-1.9c-0.2-2.8-1.3-5.3-2.2-8
		c-0.5-1.6-1.1-3.1-1.9-4.6c-0.8-1.5-1.2-1.7-2.8-1.1c-0.2,0.1-0.5,0.2-0.7,0.1C28.5,67.9,28.5,67.8,28.6,67.8z"/>
	<path class="st1" d="M61.2,91.1c-0.3-1.4-0.5-2.9-0.9-4.3c-0.8-2.8-0.4-5.6-0.5-8.4c0.2-0.4,0.2-0.9,0.1-1.3
		c-0.3-1.2-0.1-2.5,0.1-3.7c0.2-0.6,0.2-1.1,0.3-1.7c0.2-1.2,0.9-1.8,2.1-1.7c0.9,0,1.9,0,2.5,0.9c0.4,0.2,0.3,0.6,0.3,1
		c0,1.2-0.1,2.4,1,3.3c1.5,1.2,3.1,2.1,5.1,1.8c1.2-0.1,1.8-1.1,2.3-2.1c0.5-0.9,1-1.9,1.5-2.9c1,0.6,0.8,1.8,1.1,2.6
		c0.8,1.2,1.9,1.2,3.2,1c1.7-0.2,3.3-0.4,5,0.4c1.5,0.8,1.6,2.7,1,3.7c-1.6,2.6-3.6,4.9-5.7,7.2c-0.6,0.7-1.3,1.4-1.8,2.2l0,0.1
		l-0.1,0c-0.7,0.7-1.3,1.3-2.1,1.8l0,0c-1.1,0.7-2,1.6-3,2.4c-2.7,2.1-5.6,2.6-8.7,1.1C62.6,93.7,61.5,92.7,61.2,91.1z"/>
	<path class="st1" d="M36.9,85.8c0.2,1.7-0.2,3.3-1.1,4.7c-0.1,0.1-0.1,0.3-0.1,0.5c0,0.1-0.1,0.2-0.2,0.2c-1.5,1-3,1.5-4.8,1.3
		c-1.4-0.1-2.5-0.8-3.7-1.4c-3.7-1.8-6.8-4.5-10.1-7.1c-0.9-0.8-1.8-1.6-2.6-2.5c-1.4-1.6-0.6-3.8,1-4.4c0.9-0.3,1.8-0.4,2.7-0.6
		c0.5-0.1,0.9-0.3,1.4-0.5c0.6-0.3,0.7-0.9,0.5-1.5c-0.2-0.6-0.2-1.2,0-1.8c0.4-1.9,1.7-2.1,3.3-1.7c0.5,0.1,0.9,0.3,1.4,0.5
		c0.7,0.2,1.3,0.1,1.7-0.6c0.4-0.7,0.8-1.3,1.3-2c0.3-0.4,0.5-0.8,1-0.9c0.3-0.2,0.6-0.4,1-0.5c1.1-0.5,1.9-0.2,2.5,0.9
		c1.9,3.7,3,7.7,4.1,11.6c0.3,1.1,0.3,2.4,0.5,3.6c0.4,0.5,0.5,1,0.3,1.5C36.9,85.4,36.8,85.6,36.9,85.8z"/>
	<path class="st2" d="M28.6,68c-1,0.8-1.4,2.1-2.2,3.1c-0.6,0.7-1.1,0.8-1.9,0.5c-0.6-0.3-1.3-0.5-2-0.6c-1.7-0.1-2.2,0.3-2.5,2.3
		c0,0.2,0,0.5,0,0.7c0.2,1.9-0.2,2.4-2.1,2.7c-0.9,0.1-1.7,0.2-2.6,0.5c-1.6,0.7-2.2,2.8-0.8,4.3c2.2,2.4,4.8,4.2,7.3,6.2
		c2.3,1.8,4.8,3.2,7.5,4.3c1.9,0.8,3.8,0.4,5.5-0.6c0.2-0.1,0.3-0.3,0.6-0.2c-1.1,1.1-2.5,1.5-4,1.5c-1.3,0.1-2.5-0.4-3.6-1
		c-4.9-2.5-9.1-5.8-13.1-9.6c-1-1-1.6-2.1-1.1-3.5c0.5-1.5,1.8-2,3.1-2.2c0.6-0.1,1.3-0.1,1.9-0.3c1.2-0.4,1.3-0.7,1.1-1.9
		c-0.1-0.6-0.1-1.1,0.1-1.7c0.5-1.9,1.7-2.2,3.5-1.8c0.3,0.1,0.6,0.2,0.9,0.3c1.4,0.5,1.7,0.4,2.5-0.9c0.5-0.9,1-1.9,1.9-2.5
		C28.6,67.9,28.6,67.9,28.6,68z"/>
	<path class="st3" d="M77.8,89c0.1-0.8,0.9-1.3,1.4-1.9c2-2.4,4.2-4.6,5.8-7.3c1.3-2.2,0.2-3.9-2-4.2c-1.2-0.2-2.5,0-3.7,0.1
		c-1.6,0.2-2.5,0.2-3-1.2c0.1-0.1,0.1-0.3,0.2-0.4c0.4,1.2,1.1,1.6,2.6,1.3c1.3-0.2,2.6-0.3,4-0.2c1.2,0.2,2.4,0.8,2.8,1.9
		c0.3,0.8,0.2,1.9-0.4,2.8C83.2,83.3,80.5,86.1,77.8,89z"/>
	<path class="st4" d="M61.2,91.1c1.8,4.2,6.3,4.7,9.8,3.1c1.3-0.6,2.3-1.8,3.5-2.6c0.4-0.3,0.7-0.6,1.1-0.7
		c-1.8,1.6-3.4,3.5-5.9,4.1c-2.6,0.7-5.2,0.5-7.3-1.5c-0.7-0.6-1.2-1.3-1.4-2.2C61.1,91.2,61.2,91.1,61.2,91.1z"/>
	<path class="st5" d="M75.6,90.9c0.6-0.7,1.3-1.4,2.1-1.8C77.1,89.8,76.6,90.6,75.6,90.9z"/>
	<path class="st6" d="M59.6,76.7c0,1.2-0.1,2.4-0.1,3.6c0,0.7-0.3,1-0.8,1.3c-2,1-4,1.4-6.2,1.6c-4.1,0.4-8.2,0.1-12-1.6
		c-0.7-0.3-1-0.6-0.8-1.4c0.2-0.5,0-1.1-0.2-1.6c-1.1-3-2.7-5.7-3.7-8.8c-1.1-3.2-2.3-6.4-3.6-9.5C32,59.9,32,59.5,32.1,59
		c1-3.9,2.8-7.5,4.8-10.9c0.5-0.9,0.9-1.7,1-2.7c0.2-1.5,0.8-2.8,1.5-4.1c1.6-3.1,3.4-6.2,4.7-9.5c0.1-0.3,0.1-0.8,0.7-0.5
		c0.6-0.1,0.8,0.4,1.2,0.7c0.6,0.6,1.4,0.8,2.1,0.8c1.9,0.1,3.8,0.2,5.6-0.5c1.2-0.3,2.3-1.1,3.4-1.6c0.3-0.2,0.6-0.4,1-0.2
		c0.2,0.7,0.5,1.4,0.7,2.2c0.5,2.6,1.6,4.9,2.7,7.2c2.5,5.4,5.4,10.6,6.9,16.5c0.5,1.9,0.9,3.8,0.1,5.8c-0.4,1.1-0.6,2.3-0.9,3.4
		c-0.3,0.9-0.6,1.8-1.4,2.4c-0.6,0.4-0.6,1.2-0.8,1.9c-0.1,0.3,0.2,0.8-0.3,0.9c-1-0.4-1.9-0.7-2.9-0.7c-0.8,0-1.7,0.7-1.8,1.5
		c-0.1,0.5-0.3,1.1-0.2,1.6C59.8,74.2,59.9,75.5,59.6,76.7z"/>
	<path class="st1" d="M45.6,31.9c-0.3-0.2-0.5-0.4-0.8-0.7c-0.4-0.7-1.1-1-1.5-1.7c-0.9-1.8-0.5-3.2,1.2-4.2
		c0.1-0.1,0.2-0.1,0.3-0.2c0.8-0.7,1.9-0.9,2.6-1.8c0.2-0.2,0.4-0.3,0.7-0.3c0.3,0,0.6-0.2,0.8-0.4c0.7-0.6,1.5-0.8,2.4-0.7
		c0.5,0,0.9,0.1,1.2,0.4c0.9,0.9,2,1.3,3.1,1.8c0.6,0.3,1.3,0.4,1.9,0.7c1,0.2,1.9,0.4,2.3,1.5c0.6,1.4-0.2,2.5-1.2,3.3
		c-0.2,0.2-0.5,0.3-0.8,0.4c-1.4,1-2.9,1.8-4.6,2.3c-1.9,0.5-3.8,0.6-5.7,0.4C46.9,32.7,46.3,32.2,45.6,31.9z"/>
	<path class="st7" d="M52.5,21.6c0-1.1-0.1-2.2,0.4-3.2c1.9-1.2,5.1-0.8,6.3,0.9c0.6,1.7-0.2,4.3-1.6,5.3c-0.7,0.4-1.2-0.1-1.8-0.3
		c-0.4-0.3,0-0.4,0.2-0.5c1.4-0.8,1.9-1.9,1.4-3.4c-0.3-0.8-0.8-1.2-1.6-1.3c-0.7-0.1-1.2,0.4-1.6,1c-0.4,0.7-0.4,1.4-0.2,2.2
		c0.1,0.3,0.3,0.8-0.1,1c-0.4,0.2-0.7-0.2-1-0.5C52.5,22.5,52.6,22,52.5,21.6z"/>
	<path class="st0" d="M52.5,21.6c0.3,0.7,0.3,1.6,1.4,1.7c0.2-0.3-0.1-0.6-0.2-0.9c-0.3-0.9-0.2-1.7,0.3-2.5
		c0.4-0.7,0.9-1.2,1.7-1.1c0.7,0,1.4,0.5,1.7,1.2c0.8,1.7,0.1,3.4-1.6,4.1c0,0-0.1,0-0.1,0c0,0,0,0.1,0,0.1c0,0.2,0,0.2-0.2,0.2
		c-1.2-0.5-2.3-0.9-3.2-1.8c-0.3-0.3-0.7-0.3-1-0.5c0.2-0.1,0.4-0.2,0.7-0.1C52.3,22.1,52.5,21.9,52.5,21.6z"/>
	<path class="st8" d="M47.6,23.5c-0.7,0.9-1.7,1.3-2.8,1.7c0-0.1,0-0.1,0-0.2c0.2-0.5,0-0.8-0.3-1.1c-0.9-1.2-0.9-2.4-0.2-3.7
		c0.7-1.4,2-1.4,2.9-0.1C48,21.2,47.8,22.3,47.6,23.5z"/>
	<path class="st9" d="M47.6,23.5c-0.5-0.2-0.2-0.5-0.1-0.8c0.2-0.8,0.1-1.6-0.3-2.4c-0.3-0.5-0.7-1-1.3-1c-0.7,0-1.2,0.5-1.5,1.2
		c-0.7,1.5-0.3,2.8,1.1,4.1c-0.1,0.3-0.6,0.1-0.7,0.4c-0.5,0.2-0.5-0.2-0.7-0.4c-0.9-1.6-1-3.3-0.8-5.1c1-1.6,3.3-1.8,4.6-0.6
		c0.6,1.4,0.8,2.8,0.2,4.2C47.9,23.2,47.8,23.4,47.6,23.5z"/>
	<path class="st10" d="M59.2,19.3c-1.9-1.6-4.1-1.5-6.3-0.9c0.9-2.3,2.9-3.2,4.7-2C58.6,17,59.1,18.1,59.2,19.3z"/>
	<path class="st10" d="M47.9,18.9c-1.7-1-3.2-0.7-4.6,0.6c-0.1-0.8,0.2-1.5,0.6-2.1c0.6-1,1.7-1.1,2.6-0.4
		C47.2,17.5,47.8,18,47.9,18.9z"/>
	<path class="st11" d="M36.8,83.4c0-0.1-0.1-0.5,0.3-0.3c0.5,0.3,1,0.6,1.4,1c0.8,0.9,0.9,1.6,0,2.3c-0.3,0.2-0.5,0.5-0.7,0.7
		c-0.2,0.3-0.4,0.5-0.6,0.8c0-0.9-0.1-1.8-0.1-2.7C36.9,84.7,36.8,84,36.8,83.4z"/>
	<path class="st12" d="M70.1,49.4c0.4,5.7-0.6,14.5-1.9,15.9c1.3-4.8,1.7-9.7,1.7-14.6C69.9,50.2,69.6,49.8,70.1,49.4z"/>
	<path class="st13" d="M60,72.9c0.1-0.8,0.1-1.7,0.8-2.4c0.5-0.6,1-0.7,1.7-0.6c0.9,0.1,1.8,0.3,2.6,0.9c-0.1,0-0.1,0.1-0.2,0.1
		c-0.9-0.4-1.8-0.7-2.8-0.7c-0.9,0-1.5,0.5-1.6,1.4c-0.1,0.6-0.2,1.1-0.3,1.7C60,73.2,60.1,73,60,72.9z"/>
	<path class="st14" d="M70.1,49.4c-0.3,0.4,0,0.9-0.2,1.3c-0.2-1.4-0.3-2.9-0.7-4.3c-0.2-0.9-0.6-1.8-0.8-2.7c0.1-0.1,0.1-0.1,0.2,0
		C69.4,45.5,69.9,47.4,70.1,49.4z"/>
	<path class="st15" d="M53.5,32.2c1.6-0.5,3-1.4,4.4-2.2c0.1,0.1,0.1,0.2,0.2,0.3c-0.9,0.2-1.6,0.9-2.5,1.2
		c-0.6,0.3-1.2,0.5-1.7,0.7C53.8,32.3,53.6,32.4,53.5,32.2z"/>
	<path class="st16" d="M60,72.9c0.1,0.1,0.1,0.3,0.2,0.4c-0.3,1.7-0.1,3.4-0.4,5.1c-0.1-0.5,0.1-1.1-0.2-1.6
		C59.6,75.4,59.8,74.1,60,72.9z"/>
	<path class="st17" d="M36.8,83.4c0.2,0.6,0.3,1.2,0.3,1.9c-0.2,0.1-0.1,0.4-0.2,0.6c-0.2-0.7-0.2-1.5-0.3-2.2
		C36.7,83.5,36.8,83.5,36.8,83.4z"/>
	<path class="st18" d="M55.6,24.4c0.1-0.1,0.1-0.1,0.2-0.2c0.6,0.2,1.2,0.4,1.8,0.4c0,0.1,0,0.2,0,0.3C56.8,25,56.2,24.7,55.6,24.4z
		"/>
	<path class="st19" d="M31.1,52.8c0.1,0.7-0.2,1.4-0.3,2c-0.1-0.7,0.1-1.4,0.1-2C31,52.8,31.1,52.8,31.1,52.8z"/>
	<path class="st20" d="M31.1,52.8L31.1,52.8l-0.1,0c0.1-0.6,0.3-1.2,0.6-1.8C31.6,51.7,31.4,52.3,31.1,52.8z"/>
	<path class="st21" d="M68.7,43.7c-0.1,0-0.1,0-0.2,0c-0.3-0.4-0.4-0.8-0.5-1.3C68.4,42.8,68.5,43.3,68.7,43.7z"/>
	<path class="st10" d="M45.9,67.3c0.2-2.9,0.5-6.1,0.9-9.2c0.2-1.7,0.4-3.4,0.8-5.1c0.1-0.2,0.1-0.4,0.2-0.6
		c0.1-0.3,0.3-0.7,0.7-0.6c0.5,0,0.4,0.5,0.4,0.8c0.1,1.4-0.3,2.7-0.4,4c-0.2,2-0.4,4-0.7,6c-0.2,2.2-0.2,4.3-0.5,6.5
		c-0.1,0.4-0.2,0.8-0.6,0.8c-0.5,0.1-0.5-0.4-0.6-0.7C45.8,68.7,45.9,68.1,45.9,67.3z"/>
	<path class="st22" d="M53.5,32.2c0.1,0,0.2,0.1,0.4,0.1c-1.9,0.7-4,0.7-6,0.6c-0.9-0.1-1.7-0.3-2.3-1.1c1.6,0.7,3.1,1.1,4.9,0.8
		C51.5,32.5,52.5,32.4,53.5,32.2z"/>
	<path class="st23" d="M43.3,28.4c2.1,2.2,4.7,1.3,7.2,1.2c2.5-0.1,4.8-0.7,7.3-1.4c-0.5,0.6-1.3,1.1-2.5,1.3
		c-2.9,0.5-5.8,0.9-8.8,0.8C45.1,30.2,43.9,29.8,43.3,28.4z"/>
</g>
</svg>
