<?xml version="1.0" encoding="utf-8"?>
<!-- Generator: Adobe Illustrator 25.3.0, SVG Export Plug-In . SVG Version: 6.00 Build 0)  -->
<svg version="1.1" id="Calque_2" xmlns="http://www.w3.org/2000/svg" xmlns:xlink="http://www.w3.org/1999/xlink" x="0px" y="0px"
	 viewBox="0 0 200 100" style="enable-background:new 0 0 200 100;" xml:space="preserve">
<style type="text/css">
	.st0{fill:#FFFFFF;}
</style>
<g>
	<path class="st0" d="M57.7,49.7c0-7.1,0-14.3,0-21.4c0-0.8,0.1-1.1,1-1.1c9.4,0,18.9,0.1,28.3,0c1.2,0,0.9,0.6,1,1.3
		c0,0.7,0,1.2-1,1.2c-8.5-0.1-16.9,0-25.4,0c-0.8,0-1.1,0.1-1.1,1c0.1,5.4,0,10.7,0,16.1c0,0.8,0.2,0.9,1,0.9c8,0,15.9,0,23.9,0
		c1.2,0,1,0.6,1,1.3c0,0.8,0,1.2-1,1.2c-7.9,0-15.9,0-23.8,0c-0.8,0-1,0.2-1,1c0,5.9,0,11.8,0,17.7c0,1,0.3,1.1,1.2,1.1
		c8.5,0,17.1,0,25.6,0c0.3,0,0.9-0.2,1,0.2c0.1,0.7,0.1,1.4-0.1,2.1c0,0.2-0.5,0.1-0.8,0.1c-6,0-12.1,0-18.1,0c-3.5,0-7,0-10.5,0
		c-1,0-1.1-0.3-1.1-1.2C57.7,64,57.7,56.9,57.7,49.7z"/>
	<path class="st0" d="M139.3,6.8c-4.6,6.6-9.2,13.3-13.7,19.9c-5,7.2-10,14.5-15,21.7c-0.4,0.6-0.4,0.9,0,1.5
		c5.2,7.1,10.4,14.3,15.6,21.4c0.2,0.3,0.5,0.5,0.5,0.9c-0.9,0-1.8,0-2.7,0c-0.6,0-0.7-0.4-1-0.7c-4.7-6.5-9.5-13-14.1-19.5
		c-0.6-0.8-0.7-0.7-1.3,0c-4.6,6.4-9.3,12.8-14,19.2c-0.5,0.7-1.1,1.1-2,1c-0.6-0.1-1.2,0-1.8,0c-0.1-0.4,0.3-0.7,0.5-0.9
		c5.2-7.1,10.4-14.3,15.7-21.4c0.5-0.6,0.5-1,0-1.6C101,41.6,96.1,34.8,91.2,28c-0.1-0.2-0.3-0.3-0.3-0.7c0.9,0,1.8,0,2.7,0
		c0.5,0,0.7,0.4,0.9,0.7c4.3,6,8.6,11.9,12.9,17.9c0.8,1.1,0.8,1.2,1.7,0c9.6-13.2,19.5-26.2,29.8-38.9c0.1-0.1,0.2-0.2,0.3-0.4
		C139.3,6.6,139.4,6.6,139.3,6.8z"/>
	<path class="st0" d="M67.3,93.4C58,81.2,48.8,68.8,40.2,56.1c-5.5-8.2-11.1-16.2-16.7-24.3c-0.2-0.3-0.4-0.5-0.8-1
		c0,0.6,0,0.9,0,1.3c0,13-0.1,26-0.1,39.1c0,1-0.3,1.3-1.2,1.2c-0.2,0-0.5,0-0.7,0c-0.7,0.1-0.9-0.2-0.9-0.9c0-14.4,0-28.9,0-43.3
		c0-0.7,0.2-0.7,0.8-0.8c2-0.3,3.1,0.5,4.1,2.2c14.1,21.1,28.3,42.1,42.4,63.2c0.1,0.2,0.2,0.3,0.3,0.5
		C67.6,93.4,67.5,93.4,67.3,93.4z"/>
	<path class="st0" d="M146.6,51c0,6.7,0,13.5,0,20.2c0,0.8-0.1,1.2-1.1,1.1c-1.7-0.1-1.7,0-1.7-1.8c0-13.3,0-26.5,0-39.8
		c0-0.9-0.2-1.1-1.1-1.1c-4.6,0.1-9.2,0-13.8,0c-0.8,0-1.1-0.1-1-1c0-0.3,0-0.6,0-0.9c0-0.5,0.2-0.6,0.6-0.6c1.1,0,2.1,0,3.2,0
		c9.8,0,19.7,0,29.5,0c0.4,0,1-0.2,1.1,0.2c0.2,0.7,0.1,1.4,0,2.1c0,0.3-0.5,0.1-0.8,0.1c-4.7,0-9.4,0-14.1,0
		c-0.7,0-0.9,0.2-0.9,0.9C146.6,37.4,146.6,44.2,146.6,51z"/>
	<path class="st0" d="M176.5,69.3c-1.4-0.1-2.8-0.4-3.4-1.9c-0.1-0.3-0.4-0.7-0.1-0.9c0.4-0.1,1-0.4,1.4,0.2
		c0.8,1.2,2.3,1.5,3.5,0.9c0.5-0.3,0.8-0.6,0.8-1.2c0-0.6-0.3-1-0.8-1.1c-1-0.3-2.1-0.5-3.1-0.9c-1.6-0.6-2.3-2.3-1.4-3.7
		c0.7-1.3,2-1.6,3.3-1.5c1.3,0,2.5,0.5,3.2,1.8c0.1,0.3,0.5,0.8,0.1,0.9c-0.4,0.1-1,0.4-1.4-0.3c-0.6-1.1-1.8-1.4-3-0.9
		c-0.5,0.2-0.9,0.6-0.9,1.2c0,0.7,0.4,1,0.9,1.2c0.7,0.2,1.4,0.4,2.1,0.6c2,0.6,2.7,1.4,2.6,3c-0.1,1.5-1.2,2.4-3,2.7
		C177.1,69.2,176.8,69.2,176.5,69.3z"/>
	<path class="st0" d="M170.9,63.2c0,1.1,0.1,2.3,0,3.4c-0.1,1.6-1.1,2.5-2.7,2.6c-1.5,0.1-2.8-0.7-3.1-2c-0.1-0.2-0.3-0.7,0.1-0.7
		c0.4,0,1-0.4,1.3,0.3c0.3,0.9,1,1.1,1.8,1c0.9-0.2,1.1-0.9,1.1-1.7c0-2,0-4,0-6c0-0.6,0.1-0.8,0.8-0.8c0.7,0,0.8,0.2,0.7,0.8
		C170.8,61.1,170.9,62.2,170.9,63.2C170.9,63.2,170.9,63.2,170.9,63.2z"/>
	<path class="st0" d="M163.2,68.1c-0.1,0.6-0.4,1-1,1c-0.6,0-0.9-0.3-1-0.9c0-0.6,0.3-1,0.9-1C162.8,67.1,163.1,67.5,163.2,68.1z"/>
	<path class="st0" d="M67.3,93.4c0.1-0.1,0.1-0.1,0.2-0.2c0.6,0.7,1.2,1.5,1.5,2.4C68.4,94.9,67.8,94.2,67.3,93.4z"/>
	<path class="st0" d="M139.3,6.8c-0.1-0.1-0.1-0.1-0.2-0.2c0.6-0.7,1.1-1.5,1.7-2.2c0.1,0,0.1,0.1,0.2,0.1
		C140.4,5.3,139.9,6.1,139.3,6.8z"/>
</g>
</svg>
