<?xml version="1.0" encoding="utf-8"?>
<!-- Generator: Adobe Illustrator 25.3.0, SVG Export Plug-In . SVG Version: 6.00 Build 0)  -->
<svg version="1.1" id="Calque_3" xmlns="http://www.w3.org/2000/svg" xmlns:xlink="http://www.w3.org/1999/xlink" x="0px" y="0px"
	 viewBox="0 0 100 100" style="enable-background:new 0 0 100 100;" xml:space="preserve">
<style type="text/css">
	.st0{fill:#009539;}
</style>
<path class="st0" d="M88.5,29c0-0.8-0.3-1.3-1-1.7C75.4,20.2,63.2,13.2,51,6.2c-0.7-0.4-1.4-0.4-2,0c-12.1,7-24.3,14-36.4,21
	c-0.7,0.4-1,1-1,1.8c0,7,0,14,0,21c0,7,0,14,0,21c0,0.8,0.3,1.4,1.1,1.8c12.1,7,24.3,14,36.4,21c0.7,0.4,1.4,0.4,2.1,0
	c1.1-0.6,2.2-1.3,3.3-1.9c11-6.4,22.1-12.7,33.1-19.1c0.7-0.4,1-1,1-1.7C88.5,57.1,88.5,43,88.5,29z M72.1,66.9c0,2-0.9,3.4-2.6,4.3
	c-1.2,0.7-2.5,0.8-3.9,0.7c-2-0.2-3.8-0.9-5.4-2.3c-0.8-0.7-1.4-1.6-2.1-2.4c-4-4.8-8-9.6-12-14.4c-2.9-3.5-5.8-6.9-8.7-10.4
	c0-0.1-0.1-0.1-0.2-0.2c-0.1,0.1,0,0.2,0,0.3c0,8.2,0,16.4,0,24.6c0,2.6-2.2,4.8-4.8,4.8c-1.9,0-3.4-0.7-4.5-2.3
	c-0.5-0.7-0.7-1.6-0.7-2.5c0-11.4,0-22.8,0-34.2c0-2.3,1.4-3.9,3.2-4.6c1.8-0.7,3.6-0.6,5.4,0c1.7,0.5,3.1,1.5,4.2,2.9
	c3.5,4.2,7.1,8.5,10.6,12.7c3.7,4.4,7.4,8.9,11.1,13.3c0.1,0.1,0.2,0.2,0.3,0.4c0-0.2,0-0.3,0-0.4c0-8.1,0-16.3,0-24.4
	c0-2.6,1.8-4.6,4.3-4.9c3.2-0.4,5.3,1.8,5.6,4.2c0,0.2,0,0.5,0,0.7c0,9.1,0,18.1,0,27.2C72.1,62.3,72.1,64.6,72.1,66.9z"/>
</svg>
