<?xml version="1.0" encoding="utf-8"?>
<!-- Generator: Adobe Illustrator 25.3.0, SVG Export Plug-In . SVG Version: 6.00 Build 0)  -->
<svg version="1.1" id="Calque_2" xmlns="http://www.w3.org/2000/svg" xmlns:xlink="http://www.w3.org/1999/xlink" x="0px" y="0px"
	 viewBox="0 0 200 100" style="enable-background:new 0 0 200 100;" xml:space="preserve">
<style type="text/css">
	.st0{fill:#333333;}
	.st1{fill:#6DA65D;}
	.st2{fill:#669F60;}
	.st3{fill:#639C57;}
	.st4{fill:#3B8739;}
	.st5{fill:#55A244;}
	.st6{fill:#3B8639;}
</style>
<g>
	<path class="st0" d="M32.3,55.5c-0.1-1.2-0.2-2.4-0.3-3.7c-0.1-1.2-0.2-2.3-0.2-3.5c0-0.9,0-1.8,0-2.7c0-1.1-0.1-2.1,0-3.2
		c0-0.3,0-0.5,0-0.8c0.1-1.9,0.5-3.4,0.8-5c0.3-1.8,0.6-3.6,1.1-5.3c2.9-1.6,5.8-3.3,8.7-4.9c0.7-0.4,1.2-0.4,1.9,0
		c4.5,2.6,9,5.2,13.5,7.8c0.7,0.4,1,0.9,1,1.7c0,7,0,13.9,0,20.9c0,1.3-0.3,1.3-1.3,0.7c-2.6-1.6-5.3-3.1-8-4.5
		c-0.8-0.4-1.1-0.9-1.1-1.8c0.1-3.2,0-6.4,0-9.6c0-0.8-0.2-1.4-1-1.8c-1.4-0.7-2.7-2.2-4.2-2.1c-1.4,0.1-2.7,1.4-4.1,2.1
		c-0.8,0.4-1,0.9-1,1.8c0.1,3.3,0,6.6,0,9.9c0,0.7-0.2,1.1-0.9,1.5C35.6,53.6,34,54.6,32.3,55.5z"/>
	<path class="st0" d="M168,39.8c0.1,1.2,0.2,2.1,0.3,3.4c-1.6,1.3-3.4,2.1-5.1,3.1c-0.7,0.4-0.7-0.1-0.7-0.6c0-1.4,0-2.8,0-4.3
		c0-0.7-0.2-1.1-0.8-1.5c-1.3-0.7-2.6-1.4-3.8-2.2c-0.5-0.3-1-0.4-1.4,0c-0.1,0.1-0.2,0.1-0.2,0.1c-1.4,0.9-3.4,1.4-4.2,2.7
		c-0.7,1.3-0.2,3.3-0.3,5c0,0.8,0.2,1.3,1,1.7c4.4,2.5,8.8,5,13.1,7.6c0.4,0.2,0.8,0.3,1.1,0.9c-3.1,1.8-6.3,3.6-9.4,5.4
		c-0.4,0.3-0.7,0.1-1.1-0.1c-4.7-2.7-9.4-5.4-14.1-8.1c-0.5-0.3-0.7-0.6-0.7-1.2c0-5.4,0-10.8,0-16.3c0-0.6,0.2-0.9,0.7-1.2
		c4.7-2.7,9.4-5.4,14-8.1c0.6-0.3,1-0.1,1.4,0.1c2.7,1.6,5.5,3.1,8.2,4.7c0.9,1.7,0.9,3.7,1.3,5.6C167.7,37.6,167.8,38.7,168,39.8z"
		/>
	<path class="st1" d="M96.6,52c0.1,0.6-0.4,0.7-0.7,0.9c-4.6,2.7-9.3,5.4-13.9,8.1c-0.6,0.3-1,0.3-1.4-0.2
		c-2.6-4.8-5.4-9.5-8.1-14.2c-0.5-0.8-1-1.7-1.4-2.5c-1.2-2.5-2.8-4.8-4.1-7.3c-0.3-0.6-0.6-1.3-0.9-1.9c-0.1-0.4,0.3-0.5,0.5-0.7
		c4.8-2.8,9.5-5.5,14.3-8.3c0.2-0.1,0.4-0.2,0.6-0.1c2.4,3.4,4.2,7.1,6.4,10.7c1.4,2.2,2.5,4.6,4,6.7c1.3,2.3,2.7,4.6,4,6.9
		C96.1,50.8,96.2,51.4,96.6,52z"/>
	<path class="st2" d="M93.2,91.1c1.4-1.1,2.8-1.3,4.2-0.1c0.4,0.4,1,0.6,1.5,0.9c0.5,0.3,0.8,0.3,1.3,0c4.1-2.4,8.1-4.7,12.2-7.1
		c0.5-0.3,0.7-0.6,0.7-1.3c0-4.7,0-9.4,0-14.1c0-0.6-0.2-0.9-0.7-1.2c-4.1-2.4-8.2-4.7-12.3-7.1c-0.5-0.3-0.9-0.2-1.3,0.1
		c-4,2.3-8.1,4.7-12.1,7c-0.6,0.3-0.8,0.7-0.8,1.4c0,4.7,0,9.3,0,14c0,0.3-0.1,0.8,0.3,1c1.3,0.8,2.6,1.8,4.1,2.2
		c1.4,0.4,2.6-0.7,2.6-2.3c0-4.4,0-8.8,0-13.2c0-1.1,0.3-1.4,1.3-1.3c0.6,0,0.9,0.2,0.9,0.9c0,4.9,0,9.9-0.1,14.8
		c-0.1,2.7-2.8,4.5-5.3,3.4c-1.9-0.8-3.6-2-5.5-3c-0.4-0.2-0.4-0.6-0.4-1c0-5.6,0-11.1,0-16.7c0-0.6,0.2-1,0.7-1.3
		c4.8-2.7,9.5-5.5,14.3-8.3c0.6-0.4,1-0.2,1.6,0.1c4.7,2.7,9.4,5.5,14.2,8.2c0.5,0.3,0.7,0.6,0.7,1.3c0,5.5,0,11,0,16.5
		c0,0.7-0.2,1-0.8,1.4c-4.7,2.7-9.5,5.4-14.2,8.2c-0.4,0.2-0.8,0.5-1.3,0.2C97,93.3,95.1,92.3,93.2,91.1z"/>
	<path class="st2" d="M102.5,83.8c-2.1,0.2-4.1-0.3-5.3-2.5c-0.2-0.3-0.3-0.6-0.4-1c-0.1-0.5-0.5-1.2,0.2-1.3
		c0.7-0.1,1.7-0.7,2.1,0.6c0.2,0.8,0.7,1.3,1.4,1.5c1.7,0.5,3.4,0.7,5.1,0.4c1-0.2,1.8-0.7,1.7-1.9c0-1-0.9-1.3-1.6-1.4
		c-1.9-0.4-3.7-0.7-5.6-1.1c-2-0.4-2.7-1-2.9-2.4c-0.3-2.1,0.3-3.6,2-4.4c2.6-1.2,5.3-1.2,7.9,0.1c1.1,0.6,1.8,1.5,2.1,2.8
		c0.1,0.4,0.5,1.1-0.3,1.2c-0.6,0.1-1.4,0.5-1.9-0.3c-1.4-2.2-4.5-2.9-6.8-1.6c-0.5,0.3-0.9,0.7-0.8,1.2c0.1,0.7,0.6,1,1.2,1.1
		c1.9,0.4,3.7,0.7,5.6,1.1c2.4,0.5,3.8,1.8,3.8,3.6c0,2.2-1.4,3.7-3.9,4.2C104.9,83.8,103.8,83.7,102.5,83.8z"/>
	<path class="st3" d="M91.5,43.5c-2.2-3.1-3.8-6.5-5.8-9.7c-1.3-2.1-2.5-4.2-3.7-6.3c-0.3-0.5-0.6-1-0.7-1.6
		c4.7,2.7,9.5,5.4,14.2,8.1c0.4,0.2,1,0.2,1,0.9c-0.8,2.5-2.4,4.5-3.6,6.7C92.6,42.4,92.4,43.2,91.5,43.5z"/>
	<path class="st4" d="M71.2,44c2.6,4.4,5.1,8.9,7.7,13.3c0.5,0.9,1,1.9,1.6,2.8c0.2,0.3,0.4,0.5,0,0.8c-4.7-2.7-9.4-5.4-14-8.1
		c-0.3-0.2-0.7-0.3-0.6-0.8c1.3-2.7,3-5.1,4.5-7.6C70.6,44.1,70.9,43.9,71.2,44z"/>
	<path class="st5" d="M71.2,44c-1.6,2-2.7,4.3-4.1,6.4c-0.4,0.5-0.6,1.2-1.2,1.6c0-5.7,0-11.4,0-17.1c1.5,1.7,2.3,3.8,3.5,5.7
		C70.1,41.8,70.8,42.8,71.2,44z"/>
	<path class="st6" d="M91.5,43.5c1.7-2.8,3.4-5.7,5.1-8.5c0,5.7,0,11.4,0,17c-1.4-1.8-2.3-3.9-3.6-5.9C92.4,45.3,92,44.4,91.5,43.5z
		"/>
	<path class="st2" d="M160.1,43.6c-0.2,0.6,0.3,1.4-0.3,1.9c-0.8,0.6-1.8,1.4-2.6,1.4c-0.9,0-1.8-0.8-2.6-1.4
		c-0.7-0.5-0.3-1.4-0.3-2.1c-0.1-1.3,1.7-3.2,3-3c1,0.1,1.8,0.8,2.7,1.4C160.4,42.1,160,43,160.1,43.6z"/>
	<path class="st0" d="M134.4,48.3c0-12.1,0-24.3,0-36.4c0-0.5,0.2-1.1-0.4-1.4c-3.2-1.7-6.4-3.4-9.6-5.1c-0.3,0.6-0.2,1.1-0.2,1.5
		c0,6.8,0,13.7,0,20.5c0,1-0.1,1.5-1.2,0.7c-1-0.7-2.1-1.2-3.1-1.8c-0.6-0.4-1.1-0.4-1.8,0c-4.5,2.7-9,5.3-13.6,7.9
		c-0.7,0.4-0.9,0.8-0.9,1.6c0,5.2,0,10.5,0,15.7c0,0.7,0.2,1.1,0.8,1.5c4.6,2.6,9.2,5.3,13.7,7.9c0.6,0.4,1.1,0.4,1.7,0
		c3.6-2.1,7.3-4.2,10.9-6.3c1.2-0.7,2.8-1.1,3.4-2.2C134.8,51.3,134.4,49.7,134.4,48.3z M121.6,48.1c-1.9,1.2-3.3,1.1-5.2,0
		c-1.9-1.1-2.6-2.3-2.6-4.5c0-2.2,0.7-3.4,2.6-4.5c1.9-1.1,3.3-1.2,5.2,0c1.8,1.1,2.5,2.1,2.6,4.5C124,45.9,123.5,46.9,121.6,48.1z"
		/>
</g>
</svg>
