<?xml version="1.0" encoding="utf-8"?>
<!-- Generator: Adobe Illustrator 25.3.0, SVG Export Plug-In . SVG Version: 6.00 Build 0)  -->
<svg version="1.1" id="Calque_3" xmlns="http://www.w3.org/2000/svg" xmlns:xlink="http://www.w3.org/1999/xlink" x="0px" y="0px"
	 viewBox="0 0 200 100" style="enable-background:new 0 0 200 100;" xml:space="preserve">
<style type="text/css">
	.st0{fill:#CA3837;}
	.st1{fill:#FEFEFE;}
</style>
<g>
	<path class="st0" d="M11.7,74.4c0-19.4,0-38.8,0-58.2c0-0.5,0.1-0.6,0.6-0.6c58.6,0,117.3,0,175.9,0c0.1,0.2,0.1,0.5,0.1,0.7
		c0,19.1,0,38.2,0,57.3c0,0.9-0.1,1-1,1c-0.5,0-1,0-1.4,0c-27.9,0-55.7,0-83.6,0c-1.9,0-1.9,0-1.9,1.9c0,2.1,0,4.3,0,6.4
		c0,1.2-0.1,1.2-1.2,1.2c-12.5,0-25,0-37.5,0c-1,0-1.1-0.1-1.1-1.1c0-2.3,0-4.6,0-7c0-1.3-0.2-1.4-1.4-1.4c-15.1,0-30.2,0-45.3,0
		c-0.4,0-0.9,0-1.3,0C12.1,74.7,11.9,74.7,11.7,74.4z"/>
	<path class="st1" d="M148.9,25.4c9.6,0,19.1,0,28.7,0c0.6,0,0.8,0.2,0.8,0.8c0,12.6,0,25.1,0,37.7c0,0.7-0.1,0.8-0.8,0.8
		c-2.7,0-5.5-0.1-8.2,0c-0.7,0-0.8-0.2-0.8-0.9c0-9.2,0-18.4,0-27.6c0-1,0.1-0.9-0.9-0.9c-2.7,0-5.4,0-8.1,0c-0.6,0-0.7,0.1-0.7,0.7
		c0,9.3,0,18.6,0,27.9c0,0.7-0.2,0.8-0.8,0.8c-2.8,0-5.6,0-8.3,0c-0.6,0-0.8-0.2-0.8-0.8c0-9.2,0-18.5,0-27.7c0-1,0.1-0.9-0.9-0.9
		c-2.7,0-5.3,0-8,0c-0.6,0-0.8,0.2-0.8,0.8c0,9.2,0,18.5,0,27.7c0,0.9,0,0.9-0.9,0.9c-6,0-12,0-18.1,0c-0.6,0-0.8-0.2-0.8-0.8
		c0-12.6,0-25.2,0-37.8c0-0.6,0.1-0.7,0.7-0.7C129.8,25.4,139.4,25.4,148.9,25.4z"/>
	<path class="st1" d="M70.5,49.9c0-7.9,0-15.8,0-23.7c0-0.6,0.2-0.8,0.8-0.8c12.6,0,25.1,0,37.7,0c0.6,0,0.8,0.1,0.8,0.8
		c0,12.6,0,25.1,0,37.7c0,0.7-0.2,0.8-0.8,0.8c-6,0-11.9,0-17.9,0c-0.7,0-0.9,0.1-0.9,0.9c0.1,2.8,0,5.5,0,8.3
		c0,0.5-0.1,0.7-0.7,0.7c-6.1,0-12.2,0-18.3,0c-0.6,0-0.7-0.2-0.7-0.8C70.5,65.8,70.5,57.8,70.5,49.9z"/>
	<path class="st1" d="M21.5,45c0-6.3,0-12.6,0-18.9c0-0.6,0.2-0.7,0.8-0.7c12.6,0,25.2,0,37.8,0c0.6,0,0.8,0.1,0.8,0.7
		c0,12.6,0,25.2,0,37.8c0,0.6-0.1,0.7-0.7,0.7c-2.8,0-5.7,0-8.5,0c-0.6,0-0.7-0.1-0.7-0.7c0-9.3,0-18.6,0-27.9
		c0-0.7-0.2-0.8-0.8-0.8c-2.7,0-5.4,0-8.1,0c-0.7,0-0.8,0.2-0.8,0.8c0,9.2,0,18.5,0,27.7c0,0.7-0.1,0.9-0.9,0.9c-6,0-12,0-18,0
		c-0.7,0-0.8-0.2-0.8-0.9C21.5,57.5,21.5,51.3,21.5,45z"/>
	<path class="st0" d="M99.9,45.1c0,3,0,6.1,0,9.1c0,0.5-0.1,0.7-0.6,0.7c-2.8,0-5.7,0-8.5,0c-0.5,0-0.6-0.2-0.6-0.7
		c0-6.1,0-12.2,0-18.2c0-0.5,0.1-0.7,0.6-0.7c2.8,0,5.7,0,8.5,0c0.5,0,0.6,0.2,0.6,0.7C99.9,39,99.9,42,99.9,45.1z"/>
</g>
</svg>
