<?xml version="1.0" encoding="utf-8"?>
<!-- Generator: Adobe Illustrator 25.3.0, SVG Export Plug-In . SVG Version: 6.00 Build 0)  -->
<svg version="1.1" id="Calque_2" xmlns="http://www.w3.org/2000/svg" xmlns:xlink="http://www.w3.org/1999/xlink" x="0px" y="0px"
	 viewBox="0 0 100 100" style="enable-background:new 0 0 100 100;" xml:space="preserve">
<style type="text/css">
	.st0{fill:#E96F43;}
	.st1{fill:#FEFEFE;}
	.st2{fill:#FEFEFD;}
	.st3{fill:#FEFDFC;}
	.st4{fill:#EC8D55;}
</style>
<path class="st0" d="M62.9,47.9c2.1-1.1,4.4-0.6,6.7-0.6c8.1-0.1,16.3,0,24.4,0c0.5,7.6-0.9,14.9-4.2,21.8c-0.9,1.9-1.9,3.8-3.2,5.4
	c-0.3,0.1-0.6,0.2-0.9,0.2c-16.9-0.1-33.8,0-50.7,0c-0.7,0-1.3,0-2-0.1c-1.2-0.4-1-1.5-1.2-2.4c-0.2-0.8,0.5-1.1,1.1-1.4
	c4.4-2.2,8.7-4.7,12.8-7.4c1.8-1.2,3.5-2.5,5.1-3.8c1-0.8,1-0.8,0.1-1.8c-0.4-0.4-1-0.8-1.1-1.5c0.1-0.4,0.4-0.6,0.8-0.6
	c0.8,0.2,1.2,0.9,1.7,1.4c0.4,0.4,0.7,0.4,1.1,0c3-2.7,5.8-5.6,8.5-8.7C62.3,48.1,62.5,47.8,62.9,47.9z"/>
<path class="st0" d="M92.7,39c-1.6-6-4.3-11.5-8.3-16.3c-1.5-2-3.2-3.8-5.1-5.4c-7.9-7-17.3-10.7-27.8-11.1
	c-8.4-0.3-16.3,1.8-23.6,6.1c-4.6,2.7-8.7,6.1-11.9,10.4c-4.6,5.7-7.5,12.1-8.9,19.3c-0.5,2-0.6,4.1-0.8,6.1
	c-0.1,2.8-0.1,5.6,0.5,8.4c0.9,6.6,3.2,12.6,7,18c0.1,0.2,0.1,0.3,0.2,0.5c2.4,3.4,5.1,6.6,8.5,9.1c13.1,10.1,27.6,12.5,43.2,7
	c5.2-1.8,9.8-4.8,13.9-8.5c2.6-2.4,5-5.1,6.9-8c-0.5-0.1-1.1-0.2-1.6-0.2c-17.4,0-34.9,0-52.3,0c-0.3,0.2-0.2,0.5-0.1,0.8
	c0,0.2,0.1,0.5-0.2,0.6c-0.3,0.1-0.4-0.1-0.6-0.3c-0.3-0.3-0.5-0.6-1-0.8c0,0,0,0,0,0c0.1-0.4-0.2-0.6-0.5-0.9
	c-0.6-0.7-1.2-1.3-1.9-1.9c-0.5-0.4-0.6-0.6,0-1.2c4.3-4.3,8.7-8.6,13-12.9c0.3-0.3,0.7-0.6,0.8-1c0.2,0.1,0.5,0.1,0.8,0
	c0.4-0.6,0.9-0.5,1.5-0.3c0.6,0,1.1-0.1,1.7-0.3c1.3-0.3,2.6-0.9,3.9,0.1c0,0,0.1,0,0.1,0c0.2-0.4,0.5-0.4,0.8-0.4
	c0-0.1,0.1-0.2,0-0.3c-0.7-0.7-0.3-1.1,0.3-1.6c3.8-3.4,7.6-6.7,11.5-10.1c0.6-0.5,1.4-0.9,1.7-1.8c0,0,0,0,0.1,0
	c1.4-0.6,2.3-2,3.6-2.8c-0.8,2.8-2.5,5-4.2,7.1c-0.3,0.4-0.6,0.7-0.8,1.1c-0.3,0.5-0.1,0.6,0.4,0.6c0.9-0.4,1.9-0.5,2.8-0.5
	c8.7,0,17.3,0,26,0c0.6,0,1.3,0.1,1.8-0.3C94,44.5,93.4,41.7,92.7,39z M28.1,73.7c0.8,0.9,1.8,1.6,2.4,2.6c0,0,0,0,0,0
	c-1.8,0-3.6-0.3-5.4-0.3c-0.5,0-1.1,0-1.5-0.3c-0.3-0.3,0.3-0.6,0.4-1c0.7,0.1,0.9-0.5,1.3-0.9C26.7,72.3,26.7,72.3,28.1,73.7z
	 M45.5,50c-0.6-0.7-1.3-1.4-2-2c-0.5-0.5-0.5-0.8,0-1.2c1.3-1.3,2.6-2.6,3.9-3.9c0.3-0.3,0.6-0.5,0.7-0.9c0.4,0,0.6-0.2,0.9-0.5
	c1.8-1.7,3.7-3.4,5.6-4.9c1.9-1.5,3.8-3.1,6.1-4.1c1.3-0.6,2.7-0.8,4.1,0.2c-0.8,0.3-1.4,0.7-1.9,1.2c-2.1,2.1-4.2,4.2-6.3,6.3
	c-0.3,0.3-0.6,0.5-0.7,1c0,0,0,0,0,0c-0.6-0.1-0.8,0.4-1.1,0.7c-2.7,2.6-5.3,5.3-8,8C46.3,50.5,46,50.6,45.5,50z M66.5,38.4
	c-0.9,0.7-1.8,1.5-2.7,2.3c-0.3,0.3-0.7,0.5-0.6,1c0,0,0,0-0.1,0c-0.4-0.2-0.6,0.1-0.8,0.3c-0.6,0.6-1.3,1.1-1.9,1.7
	c-3.6,3.2-7.2,6.3-10.7,9.4c-0.5,0.4-0.8,0.4-1.2,0c-0.2-0.2-0.4-0.5-0.7-0.7c-0.6-0.5-0.5-0.9,0-1.3c2.7-2.6,5.2-5.5,7.9-8.1
	c0.3-0.3,0.7-0.5,0.8-1c0,0,0,0,0.1,0.1c0.5,0,0.8-0.4,1.1-0.7c2-1.9,3.9-3.9,5.9-5.9c0.3-0.3,0.6-0.6,0.9-0.8
	c0.7-0.5,1.5-0.5,2.2-0.1c0.7,0.4,1,1.1,1,1.9C67.8,37.3,67.1,37.8,66.5,38.4z M75.3,23.4c-1.5,1.5-3,3-4.5,4.5c-1,1-1,1.4,0,2.4
	c1.1,1.1,2.2,2.2,3.3,3.3c0.5,0.5,0.4,0.8-0.2,0.9c-1.6,0.3-3.1,0.3-4.6-0.4c-3.7-1.8-5-6-3-9.6c0.2-0.3,0.4-0.7,0.4-1
	c0.4-0.1,0.7-0.4,1-0.7c2.7-2.1,6.1-2.1,8.4-0.1C75.9,22.9,75.6,23.1,75.3,23.4z"/>
<path class="st1" d="M56,41.3c-3,3-6.1,6-9.1,9c-0.6,0.6-0.9,0.7-1.5,0c-0.8-0.9-1.7-1.8-2.6-2.5c-0.4-0.3-0.3-0.5,0-0.7
	c1.8-1.7,3.5-3.5,5.3-5.2c2.1-1.8,4.1-3.7,6.2-5.4c1.9-1.6,3.9-3.2,6.2-4.2c1.6-0.7,3.2-0.8,4.9,0.6c-1.5,0.2-2.3,1.2-3.2,2.1
	C60.2,37.1,58.1,39.2,56,41.3z"/>
<path class="st1" d="M63.2,41.7c-2.7,2.4-5.5,4.7-8.2,7.1c-1.8,1.5-3.5,3.1-5.3,4.6c-0.4,0.4-0.7,0.4-1.2,0
	c-1.7-1.7-1.7-1.6-0.1-3.3c2.7-2.7,5.3-5.6,8.1-8.2c1.5-1.2,2.8-2.7,4.1-4c1.1-1.1,2.2-2.2,3.3-3.3c1-1,2.4-0.9,3.3,0
	c0.9,1,0.9,2.5-0.1,3.4C65.9,39.2,64.6,40.5,63.2,41.7z"/>
<path class="st1" d="M66.6,23.5c2.2-2.3,4.8-3.2,8-2.1c0.6,0.2,1.1,0.6,1.6,0.8c0.3,0.1,0.3,0.3,0.1,0.6c-1.9,1.9-3.8,3.8-5.7,5.7
	c-0.5,0.5-0.3,0.9,0.1,1.3c1.3,1.3,2.6,2.6,3.9,3.9c0.5,0.5,0.4,0.7-0.2,0.9c-2.7,1-5.9,0.1-7.7-2.3c-1.9-2.3-2.1-5.6-0.5-8.1
	C66.3,24,66.5,23.8,66.6,23.5z"/>
<path class="st1" d="M50.8,55.8c-1-1.1-1-1.2,0.2-2.2c4.3-3.8,8.7-7.6,13-11.4c0.1-0.1,0.2-0.2,0.3-0.3c1.3-1.1,2.6-2.2,4-3.4
	c-0.2,1.3-0.7,2.3-1.2,3.3c-1.1,2.2-2.8,4.1-4.3,6.1c-3,3.3-6.1,6.4-9.3,9.4c-0.4,0.4-0.7,0.5-1.1,0C52,56.8,51.4,56.3,50.8,55.8z"
	/>
<path class="st1" d="M79.2,27.9c-0.1,2.1-0.8,3.9-2.4,5.4c-0.4,0.4-0.8,0.4-1.2,0c-1.2-1.2-2.4-2.4-3.6-3.6c-0.5-0.4-0.4-0.7,0-1.1
	c1.6-1.6,3.2-3.2,4.8-4.8c0.4-0.5,0.7-0.4,1,0.1C78.7,25,79.1,26.4,79.2,27.9z"/>
<path class="st1" d="M30.7,74.7c-0.8-1.1-1.9-2-2.8-3c-0.3-0.3-0.4-0.5,0-0.9c4.7-4.6,9.3-9.3,13.9-13.9c0.1-0.1,0.3-0.2,0.4-0.3
	c0.3,0,0.6,0,0.8-0.2c0.4-0.3,0.8-0.3,1.2-0.2c1-0.2,2.1-0.3,3.1-0.6c1.1-0.3,2-0.3,2.7,0.7c0.6,0.6,1.1,1.2,1.7,1.8
	c0.5,0.4,0.5,0.7-0.1,1.1c-4,3.3-8.3,6.2-12.8,8.7c-1.9,1.1-3.9,2.1-5.8,3.1c-0.9,0.4-1.2,1-0.9,1.9c0.2,0.5,0.3,1,0.4,1.5
	c-0.1,0.4,0.2,0.7,0.2,1.1c0,0.3,0,0.6-0.3,0.7c-0.3,0.2-0.5,0-0.7-0.2C31.4,75.5,31,75.1,30.7,74.7z"/>
<path class="st2" d="M23.9,74.6c0.9-0.6,1.6-1.5,2.4-2.3c0.3-0.3,0.5-0.3,0.8,0c1.2,1.3,2.5,2.5,3.8,3.8c0.3,0.3,0.2,0.4-0.1,0.4
	c-1.8-0.1-3.6-0.2-5.4-0.2c-0.3,0-0.7-0.1-1-0.2c-0.5-0.2-1.2,0.2-1.4-0.4C22.8,75.3,23.5,75,23.9,74.6z"/>
<path class="st2" d="M41.8,48.1c1.1,1.1,2.1,2.2,3.2,3.4c-1.3,0.3-2.7,0.6-4,0.9C40,52.6,39,52.8,38,53c-0.2,0-0.5,0.2-0.7-0.1
	c-0.2-0.3,0.1-0.4,0.3-0.6C39,51,40.4,49.6,41.8,48.1z"/>
<path class="st3" d="M43.5,54.9c0.8-0.7,1.6-1.4,2.3-2.1c0.2-0.2,0.4-0.2,0.6,0c0.5,0.5,0.9,1,1.4,1.5c-0.5,0.5-1.2,0.4-1.8,0.5
	c-0.8,0.2-1.5,0.4-2.3,0.4C43.7,55.1,43.6,55,43.5,54.9z"/>
<path class="st0" d="M44.2,56.2c-0.4,0.2-0.8,0.3-1.2,0.2C43.2,55.9,43.4,55.9,44.2,56.2z"/>
<path class="st4" d="M77.8,28.1c0,0.9-0.2,1.4-0.6,1.9c-0.2,0.2-0.5,0.3-0.7,0.1c-0.3-0.2-0.4-0.5-0.1-0.8c0.3-0.5,0.5-1,0.2-1.6
	c-0.1-0.3-0.1-0.7,0.3-0.9c0.5-0.1,0.7,0.2,0.8,0.6C77.7,27.7,77.8,28,77.8,28.1z"/>
</svg>
