<?xml version="1.0" encoding="utf-8"?>
<!-- Generator: Adobe Illustrator 25.3.0, SVG Export Plug-In . SVG Version: 6.00 Build 0)  -->
<svg version="1.1" id="Calque_3" xmlns="http://www.w3.org/2000/svg" xmlns:xlink="http://www.w3.org/1999/xlink" x="0px" y="0px"
	 viewBox="0 0 100 100" style="enable-background:new 0 0 100 100;" xml:space="preserve">
<style type="text/css">
	.st0{fill:#BD608A;}
	.st1{fill:#FDFDFC;}
</style>
<circle class="st0" cx="50" cy="50" r="44.3"/>
<path class="st1" d="M75.9,21.5c-1.7-2-3.9-3.1-6.4-3.8c-5.4-1.6-10.8-1.2-16.2,0.2c-3.8,1-7.4,2.5-10.9,4.3
	c-4.5,2.2-8.7,4.8-12.4,8.1c-2.9,2.6-5.5,5.6-7.1,9.3c-1.3,2.9-1.4,5.7,0.2,8.5c0.7,1.2,1.5,2.3,2.4,3.4c2.3,2.5,4.9,4.5,7.7,6.5
	c2,1.4,4.1,2.7,6.1,4.4c-1.1,0.6-2.1,1.1-3.1,1.7c-3.1,1.8-6.1,3.7-8.6,6.4c-2.4,2.7-3.5,5.7-2.4,9.3c0.4,1.4,1.3,2.7,2.8,3.1
	c1.8,0.6,3.6,0.6,5.4,0.3c8.8-1.7,13.9-10.6,11.3-19.2c-0.2-0.7,0-0.8,0.5-0.9c2.3-0.4,4.5-0.4,6.8-0.1c2.1,0.3,4.1,1,5.8,2.4
	c2.6,2.2,3.9,6.4-0.3,8.8c-0.2,0.1-0.5,0.3-0.4,0.6c0.2,0.4,0.5,0.3,0.8,0.2c1.7-0.6,3-1.7,3.7-3.4c0.9-2.3,0.4-4.4-0.8-6.4
	c-1.7-2.8-4.3-4.4-7.4-5c-3.4-0.7-6.8-0.4-10.1,0.4c-0.3,0.1-0.5,0.1-0.8-0.1c-1.7-1.8-3.7-3.3-5.6-4.8c-2-1.6-4.1-3.1-5.7-5.1
	c-2.1-2.4-3-5.2-2.1-8.4c0.6-2.4,2-4.4,3.7-6.3c2.5-2.7,5.4-4.7,8.5-6.6c6.1-3.6,12.4-6.5,19.5-7.2c3-0.3,6-0.2,8.9,1
	c2.5,1,3.6,2.6,3.6,5.3c-0.1,2.3-1.1,4.3-2.4,6.1c-2.4,3.2-5.4,5.5-9.1,7.2c-3.6,1.7-7.5,2.7-11.5,2.6c-2.6-0.1-5-0.8-6.8-2.8
	c-0.2-0.2-0.3-0.4-0.6-0.3c-0.3,0.1-0.3,0.4-0.3,0.7c0.1,0.7,0.4,1.3,0.9,1.8c1.4,1.7,3.3,2.7,5.4,3.2c3.1,0.6,6.2,0.5,9.3-0.1
	c4.1-0.8,8-2.1,11.4-4.6c3.9-3,6.9-6.6,8.1-11.5C78.4,27.4,78.2,24.2,75.9,21.5z M41.1,65c2.2,1.4,1.8,5.8-0.7,9.7
	c-2.6,3.9-6.4,6-8.6,4.5c-2.2-1.4-1.8-5.8,0.7-9.7C35,65.6,38.9,63.6,41.1,65z"/>
</svg>
