<?xml version="1.0" encoding="utf-8"?>
<!-- Generator: Adobe Illustrator 25.3.0, SVG Export Plug-In . SVG Version: 6.00 Build 0)  -->
<svg version="1.1" xmlns="http://www.w3.org/2000/svg" xmlns:xlink="http://www.w3.org/1999/xlink" x="0px" y="0px"
	 viewBox="0 0 100 100" style="enable-background:new 0 0 100 100;" xml:space="preserve">
<style type="text/css">
	.st0{display:none;}
	.st1{display:inline;fill:#60D9FA;}
	.st2{fill:#1AB1B9;}
	.st3{fill:#14C3B7;}
</style>
<g id="Calque_1" class="st0">
	<path class="st1" d="M93.4,40.5c-3.9-3.1-8.2-5.4-12.9-6.8c-2.3-0.7-2.6-1.8-2.1-3.9c0.6-2.8,1.1-5.7,1-8.9c0.2-2.4-0.2-5-1-7.5
		c-1.9-6.5-6.2-8.8-12.7-7.1c-5.7,1.5-10.3,5-14.6,8.8c-1.2,1-1.8,1.1-3,0c-4.1-3.7-8.6-6.9-14-8.6c-7-2.2-11.9,0.7-13.6,7.8
		c-1.3,5.3-0.8,10.6,0.3,15.8c0.5,2.2-0.2,2.9-2.1,3.6c-4.5,1.5-8.7,3.5-12.4,6.4c-7.1,5.6-7.1,12.8,0.2,18.2
		c3.6,2.7,7.6,4.8,11.9,6.1c2.4,0.7,3,1.7,2.5,4.2c-1,4.7-1.4,9.4-0.5,14.3c1.6,8.1,6.7,11.3,14.6,8.6c4.9-1.7,9.1-4.6,12.9-8.1
		c1.3-1.2,2.2-1.3,3.6-0.1c4.3,3.8,9,7.2,14.7,8.6c6.4,1.6,11.2-1.4,12.6-7.8c1.2-5.4,0.9-10.8-0.3-16.1c-0.4-2,0-2.8,1.9-3.4
		c5-1.6,9.7-3.9,13.7-7.4C99.8,52,99.6,45.4,93.4,40.5z M57.7,15.2c2.8-2,5.7-3.8,9.1-4.7c4-1.1,6.5,0.4,7.4,4.4
		c0.4,2,1.1,4,0.7,5.7c0,0.8,0,1.1,0,1.4c-0.1,9.4-0.4,9.6-9.4,8.2c-3.1-0.5-5.8-1.3-7.3-4.3c-0.4-0.8-1.2-1.5-1.7-2.2
		C52.7,18.9,52.7,18.9,57.7,15.2z M29.4,54.9c1.8,3.1,3.4,5.9,5.2,9c-0.7-0.1-1.1-0.1-1.5-0.1C25.7,62.3,25.6,62.2,29.4,54.9z
		 M34.2,34.9c-1.6,2.8-3.2,5.6-4.9,8.6c-0.4-0.9-0.7-1.4-0.9-2C26.1,35.4,27.2,34.2,34.2,34.9z M32.4,50.9c-0.6-1.2-0.6-2.3,0-3.5
		c2.1-4.2,4.5-8.2,7-12.2c0.8-1.3,1.8-1.8,3.3-1.8c4.6,0.1,9.2,0.1,13.8,0c1.4,0,2.3,0.5,3,1.7c2.6,4,5,8.1,7.2,12.4
		c0.5,1,0.7,1.8,0.1,2.9c-2.2,4.4-4.6,8.6-7.2,12.8c-0.6,0.9-1.3,1.5-2.5,1.6c-2.6,0.1-5.2,0.3-7.6,0.5c-2.6-0.2-5.1-0.4-7.6-0.5
		c-1.3,0-1.8-0.9-2.4-1.7C36.8,59.1,34.6,55,32.4,50.9z M64.8,34.9c2.4-0.6,4.4,0.4,6.4,0.7c1,0.1,1.3,0.8,0.9,1.8
		c-0.7,1.9-1.1,4-2.4,6C68,40.5,66.4,37.7,64.8,34.9z M69.5,55c0.2,0.1,0.3,0.2,0.3,0.3c3.7,9,4,7-5.4,8.7
		C66.2,60.8,67.9,57.9,69.5,55z M48.8,23.3c0.4-0.5,0.8-0.5,1.3,0c1.7,1.6,3.2,3.3,4.5,5.6c-3.5,0-6.7,0-10,0
		C45.3,26.4,47.3,25.1,48.8,23.3z M24.8,14.6c1.1-3.9,3.4-5.3,7.3-4.2c5,1.4,9.1,4.5,13,7.8c1.1,0.9,0.9,1.6,0,2.6
		c-2.1,2.3-4,4.8-6,7.2c-0.7,0.9-1.6,1.5-2.8,1.6c-2.9,0.3-5.8,0.6-8.6,1.4c-2.2,0.7-2.6-0.4-2.8-1.9c-0.3-2.7-1.2-5.3-0.7-7.9
		C23.9,18.9,24.3,16.7,24.8,14.6z M22.9,59.3c-0.4,1.2-0.9,1.9-2.2,1.4c-5-1.9-9.9-3.9-13.7-7.9c-1-1.1-1.8-2.3-1.7-3.9
		c0.1-2,1.3-3.5,2.8-4.7c3.7-3.2,8.1-5.1,12.6-6.7c1.4-0.5,1.8,0.1,2.2,1.2c1,3.1,2.1,6.1,3.3,9.1c0.4,1,0.4,1.7,0,2.7
		C25,53.5,23.9,56.4,22.9,59.3z M45.1,80c-3.2,2.9-6.6,5.4-10.6,7.1c-6.1,2.5-8.6,1.1-10-5.3c-0.3-1.5-0.4-3.1-0.5-4.6
		c0.1-2.9,0.7-5.8,1.2-8.6c0.2-1.2,0.5-1.7,2-1.4c3.1,0.7,6.3,1.1,9.5,1.5c1,0.1,1.7,0.7,2.3,1.4c1.9,2.6,3.8,5.2,6.2,7.4
		C46.2,78.4,46,79.1,45.1,80z M50.4,74.8c-0.5,0.6-1,0.7-1.6,0.1c-1.5-1.7-3.4-3.1-4.5-5.5c3.6,0,6.8,0,10.5,0
		C53.7,71.7,51.8,73,50.4,74.8z M74.3,83c-1.2,4.6-3.3,6-7.8,4.7c-4.9-1.5-8.9-4.4-12.6-7.8c-1.1-0.9-0.8-1.6,0-2.6
		c2.1-2.4,4.2-4.9,6.2-7.4c0.7-0.9,1.6-1.2,2.7-1.4c2.8-0.4,5.6-0.6,8.3-1.4c2.3-0.7,3,0.3,3.1,2.2c0.2,2.6,1,5.1,0.7,7.6
		C75,79.1,74.8,81.1,74.3,83z M92,53c-3.8,4-8.7,5.9-13.7,7.8c-1.4,0.5-1.8-0.3-2.2-1.4c-1.1-3-2.2-6-3.4-9c-0.3-0.8-0.3-1.5,0-2.4
		c1.2-3.1,2.3-6.2,3.5-9.3c0.3-0.9,0.6-1.5,1.8-1.1c5.1,1.8,10.1,3.9,14,7.8c1,1,1.9,2.2,1.8,3.8C93.8,50.7,93,51.9,92,53z"/>
	<circle class="st1" cx="49.5" cy="49.1" r="8"/>
</g>
<g id="Calque_2">
	<g>
		<path class="st2" d="M95.2,35.5c-5.7,3.8-13.2,3.3-18.5-1.8c-3-2.9-5.7-6.1-9.2-8.5c-2.1-1.9-4.6-3-7.2-3.9
			c-4.5-1.5-9.1-1.8-13.8-1.3c-6,0.7-11.2,2.8-15.2,7.4c-3.1,3.5-4.9,7.7-6,12.2c1.4-1.6,2.8-3.2,4.5-4.4c4.5-3.4,9.4-4.2,14.7-2.2
			c2.4,0.9,4.2,2.6,6,4.3c1.9,1.9,3.7,3.8,5.7,5.6l0,0v0c5.3,4.9,11.6,7.1,18.8,7.2c5.5,0.1,10.8-0.8,15.5-3.9
			c2-1.3,3.6-2.9,5.2-4.6c0-2.1,0-4.2,0-6.3C95.4,35.4,95.3,35.5,95.2,35.5z"/>
		<path class="st3" d="M75.1,60.9c-0.4,0.5-0.8,1-1.2,1.4c-3.7,4-8.1,6.5-13.7,5.9c-2.2-0.2-4.4-0.8-6.2-2.1c-2.8-2-5.1-4.6-7.5-6.9
			c-2.9-2.8-5.9-5.4-9.7-6.7c-0.2-0.3-0.6-0.3-0.9-0.5c-5.4-2-10.9-2.2-16.5-1.4C13.8,51.5,9,53.9,5.4,58.3
			c-0.2,0.3-0.5,0.5-0.5,0.9c0,1.9,0,3.9,0,6c0.3-0.2,0.4-0.2,0.5-0.3c5.7-3.7,12.3-3.3,17.6,1c1.6,1.3,2.9,2.8,4.5,4.1
			c2.5,2.8,5.4,5.4,8.7,7.2c3.3,1.8,6.9,3,10.7,3.1c0.2,0,0.6,0,0.8,0c1.7,0,3.4,0,5.1,0c0.4,0,0.7,0,1.1,0c3.6-0.2,7-1.2,10.1-2.9
			c6.2-3.5,9.4-9.2,11.3-15.8C75.3,61.3,75.5,61,75.1,60.9z"/>
	</g>
</g>
</svg>
