<svg id="Calque_1" data-name="Calque 1" xmlns="http://www.w3.org/2000/svg" viewBox="0 0 1402.5 1017.33"><defs><style>.cls-1{fill:none;stroke:#fff;stroke-miterlimit:10;}.cls-2{opacity:0.29;}.cls-3{fill:#f5f5f5;}</style></defs><circle class="cls-1" cx="1268" cy="434.14" r="5"/><g class="cls-2"><circle class="cls-3" cx="1268" cy="374.14" r="5"/></g><circle class="cls-1" cx="1268" cy="334.14" r="5"/><circle class="cls-3" cx="1268" cy="314.14" r="5"/><circle class="cls-3" cx="1288" cy="434.14" r="5"/><circle class="cls-1" cx="1288" cy="414.14" r="5"/><circle class="cls-3" cx="1288" cy="394.14" r="5"/><circle class="cls-3" cx="1288" cy="334.14" r="5"/><circle class="cls-1" cx="1288" cy="314.14" r="5"/><circle class="cls-3" cx="1288" cy="294.14" r="5"/><g class="cls-2"><circle class="cls-3" cx="1308" cy="414.14" r="5"/></g><circle class="cls-3" cx="1308" cy="374.14" r="5"/><circle class="cls-3" cx="1308" cy="354.14" r="5"/><circle class="cls-1" cx="1308" cy="294.14" r="5"/><g class="cls-2"><circle class="cls-3" cx="1308" cy="274.14" r="5"/></g><circle class="cls-1" cx="165" cy="845.5" r="5"/><g class="cls-2"><circle class="cls-3" cx="105" cy="845.5" r="5"/></g><circle class="cls-1" cx="65" cy="845.5" r="5"/><circle class="cls-3" cx="45" cy="845.5" r="5"/><circle class="cls-3" cx="165" cy="825.5" r="5"/><circle class="cls-1" cx="145" cy="825.5" r="5"/><circle class="cls-3" cx="125" cy="825.5" r="5"/><circle class="cls-3" cx="65" cy="825.5" r="5"/><circle class="cls-1" cx="45" cy="825.5" r="5"/><circle class="cls-3" cx="25" cy="825.5" r="5"/><g class="cls-2"><circle class="cls-3" cx="145" cy="805.5" r="5"/></g><circle class="cls-3" cx="105" cy="805.5" r="5"/><circle class="cls-3" cx="85" cy="805.5" r="5"/><circle class="cls-1" cx="25" cy="805.5" r="5"/><g class="cls-2"><circle class="cls-3" cx="5" cy="805.5" r="5"/></g><circle class="cls-1" cx="238" cy="5.5" r="5"/><g class="cls-2"><circle class="cls-3" cx="238" cy="65.5" r="5"/></g><circle class="cls-1" cx="238" cy="105.5" r="5"/><circle class="cls-3" cx="238" cy="125.5" r="5"/><circle class="cls-3" cx="218" cy="5.5" r="5"/><circle class="cls-1" cx="218" cy="25.5" r="5"/><circle class="cls-3" cx="218" cy="45.5" r="5"/><circle class="cls-3" cx="218" cy="105.5" r="5"/><circle class="cls-1" cx="218" cy="125.5" r="5"/><circle class="cls-3" cx="218" cy="145.5" r="5"/><g class="cls-2"><circle class="cls-3" cx="198" cy="25.5" r="5"/></g><circle class="cls-3" cx="198" cy="65.5" r="5"/><circle class="cls-3" cx="198" cy="85.5" r="5"/><circle class="cls-1" cx="198" cy="145.5" r="5"/><g class="cls-2"><circle class="cls-3" cx="198" cy="165.5" r="5"/></g><circle class="cls-1" cx="1397" cy="1011.83" r="5"/><circle class="cls-3" cx="1377" cy="1011.83" r="5"/><circle class="cls-3" cx="1397" cy="991.83" r="5"/><circle class="cls-1" cx="1377" cy="991.83" r="5"/></svg>