<svg xmlns="http://www.w3.org/2000/svg" viewBox="0 0 249.4 202"><defs><style>.cls-1{fill:none;}.cls-1,.cls-2,.cls-3{stroke:#0a6abf;stroke-miterlimit:10;stroke-width:2px;}.cls-2{fill:#f5f5f5;}.cls-3{fill:#0e0e0e;}</style></defs><g id="Calque_2" data-name="Calque 2"><g id="Rencontre"><path class="cls-1" d="M88.32,1C40.1,1,1,33.44,1,73.46c0,18.7,8.54,35.74,22.55,48.59L5.41,159.22a3.14,3.14,0,0,0,4.19,4.19L56,140.77a102.85,102.85,0,0,0,32.32,5.15c48.23,0,87.32-32.44,87.32-72.46S136.55,1,88.32,1Z"/><line class="cls-2" x1="129.47" y1="79.35" x2="34.02" y2="79.35"/><line class="cls-2" x1="129.47" y1="63.6" x2="81.74" y2="63.6"/><line class="cls-2" x1="69.39" y1="63.6" x2="34.02" y2="63.6"/><line class="cls-2" x1="69.39" y1="47.84" x2="34.02" y2="47.84"/><path class="cls-3" d="M161.08,38.26c48.23,0,87.32,32.44,87.32,72.46,0,18.7-8.54,35.74-22.55,48.59L244,196.48a3.13,3.13,0,0,1-4.19,4.19L193.4,178a102.85,102.85,0,0,1-32.32,5.15c-48.23,0-87.32-32.44-87.32-72.46S112.85,38.26,161.08,38.26Z"/><line class="cls-2" x1="113.36" y1="88.36" x2="208.8" y2="88.36"/><line class="cls-2" x1="113.36" y1="104.11" x2="161.08" y2="104.11"/><line class="cls-2" x1="173.44" y1="104.11" x2="208.8" y2="104.11"/><line class="cls-2" x1="113.36" y1="119.87" x2="148.72" y2="119.87"/></g></g></svg>