<svg xmlns="http://www.w3.org/2000/svg" xmlns:xlink="http://www.w3.org/1999/xlink" width="284" height="344" viewBox="0 0 284 344"><defs><linearGradient id="a" x1="297.89" y1="200.11" x2="120.11" y2="200.11" gradientUnits="userSpaceOnUse"><stop offset="0" stop-color="#0477bf"/><stop offset="1" stop-color="#6ab9d9"/></linearGradient><linearGradient id="c" x1="297.89" y1="200.04" x2="120.11" y2="200.04" xlink:href="#a"/><linearGradient id="d" x1="297.89" y1="200" x2="120.11" y2="200" xlink:href="#a"/><linearGradient id="f" x1="-4.87" y1="128.76" x2="293.23" y2="128.76" xlink:href="#a"/><linearGradient id="g" x1="-4.87" y1="300.16" x2="293.23" y2="300.16" xlink:href="#a"/><linearGradient id="h" x1="35.3" y1="283.42" x2="252.44" y2="283.42" xlink:href="#a"/><linearGradient id="i" x1="69.08" y1="268.34" x2="218.13" y2="268.34" xlink:href="#a"/></defs><path d="M147.7,177.4v4.7a2.6,2.6,0,0,1-2.6,2.6h-8.3a2.5,2.5,0,0,0-2.5,2.6v35.5a2.6,2.6,0,0,1-2.6,2.6h-7.2a2.6,2.6,0,0,1-2.5-2.6V187.3a2.6,2.6,0,0,0-2.6-2.6h-8.3a2.5,2.5,0,0,1-2.5-2.6v-4.7a2.6,2.6,0,0,1,2.5-2.6h34A2.6,2.6,0,0,1,147.7,177.4Z" transform="translate(-58 -28)" style="fill:url(#a)"/><path d="M166.2,187.3v5.1a2.5,2.5,0,0,0,2.5,2.5h11.4a2.6,2.6,0,0,1,2.5,2.6v4.4a2.5,2.5,0,0,1-2.5,2.5H168.7a2.6,2.6,0,0,0-2.5,2.6v6a2.5,2.5,0,0,0,2.5,2.5h13.6a2.6,2.6,0,0,1,2.5,2.6v4.7a2.6,2.6,0,0,1-2.5,2.6H156.4a2.6,2.6,0,0,1-2.6-2.6V177.4a2.6,2.6,0,0,1,2.6-2.6h25.9a2.6,2.6,0,0,1,2.5,2.6v4.7a2.5,2.5,0,0,1-2.5,2.6H168.7A2.5,2.5,0,0,0,166.2,187.3Z" transform="translate(-58 -28)" style="fill:url(#a)"/><path d="M225.9,190.7a10.3,10.3,0,0,0-3.6-3.6,12.3,12.3,0,0,0-6.3-1.6,11.5,11.5,0,0,0-9.2,4q-3.6,3.9-3.6,10.5c0,4.5,1.2,8,3.6,10.6a11.5,11.5,0,0,0,9.2,4,12.4,12.4,0,0,0,6.3-1.7,10.3,10.3,0,0,0,3.6-3.6,2.7,2.7,0,0,1,2.2-1.2h4.3a19.4,19.4,0,0,0,.3-16.1h-4.6A2.6,2.6,0,0,1,225.9,190.7Z" transform="translate(-58 -28)" style="fill:url(#c)"/><path d="M236.5,208.1h-4.1a19,19,0,1,1,.3-16.1h3.8a2.5,2.5,0,0,0,2.4-3.5,22.4,22.4,0,0,0-7.4-9.5c-4.2-3.2-9.4-4.7-15.4-4.7a27,27,0,0,0-13.1,3.2,22.8,22.8,0,0,0-9,9.2,26.5,26.5,0,0,0-3.3,13.3,26.9,26.9,0,0,0,3.3,13.4,23.2,23.2,0,0,0,9,9.1,27,27,0,0,0,13.1,3.2c6,0,11.2-1.5,15.4-4.7a21.5,21.5,0,0,0,7.4-9.4A2.5,2.5,0,0,0,236.5,208.1Z" transform="translate(-58 -28)" style="fill:url(#d)"/><path d="M291.4,177.4v45.4a2.6,2.6,0,0,1-2.5,2.6h-7.2a2.6,2.6,0,0,1-2.6-2.6V207.1a2.5,2.5,0,0,0-2.5-2.5H262.5a2.5,2.5,0,0,0-2.5,2.5v15.7a2.6,2.6,0,0,1-2.6,2.6h-7.2a2.6,2.6,0,0,1-2.5-2.6V177.4a2.6,2.6,0,0,1,2.5-2.6h7.2a2.6,2.6,0,0,1,2.6,2.6v14.7a2.5,2.5,0,0,0,2.5,2.5h14.1a2.5,2.5,0,0,0,2.5-2.5V177.4a2.6,2.6,0,0,1,2.6-2.6h7.2A2.6,2.6,0,0,1,291.4,177.4Z" transform="translate(-58 -28)" style="fill:url(#a)"/><polygon points="143 21 266 131 266 256.3 284 246 284 82 142 0 0 82 0 246 20 257.5 20 131 143 21" style="fill:url(#f)"/><polygon points="143 344 266 273 266 256.3 142 327.9 20 257.5 20 273 143 344" style="fill:url(#g)"/><polygon points="143 315.3 232.6 263.6 232.6 251.5 142.3 303.7 53.4 252.4 53.4 263.6 143 315.3" style="fill:url(#h)"/><polygon points="143 290.2 204.5 254.7 204.5 246.4 142.5 282.2 81.5 247 81.5 254.7 143 290.2" style="fill:url(#i)"/><line x1="121.5" y1="229.5" x2="161.5" y2="229.5" style="fill:none;stroke:#048abf;stroke-linecap:round;stroke-miterlimit:10;stroke-width:3.1622776601683795px"/><line x1="142" y1="107.5" x2="142" y2="67.5" style="fill:none;stroke:#048abf;stroke-linecap:round;stroke-miterlimit:10;stroke-width:3.1622776601683795px"/></svg>