<svg xmlns="http://www.w3.org/2000/svg" width="176.1" height="160.1" viewBox="0 0 176.1 160.1"><path d="M137.2,40c-2.5,1.5-15.8,31.4-22.2,42.6-19.8,35-29.6,54.5-37.7,54.6-10.1.2-11.2-17.2-30.8-43.7C33.8,76.4,22.8,70.8,13.4,67.3c-.1,0-.2.1-.1.2,11.4,11,22.4,15.2,33,44.5,13.5,37.4,15.1,66.2,24.6,67.1,5.7.5,12-5.5,32-46.7C120.7,95.2,140.8,37.8,137.2,40ZM83.3,153.1c-7.2,11.8-9.3,13.4-11,13.1s-2.5-9.3-5.5-21.1c-2.4-9.3-5.7-10.8-8.8-14.6a19.5,19.5,0,0,1,9.4,9.1c4.5,9,5,14,8.1,14.2s6-5.4,13-15.3c2.2-3.2,7.9-11.1,8.6-11.5S89.8,142.4,83.3,153.1Z" transform="translate(-12.9 -19.8)" style="fill:#191919;stroke:#f50057;stroke-miterlimit:10;stroke-width:0.75px"/><path d="M154.6,22.5c-7.8,12-29.1,48.3-19,89,10.8,43.6,51.8,69.1,53,68s-22-18.5-35-49C137.1,91.6,145.1,51,154.6,22.5Z" transform="translate(-12.9 -19.8)" style="fill:#191919;stroke:#f50057;stroke-miterlimit:10;stroke-width:0.75px"/></svg>