<svg xmlns="http://www.w3.org/2000/svg" xmlns:xlink="http://www.w3.org/1999/xlink" width="366.5" height="335.9" viewBox="0 0 366.5 335.9"><defs><linearGradient id="a" x1="302.79" y1="71.34" x2="-3.58" y2="76.08" gradientUnits="userSpaceOnUse"><stop offset="0" stop-color="#c8aa48"/><stop offset="1" stop-color="#bd930b"/></linearGradient><linearGradient id="b" x1="303.42" y1="112.37" x2="-2.95" y2="117.11" xlink:href="#a"/><linearGradient id="c" x1="303.42" y1="112.26" x2="-2.95" y2="117" xlink:href="#a"/><linearGradient id="d" x1="305.3" y1="233.67" x2="-1.07" y2="238.41" xlink:href="#a"/><linearGradient id="e" x1="304.06" y1="153.54" x2="-2.31" y2="158.28" xlink:href="#a"/><linearGradient id="f" x1="304.67" y1="192.63" x2="-1.7" y2="197.38" xlink:href="#a"/><linearGradient id="g" x1="304.67" y1="192.75" x2="-1.7" y2="197.49" xlink:href="#a"/><linearGradient id="h" x1="304.06" y1="153.74" x2="-2.31" y2="158.48" xlink:href="#a"/><linearGradient id="i" x1="305.3" y1="233.87" x2="-1.07" y2="238.61" xlink:href="#a"/><linearGradient id="j" x1="304.7" y1="194.78" x2="-1.67" y2="199.52" xlink:href="#a"/><linearGradient id="k" x1="304.7" y1="194.66" x2="-1.67" y2="199.4" xlink:href="#a"/><linearGradient id="l" x1="305.27" y1="231.8" x2="-1.1" y2="236.54" xlink:href="#a"/><linearGradient id="m" x1="306.51" y1="311.93" x2="0.14" y2="316.67" xlink:href="#a"/><linearGradient id="n" x1="305.91" y1="272.83" x2="-0.46" y2="277.58" xlink:href="#a"/><linearGradient id="o" x1="305.91" y1="272.72" x2="-0.47" y2="277.46" xlink:href="#a"/><linearGradient id="p" x1="304.03" y1="151.47" x2="-2.34" y2="156.21" xlink:href="#a"/></defs><path d="M86.3,72.9,28.5,39.5a3.2,3.2,0,0,0-4.8,2.8V109a3.2,3.2,0,0,0,4.8,2.7L86.3,78.4A3.2,3.2,0,0,0,86.3,72.9Z" transform="translate(-16.5 -25.7)" style="fill:url(#a)"/><path d="M155.2,112.8,97.4,79.5a3.1,3.1,0,0,0-4.7,2.7v66.7a3.1,3.1,0,0,0,4.7,2.8l57.8-33.4A3.2,3.2,0,0,0,155.2,112.8Z" transform="translate(-16.5 -25.7)" style="fill:url(#b)"/><path d="M29,112.8,86.8,79.5a3.2,3.2,0,0,1,4.8,2.7v66.7a3.2,3.2,0,0,1-4.8,2.8L29,118.3A3.2,3.2,0,0,1,29,112.8Z" transform="translate(-16.5 -25.7)" style="fill:url(#c)"/><path d="M98.3,238.7l57.8,33.4a3.1,3.1,0,0,0,4.7-2.8V202.6a3.1,3.1,0,0,0-4.7-2.7L98.3,233.2A3.2,3.2,0,0,0,98.3,238.7Z" transform="translate(-16.5 -25.7)" style="fill:url(#d)"/><path d="M97.4,158.6l57.8,33.3a3.1,3.1,0,0,0,4.7-2.7V122.5a3.1,3.1,0,0,0-4.7-2.8L97.4,153.1A3.2,3.2,0,0,0,97.4,158.6Z" transform="translate(-16.5 -25.7)" style="fill:url(#e)"/><path d="M29,198.7l57.8,33.4a3.2,3.2,0,0,0,4.8-2.8V162.6a3.2,3.2,0,0,0-4.8-2.7L29,193.2A3.2,3.2,0,0,0,29,198.7Z" transform="translate(-16.5 -25.7)" style="fill:url(#f)"/><path d="M155.2,198.7,97.4,232.1a3.1,3.1,0,0,1-4.7-2.8V162.6a3.1,3.1,0,0,1,4.7-2.7l57.8,33.3A3.2,3.2,0,0,1,155.2,198.7Z" transform="translate(-16.5 -25.7)" style="fill:url(#g)"/><path d="M223.6,153.1l-57.7-33.3a3.2,3.2,0,0,0-4.8,2.8v66.7a3.2,3.2,0,0,0,4.8,2.7l57.7-33.3A3.2,3.2,0,0,0,223.6,153.1Z" transform="translate(-16.5 -25.7)" style="fill:url(#h)"/><path d="M224.5,233.3l-57.7-33.4a3.2,3.2,0,0,0-4.8,2.8v66.7a3.2,3.2,0,0,0,4.8,2.7l57.7-33.3A3.1,3.1,0,0,0,224.5,233.3Z" transform="translate(-16.5 -25.7)" style="fill:url(#i)"/><path d="M292.9,193.1l-57.7-33.3a3.2,3.2,0,0,0-4.8,2.7v66.7a3.2,3.2,0,0,0,4.8,2.8l57.7-33.4A3.2,3.2,0,0,0,292.9,193.1Z" transform="translate(-16.5 -25.7)" style="fill:url(#j)"/><path d="M166.7,193.1l57.8-33.3a3.2,3.2,0,0,1,4.8,2.7v66.7a3.2,3.2,0,0,1-4.8,2.8l-57.8-33.4A3.2,3.2,0,0,1,166.7,193.1Z" transform="translate(-16.5 -25.7)" style="fill:url(#k)"/><path d="M86.3,233.4,28.5,200a3.2,3.2,0,0,0-4.8,2.8v66.7a3.2,3.2,0,0,0,4.8,2.7l57.8-33.3A3.2,3.2,0,0,0,86.3,233.4Z" transform="translate(-16.5 -25.7)" style="fill:url(#l)"/><path d="M87.2,313.5,29.4,280.1a3.2,3.2,0,0,0-4.8,2.8v66.7a3.2,3.2,0,0,0,4.8,2.7L87.2,319A3.2,3.2,0,0,0,87.2,313.5Z" transform="translate(-16.5 -25.7)" style="fill:url(#m)"/><path d="M155.6,273.3,97.8,240a3.2,3.2,0,0,0-4.8,2.7v66.7a3.2,3.2,0,0,0,4.8,2.8l57.8-33.4A3.2,3.2,0,0,0,155.6,273.3Z" transform="translate(-16.5 -25.7)" style="fill:url(#n)"/><path d="M29.4,273.3,87.1,240a3.2,3.2,0,0,1,4.8,2.7v66.7a3.2,3.2,0,0,1-4.8,2.8L29.4,278.8A3.2,3.2,0,0,1,29.4,273.3Z" transform="translate(-16.5 -25.7)" style="fill:url(#o)"/><path d="M86.8,153,29.1,119.6a3.2,3.2,0,0,0-4.8,2.8v66.7a3.2,3.2,0,0,0,4.8,2.7l57.7-33.3A3.2,3.2,0,0,0,86.8,153Z" transform="translate(-16.5 -25.7)" style="fill:url(#p)"/><path d="M307.7,193.3,18.4,26.3a.9.9,0,0,0-1.4.8v334" transform="translate(-16.5 -25.7)" style="fill:none;stroke:#8a6b08;stroke-linecap:round;stroke-miterlimit:10"/><path d="M133,299.9v-.3l15.3-8.9,6.9,2.7,7.2,2.6,22.4,7.2,6.8,2.2,6.2,1.6-2-4-1.9-3.5-7.6-13.2a110.2,110.2,0,0,0-7.5-11.3l-8.1,3.2v-.3l18.1-10.5.2.3-6.7,5.5a85,85,0,0,0,5.7,11.2L207,317.8l-.3.2c-5.4-2.2-10.6-4.1-15.6-5.8l-30.6-10c-4.5-1.3-8.2-2.3-11.1-2.9a72.5,72.5,0,0,0,4,7.9l11.1,19.3a87.2,87.2,0,0,0,6,8.9l8.4-3.3v.3L160.5,343l-.2-.3,6.9-5.3a56.9,56.9,0,0,0-3.1-6.6c-1.4-2.7-2.8-5.2-4-7.3l-8.6-14.9c-1-1.8-2.1-3.5-3.1-5.2l-3.3-5-5.8-.6Zm9.6-4.4L203,315.1l-1.6-2.9L145.2,294Z" transform="translate(-16.5 -25.7)" style="fill:#fff"/><path d="M250.9,290.9l-23,13.3-.2-.3,6.8-5.4c-1.2-2.8-2.7-6-4.6-9.7s-3.8-7.2-5.8-10.6l-2.9-5.2a152.1,152.1,0,0,0-10.7-16.4l-8.2,3.3-.2-.3,23-13.3.2.3-7,5.5c.9,2.1,1.8,3.9,2.6,5.6s1.9,3.6,3.1,5.9,2.4,4.5,3.5,6.5l3.9,6.7c.7,1.3,2,3.3,3.7,6s3.2,5.1,4.5,6.9,2.2,3.3,2.9,4.2l8.2-3.3Zm-38.8-35.5,24.4,42.2,2.1-1.2-24.4-42.2Z" transform="translate(-16.5 -25.7)" style="fill:#8a6b08"/><path d="M238.5,239l-.2-.3,15.4-8.9,6.8,2.8,7.2,2.5,22.4,7.3,6.8,2.1,6.2,1.7c-.7-1.5-1.3-2.8-2-4.1l-1.9-3.5-7.6-13.1a95.8,95.8,0,0,0-7.5-11.3l-8,3.1-.2-.3L294,206.6l.2.3-6.7,5.4a85.2,85.2,0,0,0,5.7,11.3l19.2,33.3-.3.2c-5.3-2.1-10.5-4.1-15.6-5.7l-30.6-10q-6.7-2.1-11.1-3a85.1,85.1,0,0,0,4,8L270,265.7a79.4,79.4,0,0,0,5.9,8.8l8.4-3.3v.3l-18.5,10.7v-.3l6.8-5.4a50,50,0,0,0-3.1-6.5c-1.4-2.8-2.7-5.2-4-7.4l-8.6-14.9c-1-1.7-2-3.5-3.1-5.2l-3.3-4.9-5.8-.7Zm9.5-4.4,60.4,19.6-1.6-2.8-56.2-18.3Z" transform="translate(-16.5 -25.7)" style="fill:#fff"/><path d="M332.8,183.5l31.4,23.9a122.5,122.5,0,0,0,13,8.7l5.6-1.8.2.3L361.5,227l-.2-.3,7.7-5.9a47.5,47.5,0,0,0-5.5-5.5,37.9,37.9,0,0,0-6.2-4.6l-19.1,11c.3,2.5.7,4.6.9,6.2s.6,3.2,1,4.9a21.4,21.4,0,0,0,1.1,4.1l8.6-3.5.2.3-17,9.8-.2-.3,5-4.3a70.7,70.7,0,0,0-.8-10l-6.6-44Zm1.7,10.5c.1,1.3.3,3.3.6,5.9s.6,5,.9,7.3.6,4.6,1,7,.7,4.2.8,5a41.7,41.7,0,0,0,4.4-2.1l4.6-2.5c3.5-2.1,6.3-3.9,8.5-5.5q-3.2-2.7-9.6-7.5A132.3,132.3,0,0,0,334.5,194Zm-1-2.9,37.7,28.7,2-1.1L333.1,188Z" transform="translate(-16.5 -25.7)" style="fill:#8a6b08"/><polygon points="113.1 303.5 92.7 303.5 102.9 321.2 113.1 303.5" style="fill:#8a6b08"/><line x1="100.8" y1="325.4" x2="88" y2="303.1" style="fill:none;stroke:#fff;stroke-linecap:round;stroke-miterlimit:10;stroke-width:0.9142998870139226px"/></svg>