<svg xmlns="http://www.w3.org/2000/svg" width="268.4" height="258.9" viewBox="0 0 268.4 258.9"><path d="M238.8,183.4c-22.4-21.5-44.2-43.6-63.4-68-6.8-9.4-29.7-37.9-4.9-38.7,22.4,0,56.7,17,64.9,38.8,4.1,10,1.3,21.2-4.5,29.9a42.2,42.2,0,0,0,4.9-14.5c3.9-28.9-41-50.3-65.1-50.4-4.7.3-8.7,1-7.3,6.7,2.7,9.6,9.3,17.8,15,25.9,18.7,24.6,39.8,47.2,60.4,70.3Z" transform="translate(-66.9 -71.3)" style="fill:#1f92bf"/><path d="M161.2,157.5c22.4,21.4,44.2,43.5,63.4,68,6.8,9.3,29.7,37.8,4.9,38.6-22.4,0-56.7-17-64.9-38.7-4.1-10.1-1.3-21.3,4.5-30a42.9,42.9,0,0,0-4.9,14.5c-3.9,28.9,41,50.3,65.1,50.4,4.7-.3,8.7-1,7.3-6.7-2.7-9.6-9.3-17.8-15-25.9-18.7-24.6-39.8-47.2-60.4-70.2Z" transform="translate(-66.9 -71.3)" style="fill:#1f92bf"/><path d="M234,72c-3.7,7.9-2,18,4.6,23.9a21,21,0,0,0,7.4,4.6c-8.5-2.8-15-11.1-14.8-20.2a26.5,26.5,0,0,1,1.8-8.7.7.7,0,0,1,.8-.3.4.4,0,0,1,.2.7Z" transform="translate(-66.9 -71.3)" style="fill:#1f92bf"/><path d="M166,268.8c3.7-7.9,2-18-4.6-23.9a21,21,0,0,0-7.4-4.6c8.5,2.8,15,11.1,14.8,20.2a26,26,0,0,1-1.8,8.7.7.7,0,0,1-.8.3.4.4,0,0,1-.2-.7Z" transform="translate(-66.9 -71.3)" style="fill:#1f92bf"/><path d="M187.1,209.2c21.4-22.4,43.5-44.2,67.9-63.4,9.4-6.8,37.9-29.7,38.7-4.9,0,22.4-17,56.7-38.8,64.9-10,4.1-21.2,1.3-29.9-4.5a42.9,42.9,0,0,0,14.5,4.9c28.9,3.9,50.3-41,50.4-65.1-.3-4.7-1-8.7-6.7-7.3-9.6,2.7-17.8,9.3-25.9,15-24.6,18.7-47.2,39.8-70.2,60.4Z" transform="translate(-66.9 -71.3)" style="fill:#1f92bf"/><path d="M212.9,131.6C191.5,154,169.4,175.8,145,195c-9.4,6.8-37.9,29.7-38.7,4.9,0-22.4,17-56.7,38.8-64.9,10-4.1,21.2-1.3,29.9,4.5a42.9,42.9,0,0,0-14.5-4.9c-28.9-3.9-50.3,41-50.4,65.2.3,4.6,1,8.6,6.7,7.2,9.6-2.7,17.8-9.3,25.9-15,24.6-18.6,47.2-39.8,70.2-60.4Z" transform="translate(-66.9 -71.3)" style="fill:#1f92bf"/><path d="M298.4,204.4c-7.9-3.7-18-2-23.9,4.6a21,21,0,0,0-4.6,7.4c2.8-8.5,11.1-15,20.2-14.8a26.5,26.5,0,0,1,8.7,1.8.7.7,0,0,1,.3.8.4.4,0,0,1-.7.2Z" transform="translate(-66.9 -71.3)" style="fill:#1f92bf"/><path d="M101.6,136.4c7.9,3.7,18,2,23.9-4.6a21,21,0,0,0,4.6-7.4c-2.8,8.5-11.1,15-20.2,14.8a24.2,24.2,0,0,1-8.7-1.8.7.7,0,0,1-.3-.8c.1-.2.5-.4.7-.2Z" transform="translate(-66.9 -71.3)" style="fill:#1f92bf"/><rect x="195.3" y="165.7" width="9.4" height="9.44" transform="translate(-128.8 120.1) rotate(-45)" style="fill:#f2e7dc;stroke:#f2e7dc;stroke-linecap:round;stroke-miterlimit:10;stroke-width:1.3061237084956758px"/><text transform="translate(3.3 248.2)" style="font-size:53px;fill:#f2e7dc;stroke:#1f92bf;stroke-miterlimit:10;stroke-width:0.25px;font-family:SquaredDisplay, Squared Display;letter-spacing:0.09999631485849056em">LIGHTNESS</text></svg>