<svg xmlns="http://www.w3.org/2000/svg" width="335.5" height="332.7" viewBox="0 0 335.5 332.7"><path d="M212.8,46.5a35.2,35.2,0,0,0-39.3-12.7L47.4,74.7a35.2,35.2,0,0,0-24.2,33.4V240.7a35.2,35.2,0,0,0,24.2,33.4" transform="translate(-18.2 -27)" style="fill:none;stroke:#f9f871;stroke-miterlimit:10;stroke-width:10px;opacity:0.33"/><path d="M347,179.4l-7.3-10-22,35,19.6,29.5,9.7-13.3A35.1,35.1,0,0,0,347,179.4Z" transform="translate(-18.2 -27)" style="fill:#f9f871"/><path d="M147.5,162.6c-11.3,0-20.4,3.7-27.1,11s-10.1,17.3-10.1,29.8,3.4,22.3,10.1,29.7,15.8,11.1,27.1,11.1,20.2-3.7,26.9-11.2,10.1-17.3,10.1-29.6-3.4-22.3-10.1-29.7S158.7,162.6,147.5,162.6Z" transform="translate(-18.2 -27)" style="fill:#f9f871"/><path d="M295.7,231l-25.2,43H231.7l45-71.4-46-69h39.8L298.7,176l20.4-34.9L256.4,54.7a35.3,35.3,0,0,0-39.2-12.8L70.6,89.6a35,35,0,0,0-24.3,33.3V277.1a35,35,0,0,0,24.3,33.3l146.6,47.7a35.3,35.3,0,0,0,39.2-12.8l60.2-82.9Zm-86,9.5a68.3,68.3,0,0,1-26,25.7,76,76,0,0,1-72.5,0A68.8,68.8,0,0,1,85,240.5c-6.5-11-9.7-23.4-9.7-37.1s3.2-26.1,9.7-37a69.2,69.2,0,0,1,26.2-25.6,76.2,76.2,0,0,1,72.6,0,67.3,67.3,0,0,1,26,25.6c6.3,10.9,9.5,23.3,9.5,37A72.5,72.5,0,0,1,209.7,240.5Z" transform="translate(-18.2 -27)" style="fill:#f9f871"/></svg>