<?xml version="1.0" encoding="utf-8"?>
<!-- Generator: Adobe Illustrator 26.0.0, SVG Export Plug-In . SVG Version: 6.00 Build 0)  -->
<svg version="1.1" id="Layer_1" xmlns="http://www.w3.org/2000/svg" xmlns:xlink="http://www.w3.org/1999/xlink" x="0px" y="0px"
	 viewBox="0 0 683 546" style="enable-background:new 0 0 683 546;" xml:space="preserve">
<style type="text/css">
	.st0{opacity:0.25;}
	.st1{fill:#0785F2;}
	.st2{fill:#0A6ABF;}
	.st3{fill:#FFFFFF;}
	.st4{fill:none;stroke:#0785F2;stroke-width:0.5;stroke-miterlimit:10;}
	.st5{fill:none;stroke:#0785F2;stroke-width:5;stroke-linecap:round;stroke-miterlimit:10;}
	.st6{fill:none;stroke:#BF04B3;stroke-width:5;stroke-linecap:round;stroke-miterlimit:10;}
	.st7{fill:none;stroke:#0785F2;stroke-width:9;stroke-linecap:round;stroke-miterlimit:10;}
	.st8{fill:none;stroke:#7328F7;stroke-width:5;stroke-linecap:round;stroke-miterlimit:10;}
	.st9{fill:url(#SVGID_1_);}
	.st10{fill:none;stroke:#0785F2;stroke-miterlimit:10;}
	.st11{opacity:0.4;}
	.st12{fill:none;stroke:#0785F2;stroke-width:10;stroke-linecap:round;stroke-miterlimit:10;}
	.st13{fill:none;stroke:#0785F2;stroke-width:2;stroke-miterlimit:10;}
	.st14{fill:none;stroke:#0785F2;stroke-width:2;stroke-miterlimit:10;stroke-dasharray:9.21,9.21;}
	.st15{fill:none;stroke:#0785F2;stroke-width:2;stroke-miterlimit:10;stroke-dasharray:11.23,11.23;}
	.st16{font-family:'Poppins-Medium';}
	.st17{font-size:36px;}
</style>
<g>
	<g id="Calque_2">
		<g id="WebPage">
			<g class="st0">
				
					<image style="overflow:visible;opacity:0.5;enable-background:new    ;" width="437" height="274" xlink:href="43B036D.png"  transform="matrix(1 0 0 1 117.99 272)">
				</image>
				<path class="st1" d="M147.9,271.1h397.2c6,0,10.8,4.8,10.8,10.8v233.8c0,6-4.8,10.8-10.8,10.8H147.9c-6,0-10.8-4.8-10.8-10.8
					V281.9C137.1,276,141.9,271.1,147.9,271.1z"/>
			</g>
			<g class="st0">
				
					<image style="overflow:visible;opacity:0.4;enable-background:new    ;" width="359" height="264" xlink:href="43B036F.png"  transform="matrix(1 0 0 1 130.99 265)">
				</image>
				<path class="st1" d="M137.1,517V282.1c0-5.8,4.7-10.5,10.5-10.5H478"/>
			</g>
			
				<image style="overflow:visible;opacity:0.6;enable-background:new    ;" width="431" height="51" xlink:href="43B036A.png"  transform="matrix(1 0 0 1 130.99 270)">
			</image>
			<path class="st2" d="M555.9,310H137.1v-27.1c0-6.5,5.3-11.7,11.7-11.7l0,0h395.4c6.4,0,11.7,5.2,11.7,11.7V310z"/>
			
				<image style="overflow:visible;opacity:0.4;enable-background:new    ;" width="250" height="30" xlink:href="43B036B.png"  transform="matrix(1 0 0 1 149.99 279)">
			</image>
			<path class="st3" d="M162,285.3h219.5c3,0,5.4,2.4,5.4,5.4v0c0,3-2.4,5.4-5.4,5.4H162c-3,0-5.4-2.4-5.4-5.4v0
				C156.6,287.7,159,285.3,162,285.3z"/>
			<path class="st4" d="M162,285.3h219.5c3,0,5.4,2.4,5.4,5.4v0c0,3-2.4,5.4-5.4,5.4H162c-3,0-5.4-2.4-5.4-5.4v0
				C156.6,287.7,159,285.3,162,285.3z"/>
			
				<image style="overflow:visible;opacity:0.4;enable-background:new    ;" width="85" height="30" xlink:href="43B0375.png"  transform="matrix(1 0 0 1 396.99 279)">
			</image>
			<path class="st3" d="M409.4,285.3h54.5c3,0,5.4,2.4,5.4,5.4v0c0,3-2.4,5.4-5.4,5.4h-54.5c-3,0-5.4-2.4-5.4-5.4v0
				C403.9,287.7,406.4,285.3,409.4,285.3z"/>
			<path class="st4" d="M409.4,285.3h54.5c3,0,5.4,2.4,5.4,5.4v0c0,3-2.4,5.4-5.4,5.4h-54.5c-3,0-5.4-2.4-5.4-5.4v0
				C403.9,287.7,406.4,285.3,409.4,285.3z"/>
			
				<image style="overflow:visible;opacity:0.4;enable-background:new    ;" width="31" height="30" xlink:href="43B0377.png"  transform="matrix(1 0 0 1 514.99 279)">
			</image>
			<ellipse class="st1" cx="527.6" cy="290.8" rx="5.9" ry="5.5"/>
			
				<image style="overflow:visible;opacity:0.4;enable-background:new    ;" width="31" height="30" xlink:href="43B037A.png"  transform="matrix(1 0 0 1 497.99 279)">
			</image>
			<ellipse class="st1" cx="510.4" cy="290.8" rx="5.9" ry="5.5"/>
			
				<image style="overflow:visible;opacity:0.4;enable-background:new    ;" width="31" height="30" xlink:href="43B037B.png"  transform="matrix(1 0 0 1 480.99 279)">
			</image>
			<ellipse class="st1" cx="493.2" cy="290.8" rx="5.9" ry="5.5"/>
			
				<image style="overflow:visible;opacity:0.6;enable-background:new    ;" width="149" height="53" xlink:href="43B037D.png"  transform="matrix(1 0 0 1 366.99 454)">
			</image>
			<line class="st5" x1="455.1" y1="461.4" x2="489.5" y2="461.4"/>
			<line class="st6" x1="442.1" y1="461.4" x2="373.5" y2="461.4"/>
			<line class="st5" x1="373.5" y1="474" x2="407.8" y2="474"/>
			<line class="st5" x1="420.8" y1="474" x2="455.1" y2="474"/>
			<line class="st5" x1="470.3" y1="474" x2="494.1" y2="474"/>
			<line class="st5" x1="470.3" y1="485.1" x2="504.6" y2="485.1"/>
			<line class="st5" x1="436" y1="496.2" x2="487.5" y2="496.2"/>
			<line class="st5" x1="373.5" y1="485.1" x2="456.8" y2="485.1"/>
			<line class="st5" x1="373.5" y1="496.2" x2="425.1" y2="496.2"/>
			
				<image style="overflow:visible;opacity:0.6;enable-background:new    ;" width="162" height="154" xlink:href="9C877EC6.png"  transform="matrix(1 0 0 1 157.99 342)">
			</image>
			<line class="st7" x1="167.4" y1="350.8" x2="264" y2="350.8"/>
			<line class="st8" x1="167.4" y1="373.6" x2="258.6" y2="373.6"/>
			<line class="st5" x1="237.8" y1="449.6" x2="309.1" y2="449.6"/>
			<line class="st5" x1="237.8" y1="461.4" x2="290.8" y2="461.4"/>
			<line class="st5" x1="237.8" y1="473.3" x2="283.8" y2="473.3"/>
			<line class="st5" x1="237.8" y1="485.1" x2="265.4" y2="485.1"/>
			<line class="st5" x1="273.6" y1="485.1" x2="301.2" y2="485.1"/>
			<line class="st5" x1="292.9" y1="473.3" x2="304.5" y2="473.3"/>
			<line class="st5" x1="270" y1="373.6" x2="297" y2="373.6"/>
			<line class="st5" x1="249" y1="386.2" x2="283.4" y2="386.2"/>
			<line class="st5" x1="236" y1="386.2" x2="167.4" y2="386.2"/>
			<line class="st5" x1="167.4" y1="398.8" x2="307.5" y2="398.8"/>
			
				<image style="overflow:visible;opacity:0.4;enable-background:new    ;" width="181" height="116" xlink:href="9C877EC1.png"  transform="matrix(1 0 0 1 352.99 328)">
			</image>
			
				<linearGradient id="SVGID_1_" gradientUnits="userSpaceOnUse" x1="479.5072" y1="97.1163" x2="401.1328" y2="232.8637" gradientTransform="matrix(1 0 0 -1 0 548)">
				<stop  offset="0" style="stop-color:#0785F2"/>
				<stop  offset="0.68" style="stop-color:#4F47F5"/>
				<stop  offset="1" style="stop-color:#7328F7"/>
			</linearGradient>
			<path class="st9" d="M370,334.7h140.6c5.6,0,10.1,4.5,10.1,10.1v76.4c0,5.6-4.5,10.1-10.1,10.1H370c-5.6,0-10.1-4.5-10.1-10.1
				v-76.4C359.9,339.2,364.4,334.7,370,334.7z"/>
			<path class="st10" d="M370,334.7h140.6c5.6,0,10.1,4.5,10.1,10.1v76.4c0,5.6-4.5,10.1-10.1,10.1H370c-5.6,0-10.1-4.5-10.1-10.1
				v-76.4C359.9,339.2,364.4,334.7,370,334.7z"/>
			<g class="st11">
				
					<image style="overflow:visible;opacity:0.6;enable-background:new    ;" width="73" height="74" xlink:href="9C877EC2.png"  transform="matrix(1 0 0 1 408.99 351)">
				</image>
				<circle class="st1" cx="440.3" cy="383" r="30"/>
			</g>
			<path class="st3" d="M455.3,380.8l-20.5-11.8c-1.2-0.7-2.8-0.3-3.5,0.9c-0.2,0.4-0.3,0.8-0.3,1.3v23.7c0,1.4,1.2,2.6,2.6,2.6
				c0.5,0,0.9-0.1,1.3-0.3l20.5-11.9c1.2-0.7,1.7-2.3,1-3.5C456,381.3,455.7,381,455.3,380.8z"/>
		</g>
		<path class="st12" d="M236,427.9"/>
		
			<image style="overflow:visible;opacity:0.6;enable-background:new    ;" width="65" height="53" xlink:href="9C877EC0.png"  transform="matrix(1 0 0 1 163.99 443)">
		</image>
		<polyline class="st13" points="222.1,484.2 222.1,489.2 217.1,489.2 		"/>
		<line class="st14" x1="207.9" y1="489.2" x2="175.7" y2="489.2"/>
		<polyline class="st13" points="171.1,489.2 166.1,489.2 166.1,484.2 		"/>
		<line class="st15" x1="166.1" y1="473" x2="166.1" y2="456.1"/>
		<polyline class="st13" points="166.1,450.5 166.1,445.5 171.1,445.5 		"/>
		<line class="st14" x1="180.3" y1="445.5" x2="212.5" y2="445.5"/>
		<polyline class="st13" points="217.1,445.5 222.1,445.5 222.1,450.5 		"/>
		<line class="st15" x1="222.1" y1="461.7" x2="222.1" y2="478.6"/>
		<text transform="matrix(1 0 0 1 169.35 480.65)" class="st1 st16 st17">Aa</text>
	</g>
</g>
</svg>
