<?xml version="1.0" encoding="utf-8"?>
<!-- Generator: Adobe Illustrator 26.0.0, SVG Export Plug-In . SVG Version: 6.00 Build 0)  -->
<svg version="1.1" id="Layer_1" xmlns="http://www.w3.org/2000/svg" xmlns:xlink="http://www.w3.org/1999/xlink" x="0px" y="0px"
	 viewBox="0 0 683 546" style="enable-background:new 0 0 683 546;" xml:space="preserve">
<style type="text/css">
	.st0{opacity:0.25;}
	.st1{fill:#0785F2;}
	.st2{fill:#0A6ABF;}
	.st3{fill:#FFFFFF;}
	.st4{fill:none;stroke:#0785F2;stroke-width:0.5;stroke-miterlimit:10;}
	.st5{fill:none;stroke:#0785F2;stroke-width:5;stroke-linecap:round;stroke-miterlimit:10;}
	.st6{fill:none;stroke:#BF04B3;stroke-width:5;stroke-linecap:round;stroke-miterlimit:10;}
	.st7{fill:none;stroke:#0785F2;stroke-width:9;stroke-linecap:round;stroke-miterlimit:10;}
	.st8{fill:none;stroke:#7328F7;stroke-width:5;stroke-linecap:round;stroke-miterlimit:10;}
	.st9{fill:url(#SVGID_1_);}
	.st10{fill:none;stroke:#0785F2;stroke-miterlimit:10;}
	.st11{opacity:0.4;}
	.st12{fill:url(#SVGID_00000028284726101954538680000007388543104800188595_);}
	.st13{fill:url(#SVGID_00000019643758509108777740000003168387356777917369_);}
	.st14{fill:#F5F5F5;}
	.st15{fill:none;}
	.st16{fill:none;stroke:#0785F2;stroke-width:2;stroke-linecap:round;stroke-miterlimit:10;}
	.st17{fill:#7328F7;}
	.st18{fill:#BF04B3;}
	.st19{opacity:0.22;fill:#0785F2;enable-background:new    ;}
	.st20{fill:#044379;}
	.st21{opacity:0.81;}
	.st22{fill:url(#SVGID_00000007417089454150078530000015771084385927643546_);}
	.st23{fill:none;stroke:#0785F2;stroke-linecap:round;stroke-miterlimit:10;}
	.st24{fill:none;stroke:#0785F2;stroke-width:10;stroke-linecap:round;stroke-miterlimit:10;}
	.st25{fill:none;stroke:#0785F2;stroke-width:2;stroke-miterlimit:10;}
	.st26{fill:none;stroke:#0785F2;stroke-width:2;stroke-miterlimit:10;stroke-dasharray:9.21,9.21;}
	.st27{fill:none;stroke:#0785F2;stroke-width:2;stroke-miterlimit:10;stroke-dasharray:11.23,11.23;}
	.st28{font-family:'Poppins-Medium';}
	.st29{font-size:36px;}
</style>
<g>
	<g id="Calque_2">
		<g id="WebPage">
			<g class="st0">
				
					<image style="overflow:visible;opacity:0.5;enable-background:new    ;" width="437" height="274" xlink:href="BE4957B4.png"  transform="matrix(1 0 0 1 117.99 272)">
				</image>
				<path class="st1" d="M147.9,271.1h397.2c6,0,10.8,4.8,10.8,10.8v233.8c0,6-4.8,10.8-10.8,10.8H147.9c-6,0-10.8-4.8-10.8-10.8
					V281.9C137.1,276,141.9,271.1,147.9,271.1z"/>
			</g>
			<g class="st0">
				
					<image style="overflow:visible;opacity:0.4;enable-background:new    ;" width="359" height="264" xlink:href="BE4957B5.png"  transform="matrix(1 0 0 1 130.99 265)">
				</image>
				<path class="st1" d="M137.1,517V282.1c0-5.8,4.7-10.5,10.5-10.5H478"/>
			</g>
			
				<image style="overflow:visible;opacity:0.6;enable-background:new    ;" width="431" height="51" xlink:href="BE4957B3.png"  transform="matrix(1 0 0 1 130.99 270)">
			</image>
			<path class="st2" d="M555.9,310H137.1v-27.1c0-6.5,5.3-11.7,11.7-11.7l0,0h395.4c6.4,0,11.7,5.2,11.7,11.7V310z"/>
			
				<image style="overflow:visible;opacity:0.4;enable-background:new    ;" width="250" height="30" xlink:href="BE4957BC.png"  transform="matrix(1 0 0 1 149.99 279)">
			</image>
			<path class="st3" d="M162,285.3h219.5c3,0,5.4,2.4,5.4,5.4v0c0,3-2.4,5.4-5.4,5.4H162c-3,0-5.4-2.4-5.4-5.4v0
				C156.6,287.7,159,285.3,162,285.3z"/>
			<path class="st4" d="M162,285.3h219.5c3,0,5.4,2.4,5.4,5.4v0c0,3-2.4,5.4-5.4,5.4H162c-3,0-5.4-2.4-5.4-5.4v0
				C156.6,287.7,159,285.3,162,285.3z"/>
			
				<image style="overflow:visible;opacity:0.4;enable-background:new    ;" width="85" height="30" xlink:href="BE4957BF.png"  transform="matrix(1 0 0 1 396.99 279)">
			</image>
			<path class="st3" d="M409.4,285.3h54.5c3,0,5.4,2.4,5.4,5.4v0c0,3-2.4,5.4-5.4,5.4h-54.5c-3,0-5.4-2.4-5.4-5.4v0
				C403.9,287.7,406.4,285.3,409.4,285.3z"/>
			<path class="st4" d="M409.4,285.3h54.5c3,0,5.4,2.4,5.4,5.4v0c0,3-2.4,5.4-5.4,5.4h-54.5c-3,0-5.4-2.4-5.4-5.4v0
				C403.9,287.7,406.4,285.3,409.4,285.3z"/>
			
				<image style="overflow:visible;opacity:0.4;enable-background:new    ;" width="31" height="30" xlink:href="BE4957BD.png"  transform="matrix(1 0 0 1 514.99 279)">
			</image>
			<ellipse class="st1" cx="527.6" cy="290.8" rx="5.9" ry="5.5"/>
			
				<image style="overflow:visible;opacity:0.4;enable-background:new    ;" width="31" height="30" xlink:href="BE4957B2.png"  transform="matrix(1 0 0 1 497.99 279)">
			</image>
			<ellipse class="st1" cx="510.4" cy="290.8" rx="5.9" ry="5.5"/>
			
				<image style="overflow:visible;opacity:0.4;enable-background:new    ;" width="31" height="30" xlink:href="BE4957B6.png"  transform="matrix(1 0 0 1 480.99 279)">
			</image>
			<ellipse class="st1" cx="493.2" cy="290.8" rx="5.9" ry="5.5"/>
			
				<image style="overflow:visible;opacity:0.6;enable-background:new    ;" width="149" height="53" xlink:href="BE4957B7.png"  transform="matrix(1 0 0 1 366.99 454)">
			</image>
			<line class="st5" x1="455.1" y1="461.4" x2="489.5" y2="461.4"/>
			<line class="st6" x1="442.1" y1="461.4" x2="373.5" y2="461.4"/>
			<line class="st5" x1="373.5" y1="474" x2="407.8" y2="474"/>
			<line class="st5" x1="420.8" y1="474" x2="455.1" y2="474"/>
			<line class="st5" x1="470.3" y1="474" x2="494.1" y2="474"/>
			<line class="st5" x1="470.3" y1="485.1" x2="504.6" y2="485.1"/>
			<line class="st5" x1="436" y1="496.2" x2="487.5" y2="496.2"/>
			<line class="st5" x1="373.5" y1="485.1" x2="456.8" y2="485.1"/>
			<line class="st5" x1="373.5" y1="496.2" x2="425.1" y2="496.2"/>
			
				<image style="overflow:visible;opacity:0.6;enable-background:new    ;" width="162" height="154" xlink:href="8099AD53.png"  transform="matrix(1 0 0 1 157.99 342)">
			</image>
			<line class="st7" x1="167.4" y1="350.8" x2="264" y2="350.8"/>
			<line class="st8" x1="167.4" y1="373.6" x2="258.6" y2="373.6"/>
			<line class="st5" x1="237.8" y1="449.6" x2="309.1" y2="449.6"/>
			<line class="st5" x1="237.8" y1="461.4" x2="290.8" y2="461.4"/>
			<line class="st5" x1="237.8" y1="473.3" x2="283.8" y2="473.3"/>
			<line class="st5" x1="237.8" y1="485.1" x2="265.4" y2="485.1"/>
			<line class="st5" x1="273.6" y1="485.1" x2="301.2" y2="485.1"/>
			<line class="st5" x1="292.9" y1="473.3" x2="304.5" y2="473.3"/>
			<line class="st5" x1="270" y1="373.6" x2="297" y2="373.6"/>
			<line class="st5" x1="249" y1="386.2" x2="283.4" y2="386.2"/>
			<line class="st5" x1="236" y1="386.2" x2="167.4" y2="386.2"/>
			<line class="st5" x1="167.4" y1="398.8" x2="307.5" y2="398.8"/>
			
				<image style="overflow:visible;opacity:0.4;enable-background:new    ;" width="181" height="116" xlink:href="8099AD51.png"  transform="matrix(1 0 0 1 352.99 328)">
			</image>
			
				<linearGradient id="SVGID_1_" gradientUnits="userSpaceOnUse" x1="479.5072" y1="97.1163" x2="401.1328" y2="232.8637" gradientTransform="matrix(1 0 0 -1 0 548)">
				<stop  offset="0" style="stop-color:#0785F2"/>
				<stop  offset="0.68" style="stop-color:#4F47F5"/>
				<stop  offset="1" style="stop-color:#7328F7"/>
			</linearGradient>
			<path class="st9" d="M370,334.7h140.6c5.6,0,10.1,4.5,10.1,10.1v76.4c0,5.6-4.5,10.1-10.1,10.1H370c-5.6,0-10.1-4.5-10.1-10.1
				v-76.4C359.9,339.2,364.4,334.7,370,334.7z"/>
			<path class="st10" d="M370,334.7h140.6c5.6,0,10.1,4.5,10.1,10.1v76.4c0,5.6-4.5,10.1-10.1,10.1H370c-5.6,0-10.1-4.5-10.1-10.1
				v-76.4C359.9,339.2,364.4,334.7,370,334.7z"/>
			<g class="st11">
				
					<image style="overflow:visible;opacity:0.6;enable-background:new    ;" width="73" height="74" xlink:href="8099AD57.png"  transform="matrix(1 0 0 1 408.99 351)">
				</image>
				<circle class="st1" cx="440.3" cy="383" r="30"/>
			</g>
			<path class="st3" d="M455.3,380.8l-20.5-11.8c-1.2-0.7-2.8-0.3-3.5,0.9c-0.2,0.4-0.3,0.8-0.3,1.3v23.7c0,1.4,1.2,2.6,2.6,2.6
				c0.5,0,0.9-0.1,1.3-0.3l20.5-11.9c1.2-0.7,1.7-2.3,1-3.5C456,381.3,455.7,381,455.3,380.8z"/>
		</g>
		<g id="Login">
			
				<image style="overflow:visible;enable-background:new    ;" width="251" height="139" xlink:href="8099AD52.png"  transform="matrix(1 0 0 1 335.99 127)">
			</image>
		</g>
		<g id="Panel_Colors">
			
				<image style="overflow:visible;opacity:0.4;enable-background:new    ;" width="117" height="86" xlink:href="8099AD4D.png"  transform="matrix(1 0 0 1 524.99 38)">
			</image>
			
				<linearGradient id="SVGID_00000000904514586773089320000018351838451981481092_" gradientUnits="userSpaceOnUse" x1="629.2731" y1="442.2011" x2="532.227" y2="498.2289" gradientTransform="matrix(1 0 0 -1 0 548)">
				<stop  offset="0" style="stop-color:#0785F2"/>
				<stop  offset="1" style="stop-color:#0A6ABF"/>
			</linearGradient>
			<path style="fill:url(#SVGID_00000000904514586773089320000018351838451981481092_);" d="M540.5,44H621c4.8,0,8.6,3.9,8.6,8.6
				v50.3c0,4.8-3.9,8.6-8.6,8.6h-80.5c-4.8,0-8.6-3.9-8.6-8.6V52.6C531.9,47.9,535.8,44,540.5,44z"/>
			
				<image style="overflow:visible;opacity:0.5;enable-background:new    ;" width="96" height="64" xlink:href="8099AD4E.png"  transform="matrix(1 0 0 1 535.99 50)">
			</image>
			
				<linearGradient id="SVGID_00000132781888352345329850000000783626268948395428_" gradientUnits="userSpaceOnUse" x1="576.6218" y1="483.0666" x2="653.6371" y2="483.0666" gradientTransform="matrix(1 0 0 -1 -33.9 562)">
				<stop  offset="0" style="stop-color:#0785F2"/>
				<stop  offset="1" style="stop-color:#BF04B3"/>
			</linearGradient>
			<path style="fill:url(#SVGID_00000132781888352345329850000000783626268948395428_);" d="M543.4,92.7l18-33.2
				c1.5-2.8,5.1-3.9,7.9-2.4c0.9,0.5,1.7,1.3,2.3,2.2l11.8,20.3c1.6,2.8,5.2,3.7,8,2.1c0.6-0.4,1.2-0.8,1.6-1.4l6.5-8
				c2-2.5,5.7-2.9,8.2-0.9c0.6,0.5,1.2,1.2,1.5,1.9l9.9,19.5c1.5,2.9,0.3,6.4-2.6,7.9c-0.8,0.4-1.7,0.6-2.7,0.6h-65.3
				c-3.2,0-5.8-2.6-5.8-5.9C542.7,94.5,543,93.6,543.4,92.7z"/>
			
				<image style="overflow:visible;opacity:0.5;enable-background:new    ;" width="31" height="31" xlink:href="8099AD4F.png"  transform="matrix(1 0 0 1 599.99 45)">
			</image>
			<circle class="st14" cx="612.9" cy="57.4" r="6"/>
			
				<image style="overflow:visible;opacity:0.5;enable-background:new    ;" width="90" height="15" xlink:href="8099AD71.png"  transform="matrix(1 0 0 1 537.99 134)">
			</image>
			<line class="st15" x1="542" y1="138.4" x2="617.4" y2="138.4"/>
			<line class="st16" x1="542" y1="138.4" x2="617.4" y2="138.4"/>
			
				<image style="overflow:visible;opacity:0.4;enable-background:new    ;" width="23" height="22" xlink:href="8099AD73.png"  transform="matrix(1 0 0 1 532.99 129)">
			</image>
			<circle class="st1" cx="542.7" cy="138.1" r="4.8"/>
			<g transform="translate(537.99 155)">
				
					<image style="overflow:visible;enable-background:new    ;" width="90" height="15" id="image" xlink:href="8099AD76.png"  transform="matrix(1 0 0 1 537.99 155)">
				</image>
			</g>
			<line class="st15" x1="542" y1="159.6" x2="617.4" y2="159.6"/>
			<line class="st16" x1="542" y1="159.6" x2="617.4" y2="159.6"/>
			
				<image style="overflow:visible;opacity:0.4;enable-background:new    ;" width="23" height="23" xlink:href="8099AD6A.png"  transform="matrix(1 0 0 1 570.99 150)">
			</image>
			<circle class="st17" cx="580.8" cy="159.2" r="4.8"/>
			<g transform="translate(537.99 176)">
				
					<image style="overflow:visible;enable-background:new    ;" width="90" height="15" id="image_00000126318585896934687650000015796015404904422273_" xlink:href="8099AD69.png"  transform="matrix(1 0 0 1 537.99 176)">
				</image>
			</g>
			<line class="st15" x1="542" y1="180.7" x2="617.4" y2="180.7"/>
			<line class="st16" x1="542" y1="180.7" x2="617.4" y2="180.7"/>
			
				<image style="overflow:visible;opacity:0.4;enable-background:new    ;" width="23" height="23" xlink:href="8099AD96.png"  transform="matrix(1 0 0 1 607.99 171)">
			</image>
			<circle class="st18" cx="617.4" cy="180.4" r="4.8"/>
			<g transform="translate(537.99 197)">
				
					<image style="overflow:visible;enable-background:new    ;" width="90" height="15" id="image_00000128455092214685169950000003927765053812774330_" xlink:href="8099AD99.png"  transform="matrix(1 0 0 1 537.99 197)">
				</image>
			</g>
			<line class="st15" x1="542" y1="201.8" x2="617.4" y2="201.8"/>
			<line class="st16" x1="542" y1="201.8" x2="617.4" y2="201.8"/>
			
				<image style="overflow:visible;opacity:0.4;enable-background:new    ;" width="22" height="23" xlink:href="8099AD9A.png"  transform="matrix(1 0 0 1 532.99 192)">
			</image>
			<circle class="st14" cx="542" cy="201.5" r="4.8"/>
			<g transform="translate(634.99 49)">
				
					<image style="overflow:visible;enable-background:new    ;" width="48" height="48" id="image-2" xlink:href="8099AD98.png"  transform="matrix(1 0 0 1 634.99 49)">
				</image>
			</g>
			<path class="st1" d="M648.8,55.6h14.6c3.9,0,7.1,3.2,7.1,7.1v14.6c0,3.9-3.2,7.1-7.1,7.1h-14.6c-3.9,0-7.1-3.2-7.1-7.1V62.7
				C641.7,58.8,644.9,55.6,648.8,55.6z"/>
			<g transform="translate(634.99 88)">
				
					<image style="overflow:visible;enable-background:new    ;" width="48" height="48" id="image-2_00000016754216957380835920000017870827006819238794_" xlink:href="8099AD9E.png"  transform="matrix(1 0 0 1 634.99 88)">
				</image>
			</g>
			<path class="st17" d="M648.8,94.5h14.6c3.9,0,7.1,3.2,7.1,7.1v14.6c0,3.9-3.2,7.1-7.1,7.1h-14.6c-3.9,0-7.1-3.2-7.1-7.1v-14.6
				C641.7,97.7,644.9,94.5,648.8,94.5z"/>
			
				<image style="overflow:visible;opacity:0.4;enable-background:new    ;" width="48" height="48" xlink:href="8099AD9B.png"  transform="matrix(1 0 0 1 634.99 127)">
			</image>
			<path class="st18" d="M648.8,133.5h14.6c3.9,0,7.1,3.2,7.1,7.1v14.6c0,3.9-3.2,7.1-7.1,7.1h-14.6c-3.9,0-7.1-3.2-7.1-7.1v-14.6
				C641.7,136.6,644.9,133.5,648.8,133.5z"/>
			
				<image style="overflow:visible;opacity:0.4;enable-background:new    ;" width="48" height="48" xlink:href="8099ADA6.png"  transform="matrix(1 0 0 1 634.99 168)">
			</image>
			<path class="st14" d="M648.8,174.9h14.6c3.9,0,7.1,3.2,7.1,7.1v14.6c0,3.9-3.2,7.1-7.1,7.1h-14.6c-3.9,0-7.1-3.2-7.1-7.1v-14.6
				C641.7,178,644.9,174.9,648.8,174.9z"/>
		</g>
		
			<image style="overflow:visible;enable-background:new    ;" width="178" height="176" xlink:href="8099ADA7.png"  transform="matrix(1 0 0 1 80.99 0)">
		</image>
		
			<image style="overflow:visible;enable-background:new    ;" width="140" height="138" xlink:href="8099ADBD.png"  transform="matrix(1 0 0 1 154.99 70)">
		</image>
		<path class="st19" d="M4.7,161.6h38.3c2.6,0,4.7,2.1,4.7,4.6v213.4c0,2.6-2.1,4.6-4.7,4.6H4.7c-2.6,0-4.7-2.1-4.7-4.6V166.2
			C0,163.6,2.1,161.6,4.7,161.6z"/>
		<rect x="4.7" y="194.9" class="st20" width="38.1" height="36.9"/>
		<g>
			<g class="st21">
				<rect x="4.7" y="194.9" width="38.1" height="36.9"/>
			</g>
		</g>
		<path class="st14" d="M11.9,202.6l8.8,22.8c0.2,0.4,0.7,0.6,1,0.3c1.9-2.8,1.3-7.9,3.6-10.3s7.5-1.8,10.3-3.6
			c0.3-0.2,0.1-0.8-0.3-1l-22.8-8.8c-0.2-0.2-0.4-0.2-0.6,0C11.7,202.2,11.7,202.5,11.9,202.6z"/>
		<path class="st1" d="M17.5,252c-1.9,0.4-3.4,1.7-4.1,3.5c-0.6,2-0.6,2.8-1.5,3.9c-0.6,0.7-1.4,1.3-2.2,1.5
			c-1,0.4,4.7,1.2,10.2-0.8c2.2-0.8,4.1-3.4,2.8-5.4C21.7,252.8,19.6,251.7,17.5,252z"/>
		<path class="st1" d="M38.1,236.4L38.1,236.4c-0.3-0.4-0.8-0.5-1-0.3l-15.7,14.3c-0.4,0.4-0.5,0.9-0.2,1.1s1,0.3,1.5,0.8
			s0.5,1.3,0.9,1.6c0.1,0.1,0.3,0.2,0.5,0.1c0.2-0.1,0.4-0.2,0.6-0.4l13.8-16.3C38.6,237.2,38.5,236.8,38.1,236.4z"/>
		
			<linearGradient id="SVGID_00000102511271651543855250000006887991518012243890_" gradientUnits="userSpaceOnUse" x1="10.41" y1="264.005" x2="37.15" y2="264.005" gradientTransform="matrix(1 0 0 -1 0 548)">
			<stop  offset="0" style="stop-color:#0A6ABF;stop-opacity:0.5"/>
			<stop  offset="1" style="stop-color:#0785F2"/>
		</linearGradient>
		
			<rect x="10.4" y="272.3" style="fill:url(#SVGID_00000102511271651543855250000006887991518012243890_);" width="26.7" height="23.5"/>
		<polygon class="st1" points="21,351.6 31.8,351.6 31.8,340.9 11.1,340.9 11.1,361.5 21,361.5 		"/>
		<rect x="22.2" y="352.8" class="st1" width="14.3" height="14.3"/>
		<ellipse id="Ellipse_44" class="st10" cx="22.9" cy="317.7" rx="9" ry="8.9"/>
		<line id="Line_11" class="st23" x1="30.6" y1="326.2" x2="33.7" y2="329.3"/>
		<path class="st14" d="M37.1,172.3v4.1c0,0.4-0.3,0.7-0.7,0.7h-2c-0.4,0-0.7-0.3-0.7-0.7v-4.1c0-0.4,0.3-0.7,0.7-0.7h2
			C36.7,171.6,37.1,171.9,37.1,172.3z"/>
		<path class="st14" d="M31.2,172.3v4.1c0,0.4-0.3,0.7-0.7,0.7h-2c-0.4,0-0.7-0.3-0.7-0.7v-4.1c0-0.4,0.3-0.7,0.7-0.7h2
			C30.9,171.6,31.2,171.9,31.2,172.3z"/>
		<path class="st14" d="M25.4,172.3v4.1c0,0.4-0.3,0.7-0.7,0.7h-2c-0.4,0-0.7-0.3-0.7-0.7v-4.1c0-0.4,0.3-0.7,0.7-0.7h2
			C25.1,171.6,25.4,171.9,25.4,172.3z"/>
		<path class="st14" d="M19.7,172.3v4.1c0,0.4-0.3,0.7-0.7,0.7h-2c-0.4,0-0.7-0.3-0.7-0.7v-4.1c0-0.4,0.3-0.7,0.7-0.7h2
			C19.4,171.6,19.7,171.9,19.7,172.3z"/>
		<path class="st14" d="M14,172.3v4.1c0,0.4-0.3,0.7-0.7,0.7h-2c-0.4,0-0.7-0.3-0.7-0.7v-4.1c0-0.4,0.3-0.7,0.7-0.7h2
			C13.7,171.6,14,171.9,14,172.3z"/>
		<path class="st24" d="M236,427.9"/>
		
			<image style="overflow:visible;opacity:0.6;enable-background:new    ;" width="65" height="53" xlink:href="8099ADBB.png"  transform="matrix(1 0 0 1 163.99 443)">
		</image>
		<polyline class="st25" points="222.1,484.2 222.1,489.2 217.1,489.2 		"/>
		<line class="st26" x1="207.9" y1="489.2" x2="175.7" y2="489.2"/>
		<polyline class="st25" points="171.1,489.2 166.1,489.2 166.1,484.2 		"/>
		<line class="st27" x1="166.1" y1="473" x2="166.1" y2="456.1"/>
		<polyline class="st25" points="166.1,450.5 166.1,445.5 171.1,445.5 		"/>
		<line class="st26" x1="180.3" y1="445.5" x2="212.5" y2="445.5"/>
		<polyline class="st25" points="217.1,445.5 222.1,445.5 222.1,450.5 		"/>
		<line class="st27" x1="222.1" y1="461.7" x2="222.1" y2="478.6"/>
		<text transform="matrix(1 0 0 1 169.35 480.65)" class="st1 st28 st29">Aa</text>
	</g>
</g>
</svg>
