<?xml version="1.0" encoding="utf-8"?>
<!-- Generator: Adobe Illustrator 25.3.0, SVG Export Plug-In . SVG Version: 6.00 Build 0)  -->
<svg version="1.1" id="Calque_1" xmlns="http://www.w3.org/2000/svg" xmlns:xlink="http://www.w3.org/1999/xlink" x="0px" y="0px"
	 viewBox="0 0 1993 1080" style="enable-background:new 0 0 1993 1080;" xml:space="preserve">
<style type="text/css">
	.st0{fill:none;}
	.st1{fill:#FFFFFF;}
	.st2{fill:#141B27;}
	.st3{fill:#0A6ABF;}
	.st4{font-family:'QuicksandBook-Regular';}
	.st5{font-size:15px;}
	.st6{font-family:'QuicksandBold-Regular';}
	.st7{font-size:20px;}
	.st8{fill:#0785F2;}
	.st9{font-size:10px;}
	.st10{font-size:18px;}
	.st11{font-size:12px;}
	.st12{fill:#A4A4A4;}
	.st13{font-size:30px;}
	.st14{font-size:14px;}
</style>
<polygon class="st0" points="0,0 1993,0 1991,1080.2 0,1080 "/>
<polygon class="st1" points="0,0 1993,0 1991,1080.2 0,1080 "/>
<polygon class="st2" points="0,0 1994.2,0 1991.8,1080.2 0,1080 "/>
<rect x="279" y="142.1" class="st3" width="1714" height="87"/>
<path class="st2" d="M281,144v83l1710,0.2v-83L281,144 M279,142l1714,0.2v87L279,229V142z"/>
<g transform="translate(1123.632 142.458)">
	<text transform="matrix(1 0 0 1 90.988 72.542)" class="st1 st4 st5">Semaine 1</text>
	<text transform="matrix(1 0 0 1 288.076 72.542)" class="st1 st4 st5">Semaine 2</text>
	<text transform="matrix(1 0 0 1 487.9249 72.542)" class="st1 st4 st5">Semaine 3</text>
	<text transform="matrix(1 0 0 1 686.521 72.542)" class="st1 st4 st5">Semaine 4</text>
	<text transform="matrix(1 0 0 1 386.208 30.542)" class="st1 st6 st7">FEVRIER</text>
</g>
<g transform="translate(280.632 142.458)">
	<path class="st8" d="M439.4,46.5h183c5.5,0,10,4.5,10,10v27l0,0h-203l0,0v-27C429.4,51,433.8,46.5,439.4,46.5z"/>
	<text transform="matrix(1 0 0 1 90.988 72.542)" class="st1 st4 st5">Semaine 1</text>
	<text transform="matrix(1 0 0 1 288.076 72.542)" class="st1 st4 st5">Semaine 2</text>
	<text transform="matrix(1 0 0 1 487.925 72.542)" class="st1 st4 st5">Semaine 3</text>
	<text transform="matrix(1 0 0 1 686.5208 72.542)" class="st1 st4 st5">Semaine 4</text>
	<text transform="matrix(1 0 0 1 385.078 30.542)" class="st1 st6 st7">JANVIER</text>
</g>
<g transform="translate(324.632 239.309)">
	<g transform="translate(0 222)">
		<rect x="0.4" y="221.8" class="st3" width="1668" height="64"/>
		<path class="st2" d="M2.4,223.7v60l1664,0.2v-60L2.4,223.7 M0.4,221.7l1668,0.2v64l-1668-0.2V221.7z"/>
		<path class="st2" d="M819.9,231.7h390c12.4,0,22.5,10.1,22.5,22.5l0,0c0,12.4-10.1,22.5-22.5,22.5h-390
			c-12.4,0-22.5-10.1-22.5-22.5l0,0C797.4,241.8,807.4,231.7,819.9,231.7z"/>
		<path class="st8" d="M819.9,232.7c-11.9,0-21.5,9.6-21.5,21.5c0,8.6,5.2,16.4,13.1,19.8c2.6,1.1,5.5,1.7,8.4,1.7h390
			c11.9,0,21.5-9.6,21.5-21.5c0-8.6-5.2-16.4-13.1-19.8c-2.6-1.1-5.5-1.7-8.4-1.7L819.9,232.7 M819.9,231.7h390
			c12.4,0,22.5,10.1,22.5,22.5c0,12.4-10.1,22.5-22.5,22.5h-390c-12.4,0-22.5-10.1-22.5-22.5S807.4,231.7,819.9,231.7z"/>
		<g transform="matrix(1, 0, 0, 1, -324.63, -461.31)">
			<path class="st8" d="M1145.5,698h294c9.7,0,17.5,7.8,17.5,17.5l0,0c0,9.7-7.8,17.5-17.5,17.5h-294c-9.7,0-17.5-7.8-17.5-17.5l0,0
				C1128,705.8,1135.8,698,1145.5,698z"/>
		</g>
	</g>
	<g transform="translate(0 148)">
		<rect x="0.4" y="221.8" class="st3" width="1668" height="64"/>
		<path class="st2" d="M2.4,223.7v60l1664,0.2v-60L2.4,223.7 M0.4,221.7l1668,0.2v64l-1668-0.2V221.7z"/>
		<path class="st2" d="M820.9,231.7h188c12.4,0,22.5,10.1,22.5,22.5l0,0c0,12.4-10.1,22.5-22.5,22.5h-188
			c-12.4,0-22.5-10.1-22.5-22.5l0,0C798.4,241.8,808.4,231.7,820.9,231.7z"/>
		<path class="st8" d="M820.9,232.7c-11.9,0-21.5,9.6-21.5,21.5c0,8.6,5.2,16.4,13.1,19.8c2.6,1.1,5.5,1.7,8.4,1.7h188
			c11.9,0,21.5-9.6,21.5-21.5c0-8.6-5.2-16.4-13.1-19.8c-2.6-1.1-5.5-1.7-8.4-1.7L820.9,232.7 M820.9,231.7h188
			c12.4,0,22.5,10.1,22.5,22.5c0,12.4-10.1,22.5-22.5,22.5h-188c-12.4,0-22.5-10.1-22.5-22.5S808.4,231.7,820.9,231.7z"/>
		<path class="st1" d="M850.4,240.7h158c7.7,0,14,6.3,14,14l0,0c0,7.7-6.3,14-14,14h-158c-7.7,0-14-6.3-14-14l0,0
			C836.4,247,842.6,240.7,850.4,240.7z"/>
		<text transform="matrix(1 0 0 1 844.748 257.691)" class="st2 st6 st9">Validations du contenu graphique</text>
	</g>
	<g transform="translate(0 74)">
		<rect x="0.4" y="221.8" class="st3" width="1668" height="64"/>
		<path class="st2" d="M2.4,223.7v60l1664,0.2v-60L2.4,223.7 M0.4,221.7l1668,0.2v64l-1668-0.2V221.7z"/>
		<path class="st2" d="M508.9,231.7h362c12.4,0,22.5,10.1,22.5,22.5l0,0c0,12.4-10.1,22.5-22.5,22.5h-362
			c-12.4,0-22.5-10.1-22.5-22.5l0,0C486.4,241.8,496.4,231.7,508.9,231.7z"/>
		<path class="st8" d="M508.9,232.7c-11.9,0-21.5,9.6-21.5,21.5c0,8.6,5.2,16.4,13.1,19.8c2.6,1.1,5.5,1.7,8.4,1.7h362
			c11.9,0,21.5-9.6,21.5-21.5c0-8.6-5.2-16.4-13.1-19.8c-2.6-1.1-5.5-1.7-8.4-1.7L508.9,232.7 M508.9,231.7h362
			c12.4,0,22.5,10.1,22.5,22.5c0,12.4-10.1,22.5-22.5,22.5h-362c-12.4,0-22.5-10.1-22.5-22.5S496.4,231.7,508.9,231.7z"/>
		<g transform="matrix(1, 0, 0, 1, -324.63, -313.31)">
			<path class="st8" d="M834.5,550h65c9.7,0,17.5,7.8,17.5,17.5l0,0c0,9.7-7.8,17.5-17.5,17.5h-65c-9.7,0-17.5-7.8-17.5-17.5l0,0
				C817,557.8,824.8,550,834.5,550z"/>
		</g>
		<path class="st1" d="M706.4,240.7h161c7.7,0,14,6.3,14,14l0,0c0,7.7-6.3,14-14,14h-161c-7.7,0-14-6.3-14-14l0,0
			C692.4,247,698.6,240.7,706.4,240.7z"/>
		<text transform="matrix(1 0 0 1 720.503 257.691)" class="st2 st6 st9">Validations de la maquette</text>
	</g>
	<rect x="0.4" y="221.8" class="st3" width="1668" height="64"/>
	<path class="st2" d="M2.4,223.7v60l1664,0.2v-60L2.4,223.7 M0.4,221.7l1668,0.2v64l-1668-0.2V221.7z"/>
	<path class="st2" d="M317.9,231.7h252c12.4,0,22.5,10.1,22.5,22.5l0,0c0,12.4-10.1,22.5-22.5,22.5h-252
		c-12.4,0-22.5-10.1-22.5-22.5l0,0C295.4,241.8,305.4,231.7,317.9,231.7z"/>
	<path class="st8" d="M317.9,232.7c-11.9,0-21.5,9.6-21.5,21.5c0,8.6,5.2,16.4,13.1,19.8c2.6,1.1,5.5,1.7,8.4,1.7h252
		c11.9,0,21.5-9.6,21.5-21.5c0-8.6-5.2-16.4-13.1-19.8c-2.6-1.1-5.5-1.7-8.4-1.7L317.9,232.7 M317.9,231.7h252
		c12.4,0,22.5,10.1,22.5,22.5c0,12.4-10.1,22.5-22.5,22.5h-252c-12.4,0-22.5-10.1-22.5-22.5S305.4,231.7,317.9,231.7z"/>
	<g transform="matrix(1, 0, 0, 1, -324.63, -239.31)">
		<path class="st8" d="M643.5,476h250c9.7,0,17.5,7.8,17.5,17.5l0,0c0,9.7-7.8,17.5-17.5,17.5h-250c-9.7,0-17.5-7.8-17.5-17.5l0,0
			C626,483.8,633.8,476,643.5,476z"/>
	</g>
	<path class="st1" d="M402.4,239.7h166c7.7,0,14,6.3,14,14l0,0c0,7.7-6.3,14-14,14h-166c-7.7,0-14-6.3-14-14l0,0
		C388.4,246,394.6,239.7,402.4,239.7z"/>
	<text transform="matrix(1 0 0 1 419.503 256.691)" class="st2 st6 st9">Validations de la maquette</text>
	<rect x="0.4" y="147.8" class="st3" width="1668" height="64"/>
	<path class="st2" d="M2.4,149.7v60l1664,0.2v-60L2.4,149.7 M0.4,147.7l1668,0.2v64l-1668-0.2V147.7z"/>
	<path class="st2" d="M209.9,157.7h156c12.4,0,22.5,10.1,22.5,22.5l0,0c0,12.4-10.1,22.5-22.5,22.5h-156
		c-12.4,0-22.5-10.1-22.5-22.5l0,0C187.4,167.8,197.4,157.7,209.9,157.7z"/>
	<path class="st8" d="M209.9,158.7c-11.9,0-21.5,9.6-21.5,21.5c0,8.6,5.2,16.4,13.1,19.8c2.6,1.1,5.5,1.7,8.4,1.7h156
		c11.9,0,21.5-9.6,21.5-21.5c0-8.6-5.2-16.4-13.1-19.8c-2.6-1.1-5.5-1.7-8.4-1.7H209.9 M209.9,157.7h156c12.4,0,22.5,10.1,22.5,22.5
		s-10.1,22.5-22.5,22.5l0,0h-156c-12.4,0-22.5-10.1-22.5-22.5S197.4,157.7,209.9,157.7z"/>
	<path class="st1" d="M236.4,165.7h132c7.7,0,14,6.3,14,14l0,0c0,7.7-6.3,14-14,14h-132c-7.7,0-14-6.3-14-14l0,0
		C222.4,172,228.6,165.7,236.4,165.7z"/>
	<text transform="matrix(1 0 0 1 249.383 182.691)" class="st2 st6 st9">Livraison des contenus</text>
	<rect x="0.4" y="73.8" class="st3" width="1668" height="65"/>
	<path class="st2" d="M2.4,75.7v61l1664,0.2v-61L2.4,75.7 M0.4,73.7l1668,0.2v65l-1668-0.2V73.7z"/>
	<path class="st2" d="M44.9,83.7h230c12.4,0,22.5,10.1,22.5,22.5l0,0c0,12.4-10.1,22.5-22.5,22.5h-230c-12.4,0-22.5-10.1-22.5-22.5
		l0,0C22.4,93.8,32.4,83.7,44.9,83.7z"/>
	<path class="st8" d="M44.9,84.7c-11.9,0-21.5,9.6-21.5,21.5c0,8.6,5.2,16.4,13.1,19.8c2.6,1.1,5.5,1.7,8.4,1.7h230
		c11.9,0,21.5-9.6,21.5-21.5c0-8.6-5.2-16.4-13.1-19.8c-2.6-1.1-5.5-1.7-8.4-1.7H44.9 M44.9,83.7h230c12.4,0,22.5,10.1,22.5,22.5
		s-10.1,22.5-22.5,22.5h-230c-12.4,0-22.5-10.1-22.5-22.5S32.4,83.7,44.9,83.7z"/>
	<rect x="0.4" y="-0.2" class="st3" width="1668" height="65"/>
	<path class="st2" d="M2.4,1.7v61l1664,0.2v-61L2.4,1.7 M0.4-0.3l1668,0.2v65L0.4,64.7V-0.3z"/>
	<path class="st2" d="M44.9,9.7h119c12.4,0,22.5,10.1,22.5,22.5l0,0c0,12.4-10.1,22.5-22.5,22.5h-119c-12.4,0-22.5-10.1-22.5-22.5
		l0,0C22.4,19.8,32.4,9.7,44.9,9.7z"/>
	<path class="st8" d="M44.9,10.7c-11.9,0-21.5,9.6-21.5,21.5c0,8.6,5.2,16.4,13.1,19.8c2.6,1.1,5.5,1.7,8.4,1.7h119
		c11.9,0,21.5-9.6,21.5-21.5c0-8.6-5.2-16.4-13.1-19.8c-2.6-1.1-5.5-1.7-8.4-1.7L44.9,10.7 M44.9,9.7h119
		c12.4,0,22.5,10.1,22.5,22.5s-10.1,22.5-22.5,22.5h-119c-12.4,0-22.5-10.1-22.5-22.5S32.4,9.7,44.9,9.7z"/>
	<path class="st1" d="M38.4,18.7h127c7.7,0,14,6.3,14,14l0,0c0,7.7-6.3,14-14,14h-127c-7.7,0-14-6.3-14-14l0,0
		C24.4,25,30.6,18.7,38.4,18.7z"/>
	<text transform="matrix(1 0 0 1 26.113 35.691)" class="st2 st6 st9">Validations des besoins</text>
	<g transform="translate(0 296)">
		<rect x="0.4" y="221.8" class="st3" width="1668" height="64"/>
		<path class="st2" d="M2.4,223.7v60l1664,0.2v-60L2.4,223.7 M0.4,221.7l1668,0.2v64l-1668-0.2V221.7z"/>
		<path class="st2" d="M1055.9,231.7h563c12.4,0,22.5,10.1,22.5,22.5l0,0c0,12.4-10.1,22.5-22.5,22.5h-563
			c-12.4,0-22.5-10.1-22.5-22.5l0,0C1033.4,241.8,1043.4,231.7,1055.9,231.7z"/>
		<path class="st8" d="M1055.9,232.7c-11.9,0-21.5,9.6-21.5,21.5c0,8.6,5.2,16.4,13.1,19.8c2.6,1.1,5.5,1.7,8.4,1.7h563
			c11.9,0,21.5-9.6,21.5-21.5c0-8.6-5.2-16.4-13.1-19.8c-2.6-1.1-5.5-1.7-8.4-1.7L1055.9,232.7 M1055.9,231.7h563
			c12.4,0,22.5,10.1,22.5,22.5c0,12.4-10.1,22.5-22.5,22.5h-563c-12.4,0-22.5-10.1-22.5-22.5S1043.4,231.7,1055.9,231.7z"/>
		<g transform="matrix(1, 0, 0, 1, -324.63, -535.31)">
			<path class="st8" d="M1381.5,772h363c9.7,0,17.5,7.8,17.5,17.5l0,0c0,9.7-7.8,17.5-17.5,17.5h-363c-9.7,0-17.5-7.8-17.5-17.5l0,0
				C1364,779.8,1371.8,772,1381.5,772z"/>
		</g>
		<path class="st1" d="M1058.4,240.7h559c7.7,0,14,6.3,14,14l0,0c0,7.7-6.3,14-14,14h-559c-7.7,0-14-6.3-14-14l0,0
			C1044.4,247,1050.6,240.7,1058.4,240.7z"/>
		<text transform="matrix(1 0 0 1 1267.1681 257.691)" class="st2 st6 st9">Contrôle &amp; validation du site</text>
	</g>
	<g transform="translate(0 370)">
		<rect x="0.4" y="221.8" class="st3" width="1668" height="64"/>
		<path class="st2" d="M2.4,223.7v60l1664,0.2v-60L2.4,223.7 M0.4,221.7l1668,0.2v64l-1668-0.2V221.7z"/>
		<path class="st2" d="M1256.9,231.7h158c12.4,0,22.5,10.1,22.5,22.5l0,0c0,12.4-10.1,22.5-22.5,22.5h-158
			c-12.4,0-22.5-10.1-22.5-22.5l0,0C1234.4,241.8,1244.4,231.7,1256.9,231.7z"/>
		<path class="st8" d="M1256.9,232.7c-11.9,0-21.5,9.6-21.5,21.5c0,8.6,5.2,16.4,13.1,19.8c2.6,1.1,5.5,1.7,8.4,1.7h158
			c11.9,0,21.5-9.6,21.5-21.5c0-8.6-5.2-16.4-13.1-19.8c-2.6-1.1-5.5-1.7-8.4-1.7L1256.9,232.7 M1256.9,231.7h158
			c12.4,0,22.5,10.1,22.5,22.5c0,12.4-10.1,22.5-22.5,22.5h-158c-12.4,0-22.5-10.1-22.5-22.5S1244.4,231.7,1256.9,231.7z"/>
	</g>
	<g transform="translate(0 444)">
		<rect x="0.4" y="221.8" class="st3" width="1668" height="64"/>
		<path class="st2" d="M2.4,223.7v60l1664,0.2v-60L2.4,223.7 M0.4,221.7l1668,0.2v64l-1668-0.2V221.7z"/>
		<path class="st2" d="M1359.9,231.7h157c12.4,0,22.5,10.1,22.5,22.5l0,0c0,12.4-10.1,22.5-22.5,22.5h-157
			c-12.4,0-22.5-10.1-22.5-22.5l0,0C1337.4,241.8,1347.4,231.7,1359.9,231.7z"/>
		<path class="st8" d="M1359.9,232.7c-11.9,0-21.5,9.6-21.5,21.5c0,8.6,5.2,16.4,13.1,19.8c2.6,1.1,5.5,1.7,8.4,1.7h157
			c11.9,0,21.5-9.6,21.5-21.5c0-8.6-5.2-16.4-13.1-19.8c-2.6-1.1-5.5-1.7-8.4-1.7L1359.9,232.7 M1359.9,231.7h157
			c12.4,0,22.5,10.1,22.5,22.5c0,12.4-10.1,22.5-22.5,22.5h-157c-12.4,0-22.5-10.1-22.5-22.5S1347.4,231.7,1359.9,231.7z"/>
		<path class="st1" d="M1360.4,240.7h155c7.7,0,14,6.3,14,14l0,0c0,7.7-6.3,14-14,14h-155c-7.7,0-14-6.3-14-14l0,0
			C1346.4,247,1352.6,240.7,1360.4,240.7z"/>
		<text transform="matrix(1 0 0 1 1365.1681 257.691)" class="st2 st6 st9">Contrôle &amp; validation du site</text>
	</g>
	<g transform="translate(0 517)">
		<rect x="0.4" y="221.8" class="st3" width="1668" height="64"/>
		<path class="st2" d="M2.4,223.7v60l1664,0.2v-60L2.4,223.7 M0.4,221.7l1668,0.2v64l-1668-0.2V221.7z"/>
		<path class="st2" d="M1461.9,231.7h157c12.4,0,22.5,10.1,22.5,22.5l0,0c0,12.4-10.1,22.5-22.5,22.5h-157
			c-12.4,0-22.5-10.1-22.5-22.5l0,0C1439.4,241.8,1449.4,231.7,1461.9,231.7z"/>
		<path class="st8" d="M1461.9,232.7c-11.9,0-21.5,9.6-21.5,21.5c0,8.6,5.2,16.4,13.1,19.8c2.6,1.1,5.5,1.7,8.4,1.7h157
			c11.9,0,21.5-9.6,21.5-21.5c0-8.6-5.2-16.4-13.1-19.8c-2.6-1.1-5.5-1.7-8.4-1.7L1461.9,232.7 M1461.9,231.7h157
			c12.4,0,22.5,10.1,22.5,22.5c0,12.4-10.1,22.5-22.5,22.5h-157c-12.4,0-22.5-10.1-22.5-22.5S1449.4,231.7,1461.9,231.7z"/>
	</g>
	<g transform="translate(0 590)">
		<rect x="0.4" y="221.8" class="st3" width="1668" height="64"/>
		<path class="st2" d="M2.4,223.7v60l1664,0.2v-60L2.4,223.7 M0.4,221.7l1668,0.2v64l-1668-0.2V221.7z"/>
		<path class="st2" d="M1461.9,231.7h157c12.4,0,22.5,10.1,22.5,22.5l0,0c0,12.4-10.1,22.5-22.5,22.5h-157
			c-12.4,0-22.5-10.1-22.5-22.5l0,0C1439.4,241.8,1449.4,231.7,1461.9,231.7z"/>
		<path class="st8" d="M1461.9,232.7c-11.9,0-21.5,9.6-21.5,21.5c0,8.6,5.2,16.4,13.1,19.8c2.6,1.1,5.5,1.7,8.4,1.7h157
			c11.9,0,21.5-9.6,21.5-21.5c0-8.6-5.2-16.4-13.1-19.8c-2.6-1.1-5.5-1.7-8.4-1.7L1461.9,232.7 M1461.9,231.7h157
			c12.4,0,22.5,10.1,22.5,22.5c0,12.4-10.1,22.5-22.5,22.5h-157c-12.4,0-22.5-10.1-22.5-22.5S1449.4,231.7,1461.9,231.7z"/>
	</g>
</g>
<g transform="translate(27.696 93.571)">
	<g transform="matrix(1, 0, 0, 1, -27.7, -93.57)">
		<g>
			<g>
				<path class="st8" d="M37,94h328c5.5,0,10,4.5,10,10v976l0,0H27l0,0V104C27,98.5,31.5,94,37,94z"/>
			</g>
		</g>
	</g>
	<g transform="translate(-0.208 441.429)">
		<rect x="-0.5" y="222" class="st3" width="348" height="64"/>
		<rect x="-0.5" y="296" class="st3" width="348" height="64"/>
		<rect x="-0.5" y="370" class="st3" width="348" height="64"/>
		<rect x="-0.5" y="444" class="st3" width="348" height="64"/>
		<rect x="-0.5" y="518" class="st3" width="348" height="64"/>
		<text transform="matrix(1 0 0 1 8.512 554)" class="st1 st4 st10">Soumission aux moteurs de </text>
		<text transform="matrix(1 0 0 1 8.512 575)" class="st1 st4 st10">recherches</text>
		<text transform="matrix(1 0 0 1 8.512 480)" class="st1 st4 st10">Mise en ligne</text>
		<text transform="matrix(1 0 0 1 8.512 406)" class="st1 st4 st10">Derniers ajustement</text>
		<text transform="matrix(1 0 0 1 8.512 332)" class="st1 st4 st10">Phase test des navigateurs</text>
		<text transform="matrix(1 0 0 1 8.512 258)" class="st1 st4 st10">Intégration du contenu</text>
	</g>
	<g transform="translate(-0.208 441.429)">
		<rect x="-0.5" y="0" class="st3" width="348" height="65"/>
		<rect x="-0.5" y="74" class="st3" width="348" height="65"/>
		<rect x="-0.5" y="148" class="st3" width="348" height="64"/>
		<text transform="matrix(1 0 0 1 8.512 37)" class="st1 st4 st10">Création graphique</text>
		<text transform="matrix(1 0 0 1 8.512 110)" class="st1 st4 st10">Création graphique annexes</text>
		<text transform="matrix(1 0 0 1 8.512 184)" class="st1 st4 st10">Déveleppement informatique</text>
	</g>
	<g transform="translate(-0.208 145.429)">
		<rect x="-0.5" class="st3" width="348" height="65"/>
		<rect x="-0.5" y="74" class="st3" width="348" height="65"/>
		<rect x="-0.5" y="148" class="st3" width="348" height="64"/>
		<rect x="-0.5" y="222" class="st3" width="348" height="64"/>
		<text transform="matrix(1 0 0 1 8.512 37)" class="st1 st4 st10">Expression des besoins</text>
		<text transform="matrix(1 0 0 1 8.512 110)" class="st1 st4 st10">Réflexion et analyse</text>
		<text transform="matrix(1 0 0 1 8.512 184)" class="st1 st4 st10">Arborescence du site</text>
		<text transform="matrix(1 0 0 1 8.512 258)" class="st1 st4 st10">Maquettage</text>
	</g>
	<g transform="translate(-0.208 0.429)">
		<rect x="-0.5" y="48" class="st8" width="348" height="87"/>
		<path class="st3" d="M173.5,0h164c5.5,0,10,4.5,10,10v43l0,0h-174l0,0V0L173.5,0z"/>
		<path class="st3" d="M9.5,79h190c2.8,0,5,2.2,5,5v11c0,2.8-2.2,5-5,5H9.5c-2.8,0-5-2.2-5-5V84C4.5,81.2,6.8,79,9.5,79z"/>
		<path class="st3" d="M256.5,79h81c2.8,0,5,2.2,5,5v11c0,2.8-2.2,5-5,5h-81c-2.8,0-5-2.2-5-5V84C251.5,81.2,253.8,79,256.5,79z"/>
		<text transform="matrix(1 0 0 1 15.512 94)" class="st1 st4 st11">Recherche...</text>
		<text transform="matrix(1 0 0 1 259.512 94)" class="st1 st4 st11">Filtres...</text>
		<text transform="matrix(1 0 0 1 15.512 133)" class="st1 st6 st11">Phases</text>
		<text transform="matrix(1 0 0 1 46.465 32)" class="st1 st4 st10">PHASES</text>
		<text transform="matrix(1 0 0 1 212.713 32)" class="st12 st4 st10">LIVRABLES</text>
	</g>
</g>
<g transform="translate(-40 -3.346)">
	<path class="st1" d="M851.9,1052.2h-2v-10h2V1052.2z M851.9,1032.2h-2v-10h2V1032.2z M851.9,1012.2h-2v-10h2V1012.2z M851.9,992.2
		h-2v-10h2V992.2z M851.9,972.2h-2v-10h2V972.2z M851.9,952.2h-2v-10h2V952.2z M851.9,932.2h-2v-10h2V932.2z M851.9,912.2h-2v-10h2
		V912.2z M851.9,892.2h-2v-10h2V892.2z M851.9,872.2h-2v-10h2V872.2z M851.9,852.2h-2v-10h2V852.2z M851.9,832.2h-2v-10h2V832.2z
		 M851.9,812.2h-2v-10h2V812.2z M851.9,792.2h-2v-10h2V792.2z M851.9,772.2h-2v-10h2V772.2z M851.9,752.2h-2v-10h2V752.2z
		 M851.9,732.2h-2v-10h2V732.2z M851.9,712.2h-2v-10h2V712.2z M851.9,692.2h-2v-10h2V692.2z M851.9,672.2h-2v-10h2V672.2z
		 M851.9,652.2h-2v-10h2V652.2z M851.9,632.2h-2v-10h2V632.2z M851.9,612.2h-2v-10h2V612.2z M851.9,592.2h-2v-10h2V592.2z
		 M851.9,572.2h-2v-10h2V572.2z M851.9,552.2h-2v-10h2V552.2z M851.9,532.2h-2v-10h2V532.2z M851.9,512.2h-2v-10h2V512.2z
		 M851.9,492.2h-2v-10h2V492.2z M851.9,472.2h-2v-10h2V472.2z M851.9,452.2h-2v-10h2V452.2z M851.9,432.2h-2v-10h2V432.2z
		 M851.9,412.2h-2v-10h2V412.2z M851.9,392.2h-2v-10h2V392.2z M851.9,372.2h-2v-10h2V372.2z M851.9,352.2h-2v-10h2V352.2z
		 M851.9,332.2h-2v-10h2V332.2z M851.9,312.2h-2v-10h2V312.2z M851.9,292.2h-2v-10h2V292.2z M851.9,272.2h-2v-10h2V272.2z
		 M851.9,252.2h-2v-10h2V252.2z M851.9,232.2h-2v-10h2V232.2z"/>
	<path class="st1" d="M1162.2,1057.9h-1V147.8h1V1057.9z"/>
	<path class="st1" d="M552.5,1057.9h-1V227.8h1V1057.9z"/>
	<path class="st1" d="M753.6,1057.9h-1V227.8h1V1057.9z"/>
	<path class="st1" d="M958.4,1057.9h-1V227.8h1V1057.9z"/>
</g>
<g transform="translate(805.3 -3.346)">
	<path class="st1" d="M1162.2,1057.9h-1V147.8h1V1057.9z"/>
	<path class="st1" d="M552.5,1057.9h-1V227.8h1V1057.9z"/>
	<path class="st1" d="M753.6,1057.9h-1V227.8h1V1057.9z"/>
	<path class="st1" d="M958.4,1057.9h-1V227.8h1V1057.9z"/>
</g>
<g transform="translate(-81)">
	<text transform="matrix(1 0 0 1 108 44.5)" class="st1 st6 st13">ROAD MAP v1.0</text>
	<text transform="matrix(1 0 0 1 108 69)" class="st1 st4 st14">Description du projet =&gt;</text>
	<text transform="matrix(1 0 0 1 356 44)" class="st1 st4 st9">Updated Janv. 8th 2022</text>
</g>
<path class="st2" d="M530.5,15h689c10.2,0,18.5,8.3,18.5,18.5l0,0c0,10.2-8.3,18.5-18.5,18.5h-689c-10.2,0-18.5-8.3-18.5-18.5l0,0
	C512,23.3,520.3,15,530.5,15z"/>
<path class="st8" d="M530.5,16c-9.7,0-17.5,7.8-17.5,17.5c0,4.6,1.8,9.1,5.1,12.4c3.3,3.3,7.7,5.1,12.4,5.1h689
	c9.7,0,17.5-7.8,17.5-17.5c0-4.6-1.8-9.1-5.1-12.4c-3.3-3.3-7.7-5.1-12.4-5.1H530.5 M530.5,15h689c10.2,0,18.5,8.3,18.5,18.5
	s-8.3,18.5-18.5,18.5h-689c-10.2,0-18.5-8.3-18.5-18.5S520.3,15,530.5,15z"/>
<g transform="matrix(1, 0, 0, 1, 0, 0)">
	<path class="st8" d="M713.5,18h377c8.6,0,15.5,6.9,15.5,15.5l0,0c0,8.6-6.9,15.5-15.5,15.5h-377c-8.6,0-15.5-6.9-15.5-15.5l0,0
		C698,24.9,704.9,18,713.5,18z"/>
</g>
<text transform="matrix(1 0 0 1 713.5818 37)" class="st1 st4 st11">Progression du développeur</text>
<path class="st1" d="M912.5,21h139c6.9,0,12.5,5.6,12.5,12.5l0,0c0,6.9-5.6,12.5-12.5,12.5h-139c-6.9,0-12.5-5.6-12.5-12.5l0,0
	C900,26.6,905.6,21,912.5,21z"/>
<text transform="matrix(1 0 0 1 932.45 37)" class="st2 st6 st9">Expression du client</text>
<text transform="matrix(1 0 0 1 532.6653 37)" class="st1 st4 st11">Barre de progression</text>
</svg>
